%TF.GenerationSoftware,KiCad,Pcbnew,9.0.7*%
%TF.CreationDate,2026-03-09T01:44:23+01:00*%
%TF.ProjectId,Temp-Project,54656d70-2d50-4726-9f6a-6563742e6b69,rev?*%
%TF.SameCoordinates,Original*%
%TF.FileFunction,Soldermask,Top*%
%TF.FilePolarity,Negative*%
%FSLAX46Y46*%
G04 Gerber Fmt 4.6, Leading zero omitted, Abs format (unit mm)*
G04 Created by KiCad (PCBNEW 9.0.7) date 2026-03-09 01:44:23*
%MOMM*%
%LPD*%
G01*
G04 APERTURE LIST*
G04 Aperture macros list*
%AMRoundRect*
0 Rectangle with rounded corners*
0 $1 Rounding radius*
0 $2 $3 $4 $5 $6 $7 $8 $9 X,Y pos of 4 corners*
0 Add a 4 corners polygon primitive as box body*
4,1,4,$2,$3,$4,$5,$6,$7,$8,$9,$2,$3,0*
0 Add four circle primitives for the rounded corners*
1,1,$1+$1,$2,$3*
1,1,$1+$1,$4,$5*
1,1,$1+$1,$6,$7*
1,1,$1+$1,$8,$9*
0 Add four rect primitives between the rounded corners*
20,1,$1+$1,$2,$3,$4,$5,0*
20,1,$1+$1,$4,$5,$6,$7,0*
20,1,$1+$1,$6,$7,$8,$9,0*
20,1,$1+$1,$8,$9,$2,$3,0*%
G04 Aperture macros list end*
%ADD10RoundRect,0.225000X-0.225000X-0.250000X0.225000X-0.250000X0.225000X0.250000X-0.225000X0.250000X0*%
%ADD11RoundRect,0.225000X-0.250000X0.225000X-0.250000X-0.225000X0.250000X-0.225000X0.250000X0.225000X0*%
%ADD12RoundRect,0.135000X0.185000X-0.135000X0.185000X0.135000X-0.185000X0.135000X-0.185000X-0.135000X0*%
%ADD13RoundRect,0.100000X0.200000X0.100000X-0.200000X0.100000X-0.200000X-0.100000X0.200000X-0.100000X0*%
%ADD14R,1.500000X2.400000*%
%ADD15R,0.850000X0.850000*%
%ADD16C,0.850000*%
%ADD17RoundRect,0.225000X0.225000X0.250000X-0.225000X0.250000X-0.225000X-0.250000X0.225000X-0.250000X0*%
%ADD18RoundRect,0.135000X-0.135000X-0.185000X0.135000X-0.185000X0.135000X0.185000X-0.135000X0.185000X0*%
%ADD19RoundRect,0.225000X0.250000X-0.225000X0.250000X0.225000X-0.250000X0.225000X-0.250000X-0.225000X0*%
%ADD20R,0.900000X1.000000*%
%ADD21C,3.800000*%
%ADD22RoundRect,0.135000X-0.185000X0.135000X-0.185000X-0.135000X0.185000X-0.135000X0.185000X0.135000X0*%
%ADD23RoundRect,0.075000X-0.662500X-0.075000X0.662500X-0.075000X0.662500X0.075000X-0.662500X0.075000X0*%
%ADD24RoundRect,0.075000X-0.075000X-0.662500X0.075000X-0.662500X0.075000X0.662500X-0.075000X0.662500X0*%
%ADD25RoundRect,0.375000X0.375000X-0.625000X0.375000X0.625000X-0.375000X0.625000X-0.375000X-0.625000X0*%
%ADD26RoundRect,0.500000X1.400000X-0.500000X1.400000X0.500000X-1.400000X0.500000X-1.400000X-0.500000X0*%
%ADD27R,1.000000X1.000000*%
%ADD28RoundRect,0.175000X-0.425000X0.175000X-0.425000X-0.175000X0.425000X-0.175000X0.425000X0.175000X0*%
%ADD29RoundRect,0.190000X0.410000X-0.190000X0.410000X0.190000X-0.410000X0.190000X-0.410000X-0.190000X0*%
%ADD30RoundRect,0.200000X0.400000X-0.200000X0.400000X0.200000X-0.400000X0.200000X-0.400000X-0.200000X0*%
%ADD31RoundRect,0.175000X0.425000X-0.175000X0.425000X0.175000X-0.425000X0.175000X-0.425000X-0.175000X0*%
%ADD32RoundRect,0.190000X-0.410000X0.190000X-0.410000X-0.190000X0.410000X-0.190000X0.410000X0.190000X0*%
%ADD33RoundRect,0.200000X-0.400000X0.200000X-0.400000X-0.200000X0.400000X-0.200000X0.400000X0.200000X0*%
%ADD34RoundRect,0.250000X-0.425000X0.650000X-0.425000X-0.650000X0.425000X-0.650000X0.425000X0.650000X0*%
%ADD35RoundRect,0.250000X-0.500000X0.650000X-0.500000X-0.650000X0.500000X-0.650000X0.500000X0.650000X0*%
%ADD36RoundRect,0.250000X-0.450000X-0.350000X0.450000X-0.350000X0.450000X0.350000X-0.450000X0.350000X0*%
%ADD37RoundRect,0.135000X0.135000X0.185000X-0.135000X0.185000X-0.135000X-0.185000X0.135000X-0.185000X0*%
G04 APERTURE END LIST*
D10*
%TO.C,C4*%
X104885000Y-127635000D03*
X106435000Y-127635000D03*
%TD*%
D11*
%TO.C,C3*%
X95680000Y-128725000D03*
X95680000Y-130275000D03*
%TD*%
D12*
%TO.C,R6*%
X109549999Y-128169998D03*
X109549999Y-127149998D03*
%TD*%
D13*
%TO.C,U3*%
X118730324Y-116632000D03*
X118730324Y-115682000D03*
X118730324Y-114732000D03*
X115930324Y-114732000D03*
X115930324Y-115682000D03*
X115930324Y-116632000D03*
D14*
X117330324Y-115682000D03*
%TD*%
D15*
%TO.C,J2*%
X124714000Y-125920000D03*
D16*
X124714000Y-124920000D03*
X124714000Y-123920000D03*
X124714000Y-122920000D03*
%TD*%
D10*
%TO.C,C15*%
X115090867Y-134650000D03*
X116640867Y-134650000D03*
%TD*%
D17*
%TO.C,C12*%
X122591744Y-129000548D03*
X121041744Y-129000548D03*
%TD*%
D18*
%TO.C,R3*%
X114552000Y-118110000D03*
X115572000Y-118110000D03*
%TD*%
D19*
%TO.C,C10*%
X108220655Y-128961716D03*
X108220655Y-127411716D03*
%TD*%
D20*
%TO.C,SW1*%
X100185000Y-129375000D03*
X104285000Y-129375000D03*
X100185000Y-130975000D03*
X104285000Y-130975000D03*
%TD*%
D11*
%TO.C,C13*%
X121768092Y-118901165D03*
X121768092Y-120451165D03*
%TD*%
D15*
%TO.C,J4*%
X112340000Y-132650000D03*
D16*
X113340000Y-132650000D03*
X114340000Y-132650000D03*
X115340000Y-132650000D03*
X116340000Y-132650000D03*
X117340000Y-132650000D03*
X118340000Y-132650000D03*
X119340000Y-132650000D03*
%TD*%
D21*
%TO.C,H3*%
X125250000Y-133750000D03*
%TD*%
D12*
%TO.C,R2*%
X92935342Y-123970152D03*
X92935342Y-122950152D03*
%TD*%
D22*
%TO.C,R1*%
X93061963Y-124842027D03*
X93061963Y-125862027D03*
%TD*%
D12*
%TO.C,R9*%
X122889625Y-122629686D03*
X122889625Y-121609686D03*
%TD*%
D23*
%TO.C,U2*%
X112960000Y-121710000D03*
X112960000Y-122210000D03*
X112960000Y-122710000D03*
X112960000Y-123210000D03*
X112960000Y-123710000D03*
X112960000Y-124210000D03*
X112960000Y-124710000D03*
X112960000Y-125210000D03*
X112960000Y-125710000D03*
X112960000Y-126210000D03*
X112960000Y-126710000D03*
X112960000Y-127210000D03*
D24*
X114372500Y-128622500D03*
X114872500Y-128622500D03*
X115372500Y-128622500D03*
X115872500Y-128622500D03*
X116372500Y-128622500D03*
X116872500Y-128622500D03*
X117372500Y-128622500D03*
X117872500Y-128622500D03*
X118372500Y-128622500D03*
X118872500Y-128622500D03*
X119372500Y-128622500D03*
X119872500Y-128622500D03*
D23*
X121285000Y-127210000D03*
X121285000Y-126710000D03*
X121285000Y-126210000D03*
X121285000Y-125710000D03*
X121285000Y-125210000D03*
X121285000Y-124710000D03*
X121285000Y-124210000D03*
X121285000Y-123710000D03*
X121285000Y-123210000D03*
X121285000Y-122710000D03*
X121285000Y-122210000D03*
X121285000Y-121710000D03*
D24*
X119872500Y-120297500D03*
X119372500Y-120297500D03*
X118872500Y-120297500D03*
X118372500Y-120297500D03*
X117872500Y-120297500D03*
X117372500Y-120297500D03*
X116872500Y-120297500D03*
X116372500Y-120297500D03*
X115872500Y-120297500D03*
X115372500Y-120297500D03*
X114872500Y-120297500D03*
X114372500Y-120297500D03*
%TD*%
D12*
%TO.C,R4*%
X120250000Y-118510000D03*
X120250000Y-117490000D03*
%TD*%
D19*
%TO.C,C7*%
X106000000Y-121525000D03*
X106000000Y-119975000D03*
%TD*%
D25*
%TO.C,U1*%
X94855000Y-126340000D03*
X97155000Y-126340000D03*
D26*
X97155000Y-120040000D03*
D25*
X99455000Y-126340000D03*
%TD*%
D21*
%TO.C,*%
X88000000Y-114750000D03*
%TD*%
D12*
%TO.C,R5*%
X114750000Y-115760000D03*
X114750000Y-114740000D03*
%TD*%
D11*
%TO.C,C9*%
X112549617Y-118938824D03*
X112549617Y-120488824D03*
%TD*%
D27*
%TO.C,TP1*%
X102000000Y-121250000D03*
%TD*%
D11*
%TO.C,C5*%
X101883264Y-125702324D03*
X101883264Y-127252324D03*
%TD*%
D18*
%TO.C,R8*%
X111250000Y-130048000D03*
X112270000Y-130048000D03*
%TD*%
D17*
%TO.C,C6*%
X114525000Y-117000000D03*
X112975000Y-117000000D03*
%TD*%
D11*
%TO.C,C2*%
X93345000Y-128725000D03*
X93345000Y-130275000D03*
%TD*%
D27*
%TO.C,TP3*%
X104000000Y-119250000D03*
%TD*%
D19*
%TO.C,C1*%
X98000000Y-130275000D03*
X98000000Y-128725000D03*
%TD*%
D28*
%TO.C,J1*%
X91297500Y-123960000D03*
D29*
X91297500Y-125980000D03*
D30*
X91297500Y-127210000D03*
D31*
X91297500Y-124960000D03*
D32*
X91297500Y-122940000D03*
D33*
X91297500Y-121710000D03*
D34*
X91242500Y-119335000D03*
D35*
X87662500Y-119335000D03*
D34*
X91242500Y-129585000D03*
D35*
X87662500Y-129585000D03*
%TD*%
D19*
%TO.C,C14*%
X111144607Y-127775000D03*
X111144607Y-126225000D03*
%TD*%
D27*
%TO.C,TP2*%
X104000000Y-121250000D03*
%TD*%
D36*
%TO.C,Y1*%
X104390000Y-125560000D03*
X106930000Y-125560000D03*
X106930000Y-123360000D03*
X104390000Y-123360000D03*
%TD*%
D21*
%TO.C,H4*%
X88000000Y-133750000D03*
%TD*%
%TO.C,H2*%
X125250000Y-114750000D03*
%TD*%
D27*
%TO.C,TP4*%
X102000000Y-119250000D03*
%TD*%
D37*
%TO.C,R7*%
X118874000Y-118618000D03*
X117854000Y-118618000D03*
%TD*%
D17*
%TO.C,C8*%
X120144734Y-130631778D03*
X118594734Y-130631778D03*
%TD*%
M02*
