%TF.GenerationSoftware,KiCad,Pcbnew,9.0.7*%
%TF.CreationDate,2026-03-11T14:19:02+01:00*%
%TF.ProjectId,Temp-Project,54656d70-2d50-4726-9f6a-6563742e6b69,rev?*%
%TF.SameCoordinates,Original*%
%TF.FileFunction,Legend,Top*%
%TF.FilePolarity,Positive*%
%FSLAX46Y46*%
G04 Gerber Fmt 4.6, Leading zero omitted, Abs format (unit mm)*
G04 Created by KiCad (PCBNEW 9.0.7) date 2026-03-11 14:19:02*
%MOMM*%
%LPD*%
G01*
G04 APERTURE LIST*
%ADD10C,0.100000*%
%ADD11C,0.125000*%
%ADD12C,0.150000*%
%ADD13C,0.120000*%
G04 APERTURE END LIST*
D10*
G36*
X92056248Y-115044605D02*
G01*
X92096043Y-115057689D01*
X92131459Y-115079252D01*
X92163257Y-115110059D01*
X92184082Y-115142291D01*
X92199951Y-115186274D01*
X92209724Y-115245247D01*
X91804647Y-115245247D01*
X91814981Y-115185415D01*
X91836354Y-115136375D01*
X91868517Y-115095954D01*
X91909825Y-115065003D01*
X91956714Y-115046473D01*
X92010910Y-115040083D01*
X92056248Y-115044605D01*
G37*
G36*
X92833917Y-115044605D02*
G01*
X92873712Y-115057689D01*
X92909129Y-115079252D01*
X92940926Y-115110059D01*
X92961752Y-115142291D01*
X92977620Y-115186274D01*
X92987393Y-115245247D01*
X92582316Y-115245247D01*
X92592650Y-115185415D01*
X92614023Y-115136375D01*
X92646186Y-115095954D01*
X92687494Y-115065003D01*
X92734383Y-115046473D01*
X92788579Y-115040083D01*
X92833917Y-115044605D01*
G37*
G36*
X94311098Y-115044605D02*
G01*
X94350893Y-115057689D01*
X94386309Y-115079252D01*
X94418107Y-115110059D01*
X94438932Y-115142291D01*
X94454801Y-115186274D01*
X94464574Y-115245247D01*
X94059497Y-115245247D01*
X94069831Y-115185415D01*
X94091204Y-115136375D01*
X94123367Y-115095954D01*
X94164675Y-115065003D01*
X94211563Y-115046473D01*
X94265760Y-115040083D01*
X94311098Y-115044605D01*
G37*
G36*
X95088767Y-115044605D02*
G01*
X95128562Y-115057689D01*
X95163979Y-115079252D01*
X95195776Y-115110059D01*
X95216602Y-115142291D01*
X95232470Y-115186274D01*
X95242243Y-115245247D01*
X94837166Y-115245247D01*
X94847500Y-115185415D01*
X94868873Y-115136375D01*
X94901036Y-115095954D01*
X94942344Y-115065003D01*
X94989233Y-115046473D01*
X95043429Y-115040083D01*
X95088767Y-115044605D01*
G37*
G36*
X95853618Y-114779277D02*
G01*
X95890499Y-114793860D01*
X95924664Y-114818702D01*
X95956714Y-114855558D01*
X95978098Y-114896121D01*
X95996335Y-114958942D01*
X96009396Y-115051772D01*
X96014478Y-115183698D01*
X96009416Y-115314750D01*
X95996384Y-115407317D01*
X95978149Y-115470264D01*
X95956714Y-115511167D01*
X95924611Y-115548466D01*
X95890650Y-115573495D01*
X95854248Y-115588122D01*
X95814321Y-115593049D01*
X95774340Y-115588137D01*
X95737910Y-115573562D01*
X95703946Y-115548640D01*
X95671866Y-115511533D01*
X95650482Y-115470804D01*
X95632265Y-115407919D01*
X95619231Y-115315209D01*
X95614164Y-115183698D01*
X95619547Y-115053396D01*
X95633593Y-114958599D01*
X95653611Y-114891652D01*
X95677667Y-114845971D01*
X95705719Y-114814057D01*
X95737073Y-114792087D01*
X95772406Y-114778894D01*
X95812916Y-114774347D01*
X95853618Y-114779277D01*
G37*
G36*
X97408957Y-114779277D02*
G01*
X97445837Y-114793860D01*
X97480003Y-114818702D01*
X97512053Y-114855558D01*
X97533437Y-114896121D01*
X97551673Y-114958942D01*
X97564735Y-115051772D01*
X97569816Y-115183698D01*
X97564755Y-115314750D01*
X97551723Y-115407317D01*
X97533487Y-115470264D01*
X97512053Y-115511167D01*
X97479950Y-115548466D01*
X97445988Y-115573495D01*
X97409587Y-115588122D01*
X97369659Y-115593049D01*
X97329679Y-115588137D01*
X97293249Y-115573562D01*
X97259285Y-115548640D01*
X97227205Y-115511533D01*
X97205820Y-115470804D01*
X97187603Y-115407919D01*
X97174569Y-115315209D01*
X97169502Y-115183698D01*
X97174886Y-115053396D01*
X97188932Y-114958599D01*
X97208950Y-114891652D01*
X97233005Y-114845971D01*
X97261058Y-114814057D01*
X97292411Y-114792087D01*
X97327744Y-114778894D01*
X97368255Y-114774347D01*
X97408957Y-114779277D01*
G37*
G36*
X97807262Y-115806742D02*
G01*
X90851936Y-115806742D01*
X90851936Y-115460792D01*
X90963047Y-115460792D01*
X90977496Y-115517986D01*
X90998273Y-115565364D01*
X91024956Y-115604460D01*
X91057630Y-115636402D01*
X91095696Y-115660721D01*
X91142957Y-115679225D01*
X91201345Y-115691265D01*
X91273175Y-115695631D01*
X91329465Y-115692163D01*
X91380215Y-115682146D01*
X91426193Y-115665956D01*
X91468686Y-115642828D01*
X91502827Y-115614916D01*
X91529691Y-115582058D01*
X91549803Y-115544600D01*
X91561602Y-115506254D01*
X91565533Y-115466348D01*
X91562025Y-115425401D01*
X91552086Y-115390766D01*
X91536163Y-115361263D01*
X91501670Y-115324332D01*
X91498973Y-115322733D01*
X91670741Y-115322733D01*
X91677308Y-115411071D01*
X91695715Y-115484701D01*
X91724700Y-115546215D01*
X91763981Y-115597629D01*
X91813561Y-115639723D01*
X91871032Y-115670078D01*
X91937939Y-115688980D01*
X92016406Y-115695631D01*
X92079528Y-115691412D01*
X92134372Y-115679400D01*
X92182208Y-115660245D01*
X92224073Y-115634143D01*
X92271841Y-115588483D01*
X92308904Y-115531537D01*
X92335448Y-115461219D01*
X92208381Y-115445526D01*
X92186124Y-115494761D01*
X92160772Y-115531443D01*
X92132543Y-115557878D01*
X92099127Y-115577131D01*
X92061021Y-115588938D01*
X92017077Y-115593049D01*
X91959186Y-115585862D01*
X91909279Y-115564985D01*
X91865403Y-115529912D01*
X91839620Y-115496808D01*
X91819499Y-115456410D01*
X91805301Y-115407332D01*
X91797808Y-115347829D01*
X92338806Y-115347829D01*
X92339367Y-115322733D01*
X92448410Y-115322733D01*
X92454978Y-115411071D01*
X92473384Y-115484701D01*
X92502370Y-115546215D01*
X92541650Y-115597629D01*
X92591230Y-115639723D01*
X92648701Y-115670078D01*
X92715609Y-115688980D01*
X92794075Y-115695631D01*
X92857197Y-115691412D01*
X92912041Y-115679400D01*
X92959877Y-115660245D01*
X93001742Y-115634143D01*
X93049510Y-115588483D01*
X93086573Y-115531537D01*
X93113117Y-115461219D01*
X93109660Y-115460792D01*
X93217897Y-115460792D01*
X93232346Y-115517986D01*
X93253123Y-115565364D01*
X93279806Y-115604460D01*
X93312480Y-115636402D01*
X93350546Y-115660721D01*
X93397807Y-115679225D01*
X93456195Y-115691265D01*
X93528025Y-115695631D01*
X93584315Y-115692163D01*
X93635065Y-115682146D01*
X93681043Y-115665956D01*
X93723536Y-115642828D01*
X93757677Y-115614916D01*
X93784541Y-115582058D01*
X93804653Y-115544600D01*
X93816452Y-115506254D01*
X93820383Y-115466348D01*
X93816875Y-115425401D01*
X93806936Y-115390766D01*
X93791013Y-115361263D01*
X93756520Y-115324332D01*
X93753823Y-115322733D01*
X93925591Y-115322733D01*
X93932158Y-115411071D01*
X93950565Y-115484701D01*
X93979550Y-115546215D01*
X94018831Y-115597629D01*
X94068411Y-115639723D01*
X94125882Y-115670078D01*
X94192789Y-115688980D01*
X94271256Y-115695631D01*
X94334378Y-115691412D01*
X94389222Y-115679400D01*
X94437058Y-115660245D01*
X94478923Y-115634143D01*
X94526691Y-115588483D01*
X94563754Y-115531537D01*
X94590298Y-115461219D01*
X94463230Y-115445526D01*
X94440974Y-115494761D01*
X94415622Y-115531443D01*
X94387393Y-115557878D01*
X94353977Y-115577131D01*
X94315871Y-115588938D01*
X94271927Y-115593049D01*
X94214036Y-115585862D01*
X94164129Y-115564985D01*
X94120252Y-115529912D01*
X94094470Y-115496808D01*
X94074349Y-115456410D01*
X94060151Y-115407332D01*
X94052658Y-115347829D01*
X94593656Y-115347829D01*
X94594217Y-115322733D01*
X94703260Y-115322733D01*
X94709828Y-115411071D01*
X94728234Y-115484701D01*
X94757220Y-115546215D01*
X94796500Y-115597629D01*
X94846080Y-115639723D01*
X94903551Y-115670078D01*
X94970458Y-115688980D01*
X95048925Y-115695631D01*
X95112047Y-115691412D01*
X95166891Y-115679400D01*
X95214727Y-115660245D01*
X95256592Y-115634143D01*
X95304360Y-115588483D01*
X95341423Y-115531537D01*
X95367967Y-115461219D01*
X95240900Y-115445526D01*
X95218643Y-115494761D01*
X95193291Y-115531443D01*
X95165062Y-115557878D01*
X95131646Y-115577131D01*
X95093540Y-115588938D01*
X95049596Y-115593049D01*
X94991705Y-115585862D01*
X94941798Y-115564985D01*
X94897922Y-115529912D01*
X94872139Y-115496808D01*
X94852018Y-115456410D01*
X94837821Y-115407332D01*
X94830327Y-115347829D01*
X95371325Y-115347829D01*
X95372058Y-115315040D01*
X95365527Y-115225218D01*
X95355458Y-115184064D01*
X95487768Y-115184064D01*
X95492837Y-115303819D01*
X95506741Y-115401183D01*
X95527799Y-115479623D01*
X95554746Y-115542228D01*
X95586809Y-115591645D01*
X95631831Y-115636979D01*
X95683724Y-115669036D01*
X95743856Y-115688737D01*
X95814321Y-115695631D01*
X95885524Y-115688623D01*
X95945428Y-115668709D01*
X95996343Y-115636463D01*
X96039135Y-115593123D01*
X96075280Y-115537977D01*
X96104603Y-115468913D01*
X96123480Y-115395629D01*
X96136140Y-115302037D01*
X96140812Y-115184064D01*
X96134423Y-115042621D01*
X96118281Y-114947088D01*
X96111202Y-114925778D01*
X96359715Y-114925778D01*
X96359715Y-115043014D01*
X96418119Y-115017769D01*
X96489164Y-114979328D01*
X96556672Y-114935107D01*
X96605607Y-114894392D01*
X96605607Y-115680000D01*
X96728583Y-115680000D01*
X96728583Y-115184064D01*
X97043107Y-115184064D01*
X97048176Y-115303819D01*
X97062080Y-115401183D01*
X97083137Y-115479623D01*
X97110085Y-115542228D01*
X97142147Y-115591645D01*
X97187169Y-115636979D01*
X97239063Y-115669036D01*
X97299194Y-115688737D01*
X97369659Y-115695631D01*
X97440863Y-115688623D01*
X97500766Y-115668709D01*
X97551681Y-115636463D01*
X97594474Y-115593123D01*
X97630618Y-115537977D01*
X97659942Y-115468913D01*
X97678818Y-115395629D01*
X97691478Y-115302037D01*
X97696151Y-115184064D01*
X97689761Y-115042621D01*
X97673620Y-114947088D01*
X97645937Y-114863757D01*
X97611460Y-114797978D01*
X97582327Y-114759946D01*
X97548957Y-114728907D01*
X97511015Y-114704249D01*
X97469376Y-114686549D01*
X97422584Y-114675582D01*
X97369659Y-114671765D01*
X97298885Y-114678726D01*
X97239168Y-114698528D01*
X97188248Y-114730628D01*
X97145442Y-114773739D01*
X97109175Y-114828753D01*
X97079621Y-114897812D01*
X97060609Y-114971082D01*
X97047831Y-115065092D01*
X97043122Y-115183698D01*
X97043107Y-115184064D01*
X96728583Y-115184064D01*
X96728583Y-114671765D01*
X96649326Y-114671765D01*
X96624819Y-114713243D01*
X96589117Y-114758154D01*
X96540027Y-114807076D01*
X96486520Y-114850621D01*
X96426598Y-114890197D01*
X96359715Y-114925778D01*
X96111202Y-114925778D01*
X96090599Y-114863757D01*
X96056121Y-114797978D01*
X96026988Y-114759946D01*
X95993618Y-114728907D01*
X95955676Y-114704249D01*
X95914038Y-114686549D01*
X95867246Y-114675582D01*
X95814321Y-114671765D01*
X95743547Y-114678726D01*
X95683829Y-114698528D01*
X95632909Y-114730628D01*
X95590104Y-114773739D01*
X95553836Y-114828753D01*
X95524282Y-114897812D01*
X95505270Y-114971082D01*
X95492493Y-115065092D01*
X95487783Y-115183698D01*
X95487768Y-115184064D01*
X95355458Y-115184064D01*
X95347255Y-115150534D01*
X95318557Y-115088336D01*
X95279795Y-115036542D01*
X95230544Y-114993339D01*
X95175389Y-114962732D01*
X95113140Y-114944001D01*
X95042086Y-114937501D01*
X94968627Y-114944164D01*
X94904488Y-114963332D01*
X94847877Y-114994589D01*
X94797538Y-115038618D01*
X94757918Y-115091506D01*
X94728594Y-115154980D01*
X94709930Y-115231156D01*
X94708904Y-115245247D01*
X94703260Y-115322733D01*
X94594217Y-115322733D01*
X94594389Y-115315040D01*
X94587858Y-115225218D01*
X94569586Y-115150534D01*
X94540887Y-115088336D01*
X94502126Y-115036542D01*
X94452874Y-114993339D01*
X94397720Y-114962732D01*
X94335471Y-114944001D01*
X94264417Y-114937501D01*
X94190958Y-114944164D01*
X94126819Y-114963332D01*
X94070208Y-114994589D01*
X94019869Y-115038618D01*
X93980249Y-115091506D01*
X93950925Y-115154980D01*
X93932260Y-115231156D01*
X93931234Y-115245247D01*
X93925591Y-115322733D01*
X93753823Y-115322733D01*
X93710047Y-115296782D01*
X93648243Y-115274456D01*
X93528025Y-115239813D01*
X93419398Y-115208550D01*
X93390541Y-115193247D01*
X93372259Y-115175943D01*
X93360977Y-115155703D01*
X93357238Y-115133140D01*
X93361042Y-115109916D01*
X93372635Y-115088454D01*
X93393447Y-115067927D01*
X93419333Y-115053805D01*
X93458110Y-115043926D01*
X93514347Y-115040083D01*
X93561217Y-115044097D01*
X93597448Y-115055033D01*
X93625355Y-115071896D01*
X93647772Y-115095395D01*
X93663588Y-115124424D01*
X93672861Y-115160251D01*
X93793089Y-115143825D01*
X93775809Y-115077352D01*
X93750713Y-115029947D01*
X93727697Y-115004582D01*
X93696484Y-114982032D01*
X93655397Y-114962414D01*
X93587647Y-114944066D01*
X93505493Y-114937501D01*
X93449961Y-114941265D01*
X93399248Y-114952217D01*
X93353032Y-114969433D01*
X93321029Y-114988121D01*
X93286803Y-115018988D01*
X93260579Y-115056875D01*
X93243955Y-115099829D01*
X93238353Y-115146756D01*
X93245150Y-115197952D01*
X93265341Y-115244209D01*
X93298087Y-115283024D01*
X93344598Y-115313269D01*
X93407735Y-115337340D01*
X93532116Y-115372376D01*
X93622866Y-115398290D01*
X93657840Y-115413653D01*
X93678244Y-115431756D01*
X93690017Y-115453034D01*
X93694049Y-115478621D01*
X93689659Y-115507471D01*
X93676416Y-115533892D01*
X93653016Y-115558855D01*
X93623662Y-115576661D01*
X93582962Y-115588564D01*
X93527353Y-115593049D01*
X93472602Y-115588174D01*
X93429848Y-115574811D01*
X93396500Y-115554031D01*
X93370032Y-115525123D01*
X93350947Y-115488287D01*
X93339469Y-115441618D01*
X93217897Y-115460792D01*
X93109660Y-115460792D01*
X92986050Y-115445526D01*
X92963793Y-115494761D01*
X92938441Y-115531443D01*
X92910212Y-115557878D01*
X92876796Y-115577131D01*
X92838690Y-115588938D01*
X92794747Y-115593049D01*
X92736855Y-115585862D01*
X92686948Y-115564985D01*
X92643072Y-115529912D01*
X92617289Y-115496808D01*
X92597168Y-115456410D01*
X92582971Y-115407332D01*
X92575478Y-115347829D01*
X93116475Y-115347829D01*
X93117208Y-115315040D01*
X93110677Y-115225218D01*
X93092405Y-115150534D01*
X93063707Y-115088336D01*
X93024945Y-115036542D01*
X92975694Y-114993339D01*
X92920539Y-114962732D01*
X92858290Y-114944001D01*
X92787236Y-114937501D01*
X92713777Y-114944164D01*
X92649638Y-114963332D01*
X92593027Y-114994589D01*
X92542688Y-115038618D01*
X92503068Y-115091506D01*
X92473744Y-115154980D01*
X92455080Y-115231156D01*
X92454054Y-115245247D01*
X92448410Y-115322733D01*
X92339367Y-115322733D01*
X92339539Y-115315040D01*
X92333008Y-115225218D01*
X92314736Y-115150534D01*
X92286037Y-115088336D01*
X92247276Y-115036542D01*
X92198024Y-114993339D01*
X92142870Y-114962732D01*
X92080621Y-114944001D01*
X92009567Y-114937501D01*
X91936108Y-114944164D01*
X91871969Y-114963332D01*
X91815358Y-114994589D01*
X91765019Y-115038618D01*
X91725399Y-115091506D01*
X91696075Y-115154980D01*
X91677410Y-115231156D01*
X91676384Y-115245247D01*
X91670741Y-115322733D01*
X91498973Y-115322733D01*
X91455197Y-115296782D01*
X91393393Y-115274456D01*
X91273175Y-115239813D01*
X91164548Y-115208550D01*
X91135691Y-115193247D01*
X91117409Y-115175943D01*
X91106127Y-115155703D01*
X91102388Y-115133140D01*
X91106192Y-115109916D01*
X91117785Y-115088454D01*
X91138597Y-115067927D01*
X91164483Y-115053805D01*
X91203260Y-115043926D01*
X91259497Y-115040083D01*
X91306367Y-115044097D01*
X91342598Y-115055033D01*
X91370505Y-115071896D01*
X91392922Y-115095395D01*
X91408738Y-115124424D01*
X91418011Y-115160251D01*
X91538239Y-115143825D01*
X91520959Y-115077352D01*
X91495863Y-115029947D01*
X91472847Y-115004582D01*
X91441634Y-114982032D01*
X91400547Y-114962414D01*
X91332797Y-114944066D01*
X91250643Y-114937501D01*
X91195111Y-114941265D01*
X91144398Y-114952217D01*
X91098182Y-114969433D01*
X91066179Y-114988121D01*
X91031953Y-115018988D01*
X91005729Y-115056875D01*
X90989105Y-115099829D01*
X90983503Y-115146756D01*
X90990300Y-115197952D01*
X91010491Y-115244209D01*
X91043237Y-115283024D01*
X91089748Y-115313269D01*
X91152885Y-115337340D01*
X91277266Y-115372376D01*
X91368016Y-115398290D01*
X91402990Y-115413653D01*
X91423394Y-115431756D01*
X91435167Y-115453034D01*
X91439199Y-115478621D01*
X91434809Y-115507471D01*
X91421566Y-115533892D01*
X91398166Y-115558855D01*
X91368812Y-115576661D01*
X91328112Y-115588564D01*
X91272503Y-115593049D01*
X91217752Y-115588174D01*
X91174998Y-115574811D01*
X91141650Y-115554031D01*
X91115182Y-115525123D01*
X91096097Y-115488287D01*
X91084619Y-115441618D01*
X90963047Y-115460792D01*
X90851936Y-115460792D01*
X90851936Y-114560654D01*
X97807262Y-114560654D01*
X97807262Y-115806742D01*
G37*
D11*
X105589192Y-128842723D02*
X105565383Y-128866533D01*
X105565383Y-128866533D02*
X105493954Y-128890342D01*
X105493954Y-128890342D02*
X105446335Y-128890342D01*
X105446335Y-128890342D02*
X105374907Y-128866533D01*
X105374907Y-128866533D02*
X105327288Y-128818913D01*
X105327288Y-128818913D02*
X105303478Y-128771294D01*
X105303478Y-128771294D02*
X105279669Y-128676056D01*
X105279669Y-128676056D02*
X105279669Y-128604628D01*
X105279669Y-128604628D02*
X105303478Y-128509390D01*
X105303478Y-128509390D02*
X105327288Y-128461771D01*
X105327288Y-128461771D02*
X105374907Y-128414152D01*
X105374907Y-128414152D02*
X105446335Y-128390342D01*
X105446335Y-128390342D02*
X105493954Y-128390342D01*
X105493954Y-128390342D02*
X105565383Y-128414152D01*
X105565383Y-128414152D02*
X105589192Y-128437961D01*
X106017764Y-128557009D02*
X106017764Y-128890342D01*
X105898716Y-128366533D02*
X105779669Y-128723675D01*
X105779669Y-128723675D02*
X106089192Y-128723675D01*
X95596666Y-131917190D02*
X95572857Y-131941000D01*
X95572857Y-131941000D02*
X95501428Y-131964809D01*
X95501428Y-131964809D02*
X95453809Y-131964809D01*
X95453809Y-131964809D02*
X95382381Y-131941000D01*
X95382381Y-131941000D02*
X95334762Y-131893380D01*
X95334762Y-131893380D02*
X95310952Y-131845761D01*
X95310952Y-131845761D02*
X95287143Y-131750523D01*
X95287143Y-131750523D02*
X95287143Y-131679095D01*
X95287143Y-131679095D02*
X95310952Y-131583857D01*
X95310952Y-131583857D02*
X95334762Y-131536238D01*
X95334762Y-131536238D02*
X95382381Y-131488619D01*
X95382381Y-131488619D02*
X95453809Y-131464809D01*
X95453809Y-131464809D02*
X95501428Y-131464809D01*
X95501428Y-131464809D02*
X95572857Y-131488619D01*
X95572857Y-131488619D02*
X95596666Y-131512428D01*
X95763333Y-131464809D02*
X96072857Y-131464809D01*
X96072857Y-131464809D02*
X95906190Y-131655285D01*
X95906190Y-131655285D02*
X95977619Y-131655285D01*
X95977619Y-131655285D02*
X96025238Y-131679095D01*
X96025238Y-131679095D02*
X96049047Y-131702904D01*
X96049047Y-131702904D02*
X96072857Y-131750523D01*
X96072857Y-131750523D02*
X96072857Y-131869571D01*
X96072857Y-131869571D02*
X96049047Y-131917190D01*
X96049047Y-131917190D02*
X96025238Y-131941000D01*
X96025238Y-131941000D02*
X95977619Y-131964809D01*
X95977619Y-131964809D02*
X95834762Y-131964809D01*
X95834762Y-131964809D02*
X95787143Y-131941000D01*
X95787143Y-131941000D02*
X95763333Y-131917190D01*
X109416666Y-129224809D02*
X109250000Y-128986714D01*
X109130952Y-129224809D02*
X109130952Y-128724809D01*
X109130952Y-128724809D02*
X109321428Y-128724809D01*
X109321428Y-128724809D02*
X109369047Y-128748619D01*
X109369047Y-128748619D02*
X109392857Y-128772428D01*
X109392857Y-128772428D02*
X109416666Y-128820047D01*
X109416666Y-128820047D02*
X109416666Y-128891476D01*
X109416666Y-128891476D02*
X109392857Y-128939095D01*
X109392857Y-128939095D02*
X109369047Y-128962904D01*
X109369047Y-128962904D02*
X109321428Y-128986714D01*
X109321428Y-128986714D02*
X109130952Y-128986714D01*
X109845238Y-128724809D02*
X109750000Y-128724809D01*
X109750000Y-128724809D02*
X109702381Y-128748619D01*
X109702381Y-128748619D02*
X109678571Y-128772428D01*
X109678571Y-128772428D02*
X109630952Y-128843857D01*
X109630952Y-128843857D02*
X109607143Y-128939095D01*
X109607143Y-128939095D02*
X109607143Y-129129571D01*
X109607143Y-129129571D02*
X109630952Y-129177190D01*
X109630952Y-129177190D02*
X109654762Y-129201000D01*
X109654762Y-129201000D02*
X109702381Y-129224809D01*
X109702381Y-129224809D02*
X109797619Y-129224809D01*
X109797619Y-129224809D02*
X109845238Y-129201000D01*
X109845238Y-129201000D02*
X109869047Y-129177190D01*
X109869047Y-129177190D02*
X109892857Y-129129571D01*
X109892857Y-129129571D02*
X109892857Y-129010523D01*
X109892857Y-129010523D02*
X109869047Y-128962904D01*
X109869047Y-128962904D02*
X109845238Y-128939095D01*
X109845238Y-128939095D02*
X109797619Y-128915285D01*
X109797619Y-128915285D02*
X109702381Y-128915285D01*
X109702381Y-128915285D02*
X109654762Y-128939095D01*
X109654762Y-128939095D02*
X109630952Y-128962904D01*
X109630952Y-128962904D02*
X109607143Y-129010523D01*
X122996642Y-127678172D02*
X123020452Y-127701981D01*
X123020452Y-127701981D02*
X123044261Y-127773410D01*
X123044261Y-127773410D02*
X123044261Y-127821029D01*
X123044261Y-127821029D02*
X123020452Y-127892457D01*
X123020452Y-127892457D02*
X122972832Y-127940076D01*
X122972832Y-127940076D02*
X122925213Y-127963886D01*
X122925213Y-127963886D02*
X122829975Y-127987695D01*
X122829975Y-127987695D02*
X122758547Y-127987695D01*
X122758547Y-127987695D02*
X122663309Y-127963886D01*
X122663309Y-127963886D02*
X122615690Y-127940076D01*
X122615690Y-127940076D02*
X122568071Y-127892457D01*
X122568071Y-127892457D02*
X122544261Y-127821029D01*
X122544261Y-127821029D02*
X122544261Y-127773410D01*
X122544261Y-127773410D02*
X122568071Y-127701981D01*
X122568071Y-127701981D02*
X122591880Y-127678172D01*
X123044261Y-127201981D02*
X123044261Y-127487695D01*
X123044261Y-127344838D02*
X122544261Y-127344838D01*
X122544261Y-127344838D02*
X122615690Y-127392457D01*
X122615690Y-127392457D02*
X122663309Y-127440076D01*
X122663309Y-127440076D02*
X122687118Y-127487695D01*
X122591880Y-127011505D02*
X122568071Y-126987696D01*
X122568071Y-126987696D02*
X122544261Y-126940077D01*
X122544261Y-126940077D02*
X122544261Y-126821029D01*
X122544261Y-126821029D02*
X122568071Y-126773410D01*
X122568071Y-126773410D02*
X122591880Y-126749601D01*
X122591880Y-126749601D02*
X122639499Y-126725791D01*
X122639499Y-126725791D02*
X122687118Y-126725791D01*
X122687118Y-126725791D02*
X122758547Y-126749601D01*
X122758547Y-126749601D02*
X123044261Y-127035315D01*
X123044261Y-127035315D02*
X123044261Y-126725791D01*
X116206666Y-118304809D02*
X116040000Y-118066714D01*
X115920952Y-118304809D02*
X115920952Y-117804809D01*
X115920952Y-117804809D02*
X116111428Y-117804809D01*
X116111428Y-117804809D02*
X116159047Y-117828619D01*
X116159047Y-117828619D02*
X116182857Y-117852428D01*
X116182857Y-117852428D02*
X116206666Y-117900047D01*
X116206666Y-117900047D02*
X116206666Y-117971476D01*
X116206666Y-117971476D02*
X116182857Y-118019095D01*
X116182857Y-118019095D02*
X116159047Y-118042904D01*
X116159047Y-118042904D02*
X116111428Y-118066714D01*
X116111428Y-118066714D02*
X115920952Y-118066714D01*
X116373333Y-117804809D02*
X116682857Y-117804809D01*
X116682857Y-117804809D02*
X116516190Y-117995285D01*
X116516190Y-117995285D02*
X116587619Y-117995285D01*
X116587619Y-117995285D02*
X116635238Y-118019095D01*
X116635238Y-118019095D02*
X116659047Y-118042904D01*
X116659047Y-118042904D02*
X116682857Y-118090523D01*
X116682857Y-118090523D02*
X116682857Y-118209571D01*
X116682857Y-118209571D02*
X116659047Y-118257190D01*
X116659047Y-118257190D02*
X116635238Y-118281000D01*
X116635238Y-118281000D02*
X116587619Y-118304809D01*
X116587619Y-118304809D02*
X116444762Y-118304809D01*
X116444762Y-118304809D02*
X116397143Y-118281000D01*
X116397143Y-118281000D02*
X116373333Y-118257190D01*
X107928571Y-130177190D02*
X107904762Y-130201000D01*
X107904762Y-130201000D02*
X107833333Y-130224809D01*
X107833333Y-130224809D02*
X107785714Y-130224809D01*
X107785714Y-130224809D02*
X107714286Y-130201000D01*
X107714286Y-130201000D02*
X107666667Y-130153380D01*
X107666667Y-130153380D02*
X107642857Y-130105761D01*
X107642857Y-130105761D02*
X107619048Y-130010523D01*
X107619048Y-130010523D02*
X107619048Y-129939095D01*
X107619048Y-129939095D02*
X107642857Y-129843857D01*
X107642857Y-129843857D02*
X107666667Y-129796238D01*
X107666667Y-129796238D02*
X107714286Y-129748619D01*
X107714286Y-129748619D02*
X107785714Y-129724809D01*
X107785714Y-129724809D02*
X107833333Y-129724809D01*
X107833333Y-129724809D02*
X107904762Y-129748619D01*
X107904762Y-129748619D02*
X107928571Y-129772428D01*
X108404762Y-130224809D02*
X108119048Y-130224809D01*
X108261905Y-130224809D02*
X108261905Y-129724809D01*
X108261905Y-129724809D02*
X108214286Y-129796238D01*
X108214286Y-129796238D02*
X108166667Y-129843857D01*
X108166667Y-129843857D02*
X108119048Y-129867666D01*
X108714285Y-129724809D02*
X108761904Y-129724809D01*
X108761904Y-129724809D02*
X108809523Y-129748619D01*
X108809523Y-129748619D02*
X108833333Y-129772428D01*
X108833333Y-129772428D02*
X108857142Y-129820047D01*
X108857142Y-129820047D02*
X108880952Y-129915285D01*
X108880952Y-129915285D02*
X108880952Y-130034333D01*
X108880952Y-130034333D02*
X108857142Y-130129571D01*
X108857142Y-130129571D02*
X108833333Y-130177190D01*
X108833333Y-130177190D02*
X108809523Y-130201000D01*
X108809523Y-130201000D02*
X108761904Y-130224809D01*
X108761904Y-130224809D02*
X108714285Y-130224809D01*
X108714285Y-130224809D02*
X108666666Y-130201000D01*
X108666666Y-130201000D02*
X108642857Y-130177190D01*
X108642857Y-130177190D02*
X108619047Y-130129571D01*
X108619047Y-130129571D02*
X108595238Y-130034333D01*
X108595238Y-130034333D02*
X108595238Y-129915285D01*
X108595238Y-129915285D02*
X108619047Y-129820047D01*
X108619047Y-129820047D02*
X108642857Y-129772428D01*
X108642857Y-129772428D02*
X108666666Y-129748619D01*
X108666666Y-129748619D02*
X108714285Y-129724809D01*
X121464446Y-118039652D02*
X121440637Y-118063462D01*
X121440637Y-118063462D02*
X121369208Y-118087271D01*
X121369208Y-118087271D02*
X121321589Y-118087271D01*
X121321589Y-118087271D02*
X121250161Y-118063462D01*
X121250161Y-118063462D02*
X121202542Y-118015842D01*
X121202542Y-118015842D02*
X121178732Y-117968223D01*
X121178732Y-117968223D02*
X121154923Y-117872985D01*
X121154923Y-117872985D02*
X121154923Y-117801557D01*
X121154923Y-117801557D02*
X121178732Y-117706319D01*
X121178732Y-117706319D02*
X121202542Y-117658700D01*
X121202542Y-117658700D02*
X121250161Y-117611081D01*
X121250161Y-117611081D02*
X121321589Y-117587271D01*
X121321589Y-117587271D02*
X121369208Y-117587271D01*
X121369208Y-117587271D02*
X121440637Y-117611081D01*
X121440637Y-117611081D02*
X121464446Y-117634890D01*
X121940637Y-118087271D02*
X121654923Y-118087271D01*
X121797780Y-118087271D02*
X121797780Y-117587271D01*
X121797780Y-117587271D02*
X121750161Y-117658700D01*
X121750161Y-117658700D02*
X121702542Y-117706319D01*
X121702542Y-117706319D02*
X121654923Y-117730128D01*
X122107303Y-117587271D02*
X122416827Y-117587271D01*
X122416827Y-117587271D02*
X122250160Y-117777747D01*
X122250160Y-117777747D02*
X122321589Y-117777747D01*
X122321589Y-117777747D02*
X122369208Y-117801557D01*
X122369208Y-117801557D02*
X122393017Y-117825366D01*
X122393017Y-117825366D02*
X122416827Y-117872985D01*
X122416827Y-117872985D02*
X122416827Y-117992033D01*
X122416827Y-117992033D02*
X122393017Y-118039652D01*
X122393017Y-118039652D02*
X122369208Y-118063462D01*
X122369208Y-118063462D02*
X122321589Y-118087271D01*
X122321589Y-118087271D02*
X122178732Y-118087271D01*
X122178732Y-118087271D02*
X122131113Y-118063462D01*
X122131113Y-118063462D02*
X122107303Y-118039652D01*
D12*
X104314819Y-133503333D02*
X105029104Y-133503333D01*
X105029104Y-133503333D02*
X105171961Y-133550952D01*
X105171961Y-133550952D02*
X105267200Y-133646190D01*
X105267200Y-133646190D02*
X105314819Y-133789047D01*
X105314819Y-133789047D02*
X105314819Y-133884285D01*
X104648152Y-132598571D02*
X105314819Y-132598571D01*
X104267200Y-132836666D02*
X104981485Y-133074761D01*
X104981485Y-133074761D02*
X104981485Y-132455714D01*
D11*
X92976666Y-122314809D02*
X92810000Y-122076714D01*
X92690952Y-122314809D02*
X92690952Y-121814809D01*
X92690952Y-121814809D02*
X92881428Y-121814809D01*
X92881428Y-121814809D02*
X92929047Y-121838619D01*
X92929047Y-121838619D02*
X92952857Y-121862428D01*
X92952857Y-121862428D02*
X92976666Y-121910047D01*
X92976666Y-121910047D02*
X92976666Y-121981476D01*
X92976666Y-121981476D02*
X92952857Y-122029095D01*
X92952857Y-122029095D02*
X92929047Y-122052904D01*
X92929047Y-122052904D02*
X92881428Y-122076714D01*
X92881428Y-122076714D02*
X92690952Y-122076714D01*
X93167143Y-121862428D02*
X93190952Y-121838619D01*
X93190952Y-121838619D02*
X93238571Y-121814809D01*
X93238571Y-121814809D02*
X93357619Y-121814809D01*
X93357619Y-121814809D02*
X93405238Y-121838619D01*
X93405238Y-121838619D02*
X93429047Y-121862428D01*
X93429047Y-121862428D02*
X93452857Y-121910047D01*
X93452857Y-121910047D02*
X93452857Y-121957666D01*
X93452857Y-121957666D02*
X93429047Y-122029095D01*
X93429047Y-122029095D02*
X93143333Y-122314809D01*
X93143333Y-122314809D02*
X93452857Y-122314809D01*
X93526666Y-126974809D02*
X93360000Y-126736714D01*
X93240952Y-126974809D02*
X93240952Y-126474809D01*
X93240952Y-126474809D02*
X93431428Y-126474809D01*
X93431428Y-126474809D02*
X93479047Y-126498619D01*
X93479047Y-126498619D02*
X93502857Y-126522428D01*
X93502857Y-126522428D02*
X93526666Y-126570047D01*
X93526666Y-126570047D02*
X93526666Y-126641476D01*
X93526666Y-126641476D02*
X93502857Y-126689095D01*
X93502857Y-126689095D02*
X93479047Y-126712904D01*
X93479047Y-126712904D02*
X93431428Y-126736714D01*
X93431428Y-126736714D02*
X93240952Y-126736714D01*
X94002857Y-126974809D02*
X93717143Y-126974809D01*
X93860000Y-126974809D02*
X93860000Y-126474809D01*
X93860000Y-126474809D02*
X93812381Y-126546238D01*
X93812381Y-126546238D02*
X93764762Y-126593857D01*
X93764762Y-126593857D02*
X93717143Y-126617666D01*
X122916666Y-120974809D02*
X122750000Y-120736714D01*
X122630952Y-120974809D02*
X122630952Y-120474809D01*
X122630952Y-120474809D02*
X122821428Y-120474809D01*
X122821428Y-120474809D02*
X122869047Y-120498619D01*
X122869047Y-120498619D02*
X122892857Y-120522428D01*
X122892857Y-120522428D02*
X122916666Y-120570047D01*
X122916666Y-120570047D02*
X122916666Y-120641476D01*
X122916666Y-120641476D02*
X122892857Y-120689095D01*
X122892857Y-120689095D02*
X122869047Y-120712904D01*
X122869047Y-120712904D02*
X122821428Y-120736714D01*
X122821428Y-120736714D02*
X122630952Y-120736714D01*
X123154762Y-120974809D02*
X123250000Y-120974809D01*
X123250000Y-120974809D02*
X123297619Y-120951000D01*
X123297619Y-120951000D02*
X123321428Y-120927190D01*
X123321428Y-120927190D02*
X123369047Y-120855761D01*
X123369047Y-120855761D02*
X123392857Y-120760523D01*
X123392857Y-120760523D02*
X123392857Y-120570047D01*
X123392857Y-120570047D02*
X123369047Y-120522428D01*
X123369047Y-120522428D02*
X123345238Y-120498619D01*
X123345238Y-120498619D02*
X123297619Y-120474809D01*
X123297619Y-120474809D02*
X123202381Y-120474809D01*
X123202381Y-120474809D02*
X123154762Y-120498619D01*
X123154762Y-120498619D02*
X123130952Y-120522428D01*
X123130952Y-120522428D02*
X123107143Y-120570047D01*
X123107143Y-120570047D02*
X123107143Y-120689095D01*
X123107143Y-120689095D02*
X123130952Y-120736714D01*
X123130952Y-120736714D02*
X123154762Y-120760523D01*
X123154762Y-120760523D02*
X123202381Y-120784333D01*
X123202381Y-120784333D02*
X123297619Y-120784333D01*
X123297619Y-120784333D02*
X123345238Y-120760523D01*
X123345238Y-120760523D02*
X123369047Y-120736714D01*
X123369047Y-120736714D02*
X123392857Y-120689095D01*
X120416666Y-116974809D02*
X120250000Y-116736714D01*
X120130952Y-116974809D02*
X120130952Y-116474809D01*
X120130952Y-116474809D02*
X120321428Y-116474809D01*
X120321428Y-116474809D02*
X120369047Y-116498619D01*
X120369047Y-116498619D02*
X120392857Y-116522428D01*
X120392857Y-116522428D02*
X120416666Y-116570047D01*
X120416666Y-116570047D02*
X120416666Y-116641476D01*
X120416666Y-116641476D02*
X120392857Y-116689095D01*
X120392857Y-116689095D02*
X120369047Y-116712904D01*
X120369047Y-116712904D02*
X120321428Y-116736714D01*
X120321428Y-116736714D02*
X120130952Y-116736714D01*
X120845238Y-116641476D02*
X120845238Y-116974809D01*
X120726190Y-116451000D02*
X120607143Y-116808142D01*
X120607143Y-116808142D02*
X120916666Y-116808142D01*
X108666666Y-120287190D02*
X108642857Y-120311000D01*
X108642857Y-120311000D02*
X108571428Y-120334809D01*
X108571428Y-120334809D02*
X108523809Y-120334809D01*
X108523809Y-120334809D02*
X108452381Y-120311000D01*
X108452381Y-120311000D02*
X108404762Y-120263380D01*
X108404762Y-120263380D02*
X108380952Y-120215761D01*
X108380952Y-120215761D02*
X108357143Y-120120523D01*
X108357143Y-120120523D02*
X108357143Y-120049095D01*
X108357143Y-120049095D02*
X108380952Y-119953857D01*
X108380952Y-119953857D02*
X108404762Y-119906238D01*
X108404762Y-119906238D02*
X108452381Y-119858619D01*
X108452381Y-119858619D02*
X108523809Y-119834809D01*
X108523809Y-119834809D02*
X108571428Y-119834809D01*
X108571428Y-119834809D02*
X108642857Y-119858619D01*
X108642857Y-119858619D02*
X108666666Y-119882428D01*
X108833333Y-119834809D02*
X109166666Y-119834809D01*
X109166666Y-119834809D02*
X108952381Y-120334809D01*
X112946666Y-114134809D02*
X112780000Y-113896714D01*
X112660952Y-114134809D02*
X112660952Y-113634809D01*
X112660952Y-113634809D02*
X112851428Y-113634809D01*
X112851428Y-113634809D02*
X112899047Y-113658619D01*
X112899047Y-113658619D02*
X112922857Y-113682428D01*
X112922857Y-113682428D02*
X112946666Y-113730047D01*
X112946666Y-113730047D02*
X112946666Y-113801476D01*
X112946666Y-113801476D02*
X112922857Y-113849095D01*
X112922857Y-113849095D02*
X112899047Y-113872904D01*
X112899047Y-113872904D02*
X112851428Y-113896714D01*
X112851428Y-113896714D02*
X112660952Y-113896714D01*
X113399047Y-113634809D02*
X113160952Y-113634809D01*
X113160952Y-113634809D02*
X113137143Y-113872904D01*
X113137143Y-113872904D02*
X113160952Y-113849095D01*
X113160952Y-113849095D02*
X113208571Y-113825285D01*
X113208571Y-113825285D02*
X113327619Y-113825285D01*
X113327619Y-113825285D02*
X113375238Y-113849095D01*
X113375238Y-113849095D02*
X113399047Y-113872904D01*
X113399047Y-113872904D02*
X113422857Y-113920523D01*
X113422857Y-113920523D02*
X113422857Y-114039571D01*
X113422857Y-114039571D02*
X113399047Y-114087190D01*
X113399047Y-114087190D02*
X113375238Y-114111000D01*
X113375238Y-114111000D02*
X113327619Y-114134809D01*
X113327619Y-114134809D02*
X113208571Y-114134809D01*
X113208571Y-114134809D02*
X113160952Y-114111000D01*
X113160952Y-114111000D02*
X113137143Y-114087190D01*
X111316666Y-119891014D02*
X111292857Y-119914824D01*
X111292857Y-119914824D02*
X111221428Y-119938633D01*
X111221428Y-119938633D02*
X111173809Y-119938633D01*
X111173809Y-119938633D02*
X111102381Y-119914824D01*
X111102381Y-119914824D02*
X111054762Y-119867204D01*
X111054762Y-119867204D02*
X111030952Y-119819585D01*
X111030952Y-119819585D02*
X111007143Y-119724347D01*
X111007143Y-119724347D02*
X111007143Y-119652919D01*
X111007143Y-119652919D02*
X111030952Y-119557681D01*
X111030952Y-119557681D02*
X111054762Y-119510062D01*
X111054762Y-119510062D02*
X111102381Y-119462443D01*
X111102381Y-119462443D02*
X111173809Y-119438633D01*
X111173809Y-119438633D02*
X111221428Y-119438633D01*
X111221428Y-119438633D02*
X111292857Y-119462443D01*
X111292857Y-119462443D02*
X111316666Y-119486252D01*
X111554762Y-119938633D02*
X111650000Y-119938633D01*
X111650000Y-119938633D02*
X111697619Y-119914824D01*
X111697619Y-119914824D02*
X111721428Y-119891014D01*
X111721428Y-119891014D02*
X111769047Y-119819585D01*
X111769047Y-119819585D02*
X111792857Y-119724347D01*
X111792857Y-119724347D02*
X111792857Y-119533871D01*
X111792857Y-119533871D02*
X111769047Y-119486252D01*
X111769047Y-119486252D02*
X111745238Y-119462443D01*
X111745238Y-119462443D02*
X111697619Y-119438633D01*
X111697619Y-119438633D02*
X111602381Y-119438633D01*
X111602381Y-119438633D02*
X111554762Y-119462443D01*
X111554762Y-119462443D02*
X111530952Y-119486252D01*
X111530952Y-119486252D02*
X111507143Y-119533871D01*
X111507143Y-119533871D02*
X111507143Y-119652919D01*
X111507143Y-119652919D02*
X111530952Y-119700538D01*
X111530952Y-119700538D02*
X111554762Y-119724347D01*
X111554762Y-119724347D02*
X111602381Y-119748157D01*
X111602381Y-119748157D02*
X111697619Y-119748157D01*
X111697619Y-119748157D02*
X111745238Y-119724347D01*
X111745238Y-119724347D02*
X111769047Y-119700538D01*
X111769047Y-119700538D02*
X111792857Y-119652919D01*
X101790624Y-128372749D02*
X101766815Y-128396559D01*
X101766815Y-128396559D02*
X101695386Y-128420368D01*
X101695386Y-128420368D02*
X101647767Y-128420368D01*
X101647767Y-128420368D02*
X101576339Y-128396559D01*
X101576339Y-128396559D02*
X101528720Y-128348939D01*
X101528720Y-128348939D02*
X101504910Y-128301320D01*
X101504910Y-128301320D02*
X101481101Y-128206082D01*
X101481101Y-128206082D02*
X101481101Y-128134654D01*
X101481101Y-128134654D02*
X101504910Y-128039416D01*
X101504910Y-128039416D02*
X101528720Y-127991797D01*
X101528720Y-127991797D02*
X101576339Y-127944178D01*
X101576339Y-127944178D02*
X101647767Y-127920368D01*
X101647767Y-127920368D02*
X101695386Y-127920368D01*
X101695386Y-127920368D02*
X101766815Y-127944178D01*
X101766815Y-127944178D02*
X101790624Y-127967987D01*
X102243005Y-127920368D02*
X102004910Y-127920368D01*
X102004910Y-127920368D02*
X101981101Y-128158463D01*
X101981101Y-128158463D02*
X102004910Y-128134654D01*
X102004910Y-128134654D02*
X102052529Y-128110844D01*
X102052529Y-128110844D02*
X102171577Y-128110844D01*
X102171577Y-128110844D02*
X102219196Y-128134654D01*
X102219196Y-128134654D02*
X102243005Y-128158463D01*
X102243005Y-128158463D02*
X102266815Y-128206082D01*
X102266815Y-128206082D02*
X102266815Y-128325130D01*
X102266815Y-128325130D02*
X102243005Y-128372749D01*
X102243005Y-128372749D02*
X102219196Y-128396559D01*
X102219196Y-128396559D02*
X102171577Y-128420368D01*
X102171577Y-128420368D02*
X102052529Y-128420368D01*
X102052529Y-128420368D02*
X102004910Y-128396559D01*
X102004910Y-128396559D02*
X101981101Y-128372749D01*
X120126665Y-130484809D02*
X119959999Y-130246714D01*
X119840951Y-130484809D02*
X119840951Y-129984809D01*
X119840951Y-129984809D02*
X120031427Y-129984809D01*
X120031427Y-129984809D02*
X120079046Y-130008619D01*
X120079046Y-130008619D02*
X120102856Y-130032428D01*
X120102856Y-130032428D02*
X120126665Y-130080047D01*
X120126665Y-130080047D02*
X120126665Y-130151476D01*
X120126665Y-130151476D02*
X120102856Y-130199095D01*
X120102856Y-130199095D02*
X120079046Y-130222904D01*
X120079046Y-130222904D02*
X120031427Y-130246714D01*
X120031427Y-130246714D02*
X119840951Y-130246714D01*
X120412380Y-130199095D02*
X120364761Y-130175285D01*
X120364761Y-130175285D02*
X120340951Y-130151476D01*
X120340951Y-130151476D02*
X120317142Y-130103857D01*
X120317142Y-130103857D02*
X120317142Y-130080047D01*
X120317142Y-130080047D02*
X120340951Y-130032428D01*
X120340951Y-130032428D02*
X120364761Y-130008619D01*
X120364761Y-130008619D02*
X120412380Y-129984809D01*
X120412380Y-129984809D02*
X120507618Y-129984809D01*
X120507618Y-129984809D02*
X120555237Y-130008619D01*
X120555237Y-130008619D02*
X120579046Y-130032428D01*
X120579046Y-130032428D02*
X120602856Y-130080047D01*
X120602856Y-130080047D02*
X120602856Y-130103857D01*
X120602856Y-130103857D02*
X120579046Y-130151476D01*
X120579046Y-130151476D02*
X120555237Y-130175285D01*
X120555237Y-130175285D02*
X120507618Y-130199095D01*
X120507618Y-130199095D02*
X120412380Y-130199095D01*
X120412380Y-130199095D02*
X120364761Y-130222904D01*
X120364761Y-130222904D02*
X120340951Y-130246714D01*
X120340951Y-130246714D02*
X120317142Y-130294333D01*
X120317142Y-130294333D02*
X120317142Y-130389571D01*
X120317142Y-130389571D02*
X120340951Y-130437190D01*
X120340951Y-130437190D02*
X120364761Y-130461000D01*
X120364761Y-130461000D02*
X120412380Y-130484809D01*
X120412380Y-130484809D02*
X120507618Y-130484809D01*
X120507618Y-130484809D02*
X120555237Y-130461000D01*
X120555237Y-130461000D02*
X120579046Y-130437190D01*
X120579046Y-130437190D02*
X120602856Y-130389571D01*
X120602856Y-130389571D02*
X120602856Y-130294333D01*
X120602856Y-130294333D02*
X120579046Y-130246714D01*
X120579046Y-130246714D02*
X120555237Y-130222904D01*
X120555237Y-130222904D02*
X120507618Y-130199095D01*
X112876666Y-115707190D02*
X112852857Y-115731000D01*
X112852857Y-115731000D02*
X112781428Y-115754809D01*
X112781428Y-115754809D02*
X112733809Y-115754809D01*
X112733809Y-115754809D02*
X112662381Y-115731000D01*
X112662381Y-115731000D02*
X112614762Y-115683380D01*
X112614762Y-115683380D02*
X112590952Y-115635761D01*
X112590952Y-115635761D02*
X112567143Y-115540523D01*
X112567143Y-115540523D02*
X112567143Y-115469095D01*
X112567143Y-115469095D02*
X112590952Y-115373857D01*
X112590952Y-115373857D02*
X112614762Y-115326238D01*
X112614762Y-115326238D02*
X112662381Y-115278619D01*
X112662381Y-115278619D02*
X112733809Y-115254809D01*
X112733809Y-115254809D02*
X112781428Y-115254809D01*
X112781428Y-115254809D02*
X112852857Y-115278619D01*
X112852857Y-115278619D02*
X112876666Y-115302428D01*
X113305238Y-115254809D02*
X113210000Y-115254809D01*
X113210000Y-115254809D02*
X113162381Y-115278619D01*
X113162381Y-115278619D02*
X113138571Y-115302428D01*
X113138571Y-115302428D02*
X113090952Y-115373857D01*
X113090952Y-115373857D02*
X113067143Y-115469095D01*
X113067143Y-115469095D02*
X113067143Y-115659571D01*
X113067143Y-115659571D02*
X113090952Y-115707190D01*
X113090952Y-115707190D02*
X113114762Y-115731000D01*
X113114762Y-115731000D02*
X113162381Y-115754809D01*
X113162381Y-115754809D02*
X113257619Y-115754809D01*
X113257619Y-115754809D02*
X113305238Y-115731000D01*
X113305238Y-115731000D02*
X113329047Y-115707190D01*
X113329047Y-115707190D02*
X113352857Y-115659571D01*
X113352857Y-115659571D02*
X113352857Y-115540523D01*
X113352857Y-115540523D02*
X113329047Y-115492904D01*
X113329047Y-115492904D02*
X113305238Y-115469095D01*
X113305238Y-115469095D02*
X113257619Y-115445285D01*
X113257619Y-115445285D02*
X113162381Y-115445285D01*
X113162381Y-115445285D02*
X113114762Y-115469095D01*
X113114762Y-115469095D02*
X113090952Y-115492904D01*
X113090952Y-115492904D02*
X113067143Y-115540523D01*
X93166666Y-131917190D02*
X93142857Y-131941000D01*
X93142857Y-131941000D02*
X93071428Y-131964809D01*
X93071428Y-131964809D02*
X93023809Y-131964809D01*
X93023809Y-131964809D02*
X92952381Y-131941000D01*
X92952381Y-131941000D02*
X92904762Y-131893380D01*
X92904762Y-131893380D02*
X92880952Y-131845761D01*
X92880952Y-131845761D02*
X92857143Y-131750523D01*
X92857143Y-131750523D02*
X92857143Y-131679095D01*
X92857143Y-131679095D02*
X92880952Y-131583857D01*
X92880952Y-131583857D02*
X92904762Y-131536238D01*
X92904762Y-131536238D02*
X92952381Y-131488619D01*
X92952381Y-131488619D02*
X93023809Y-131464809D01*
X93023809Y-131464809D02*
X93071428Y-131464809D01*
X93071428Y-131464809D02*
X93142857Y-131488619D01*
X93142857Y-131488619D02*
X93166666Y-131512428D01*
X93357143Y-131512428D02*
X93380952Y-131488619D01*
X93380952Y-131488619D02*
X93428571Y-131464809D01*
X93428571Y-131464809D02*
X93547619Y-131464809D01*
X93547619Y-131464809D02*
X93595238Y-131488619D01*
X93595238Y-131488619D02*
X93619047Y-131512428D01*
X93619047Y-131512428D02*
X93642857Y-131560047D01*
X93642857Y-131560047D02*
X93642857Y-131607666D01*
X93642857Y-131607666D02*
X93619047Y-131679095D01*
X93619047Y-131679095D02*
X93333333Y-131964809D01*
X93333333Y-131964809D02*
X93642857Y-131964809D01*
X97906666Y-131887190D02*
X97882857Y-131911000D01*
X97882857Y-131911000D02*
X97811428Y-131934809D01*
X97811428Y-131934809D02*
X97763809Y-131934809D01*
X97763809Y-131934809D02*
X97692381Y-131911000D01*
X97692381Y-131911000D02*
X97644762Y-131863380D01*
X97644762Y-131863380D02*
X97620952Y-131815761D01*
X97620952Y-131815761D02*
X97597143Y-131720523D01*
X97597143Y-131720523D02*
X97597143Y-131649095D01*
X97597143Y-131649095D02*
X97620952Y-131553857D01*
X97620952Y-131553857D02*
X97644762Y-131506238D01*
X97644762Y-131506238D02*
X97692381Y-131458619D01*
X97692381Y-131458619D02*
X97763809Y-131434809D01*
X97763809Y-131434809D02*
X97811428Y-131434809D01*
X97811428Y-131434809D02*
X97882857Y-131458619D01*
X97882857Y-131458619D02*
X97906666Y-131482428D01*
X98382857Y-131934809D02*
X98097143Y-131934809D01*
X98240000Y-131934809D02*
X98240000Y-131434809D01*
X98240000Y-131434809D02*
X98192381Y-131506238D01*
X98192381Y-131506238D02*
X98144762Y-131553857D01*
X98144762Y-131553857D02*
X98097143Y-131577666D01*
X118356073Y-118136080D02*
X118189407Y-117897985D01*
X118070359Y-118136080D02*
X118070359Y-117636080D01*
X118070359Y-117636080D02*
X118260835Y-117636080D01*
X118260835Y-117636080D02*
X118308454Y-117659890D01*
X118308454Y-117659890D02*
X118332264Y-117683699D01*
X118332264Y-117683699D02*
X118356073Y-117731318D01*
X118356073Y-117731318D02*
X118356073Y-117802747D01*
X118356073Y-117802747D02*
X118332264Y-117850366D01*
X118332264Y-117850366D02*
X118308454Y-117874175D01*
X118308454Y-117874175D02*
X118260835Y-117897985D01*
X118260835Y-117897985D02*
X118070359Y-117897985D01*
X118522740Y-117636080D02*
X118856073Y-117636080D01*
X118856073Y-117636080D02*
X118641788Y-118136080D01*
X116176932Y-130785412D02*
X116153123Y-130809222D01*
X116153123Y-130809222D02*
X116081694Y-130833031D01*
X116081694Y-130833031D02*
X116034075Y-130833031D01*
X116034075Y-130833031D02*
X115962647Y-130809222D01*
X115962647Y-130809222D02*
X115915028Y-130761602D01*
X115915028Y-130761602D02*
X115891218Y-130713983D01*
X115891218Y-130713983D02*
X115867409Y-130618745D01*
X115867409Y-130618745D02*
X115867409Y-130547317D01*
X115867409Y-130547317D02*
X115891218Y-130452079D01*
X115891218Y-130452079D02*
X115915028Y-130404460D01*
X115915028Y-130404460D02*
X115962647Y-130356841D01*
X115962647Y-130356841D02*
X116034075Y-130333031D01*
X116034075Y-130333031D02*
X116081694Y-130333031D01*
X116081694Y-130333031D02*
X116153123Y-130356841D01*
X116153123Y-130356841D02*
X116176932Y-130380650D01*
X116462647Y-130547317D02*
X116415028Y-130523507D01*
X116415028Y-130523507D02*
X116391218Y-130499698D01*
X116391218Y-130499698D02*
X116367409Y-130452079D01*
X116367409Y-130452079D02*
X116367409Y-130428269D01*
X116367409Y-130428269D02*
X116391218Y-130380650D01*
X116391218Y-130380650D02*
X116415028Y-130356841D01*
X116415028Y-130356841D02*
X116462647Y-130333031D01*
X116462647Y-130333031D02*
X116557885Y-130333031D01*
X116557885Y-130333031D02*
X116605504Y-130356841D01*
X116605504Y-130356841D02*
X116629313Y-130380650D01*
X116629313Y-130380650D02*
X116653123Y-130428269D01*
X116653123Y-130428269D02*
X116653123Y-130452079D01*
X116653123Y-130452079D02*
X116629313Y-130499698D01*
X116629313Y-130499698D02*
X116605504Y-130523507D01*
X116605504Y-130523507D02*
X116557885Y-130547317D01*
X116557885Y-130547317D02*
X116462647Y-130547317D01*
X116462647Y-130547317D02*
X116415028Y-130571126D01*
X116415028Y-130571126D02*
X116391218Y-130594936D01*
X116391218Y-130594936D02*
X116367409Y-130642555D01*
X116367409Y-130642555D02*
X116367409Y-130737793D01*
X116367409Y-130737793D02*
X116391218Y-130785412D01*
X116391218Y-130785412D02*
X116415028Y-130809222D01*
X116415028Y-130809222D02*
X116462647Y-130833031D01*
X116462647Y-130833031D02*
X116557885Y-130833031D01*
X116557885Y-130833031D02*
X116605504Y-130809222D01*
X116605504Y-130809222D02*
X116629313Y-130785412D01*
X116629313Y-130785412D02*
X116653123Y-130737793D01*
X116653123Y-130737793D02*
X116653123Y-130642555D01*
X116653123Y-130642555D02*
X116629313Y-130594936D01*
X116629313Y-130594936D02*
X116605504Y-130571126D01*
X116605504Y-130571126D02*
X116557885Y-130547317D01*
D13*
%TO.C,C4*%
X105519420Y-127125000D02*
X105800580Y-127125000D01*
X105519420Y-128145000D02*
X105800580Y-128145000D01*
%TO.C,C3*%
X95170000Y-129359420D02*
X95170000Y-129640580D01*
X96190000Y-129359420D02*
X96190000Y-129640580D01*
%TO.C,R6*%
X109169999Y-127813639D02*
X109169999Y-127506357D01*
X109929999Y-127813639D02*
X109929999Y-127506357D01*
%TO.C,U3*%
X115830324Y-113982000D02*
X118830324Y-113982000D01*
X115830324Y-117382000D02*
X118630324Y-117382000D01*
X118930324Y-117362000D02*
X118930324Y-117082000D01*
X119210324Y-117082000D01*
X118930324Y-117362000D01*
G36*
X118930324Y-117362000D02*
G01*
X118930324Y-117082000D01*
X119210324Y-117082000D01*
X118930324Y-117362000D01*
G37*
%TO.C,J2*%
X124010000Y-127810000D02*
X124010000Y-117540000D01*
X126770000Y-117540000D02*
X124010000Y-117540000D01*
X126770000Y-127810000D02*
X124010000Y-127810000D01*
X126770000Y-127810000D02*
X126770000Y-117540000D01*
X126770000Y-129080000D02*
X126770000Y-130460000D01*
X126770000Y-130460000D02*
X125390000Y-130460000D01*
%TO.C,C12*%
X122310000Y-129439420D02*
X122310000Y-129720580D01*
X123330000Y-129439420D02*
X123330000Y-129720580D01*
%TO.C,R3*%
X114908359Y-117730000D02*
X115215641Y-117730000D01*
X114908359Y-118490000D02*
X115215641Y-118490000D01*
%TO.C,C10*%
X107710655Y-128327296D02*
X107710655Y-128046136D01*
X108730655Y-128327296D02*
X108730655Y-128046136D01*
%TO.C,SW1*%
X100035000Y-130225000D02*
X100035000Y-130125000D01*
X100035000Y-131725000D02*
X104435000Y-131725000D01*
X104435000Y-128625000D02*
X100035000Y-128625000D01*
X104435000Y-130225000D02*
X104435000Y-130125000D01*
%TO.C,C13*%
X121258092Y-119535585D02*
X121258092Y-119816745D01*
X122278092Y-119535585D02*
X122278092Y-119816745D01*
%TO.C,J3*%
X106125000Y-118250000D02*
X106125000Y-116870000D01*
X107505000Y-118250000D02*
X106125000Y-118250000D01*
X108775000Y-115490000D02*
X111425000Y-115490000D01*
X108775000Y-118250000D02*
X108775000Y-115490000D01*
X108775000Y-118250000D02*
X111425000Y-118250000D01*
X111425000Y-118250000D02*
X111425000Y-115490000D01*
%TO.C,J4*%
X105860000Y-134550000D02*
X105860000Y-133170000D01*
X107240000Y-134550000D02*
X105860000Y-134550000D01*
X108510000Y-131790000D02*
X126400000Y-131790000D01*
X108510000Y-134550000D02*
X108510000Y-131790000D01*
X108510000Y-134550000D02*
X126400000Y-134550000D01*
X126400000Y-134550000D02*
X126400000Y-131790000D01*
%TO.C,R2*%
X92555342Y-123613793D02*
X92555342Y-123306511D01*
X93315342Y-123613793D02*
X93315342Y-123306511D01*
%TO.C,R1*%
X92681963Y-125198386D02*
X92681963Y-125505668D01*
X93441963Y-125198386D02*
X93441963Y-125505668D01*
%TO.C,R9*%
X122509625Y-122273327D02*
X122509625Y-121966045D01*
X123269625Y-122273327D02*
X123269625Y-121966045D01*
%TO.C,U2*%
X113512500Y-120850000D02*
X113962500Y-120850000D01*
X113512500Y-121300000D02*
X113512500Y-120850000D01*
X113512500Y-128070000D02*
X113512500Y-127620000D01*
X113962500Y-128070000D02*
X113512500Y-128070000D01*
X120282500Y-120850000D02*
X120732500Y-120850000D01*
X120732500Y-120850000D02*
X120732500Y-121300000D01*
X120732500Y-127620000D02*
X120732500Y-128070000D01*
X120732500Y-128070000D02*
X120282500Y-128070000D01*
X112872500Y-121300000D02*
X112532500Y-120830000D01*
X113212500Y-120830000D01*
X112872500Y-121300000D01*
G36*
X112872500Y-121300000D02*
G01*
X112532500Y-120830000D01*
X113212500Y-120830000D01*
X112872500Y-121300000D01*
G37*
%TO.C,R4*%
X119870000Y-118153641D02*
X119870000Y-117846359D01*
X120630000Y-118153641D02*
X120630000Y-117846359D01*
%TO.C,C7*%
X105490000Y-120890580D02*
X105490000Y-120609420D01*
X106510000Y-120890580D02*
X106510000Y-120609420D01*
%TO.C,U1*%
X93745000Y-121280000D02*
X95005000Y-121280000D01*
X93745000Y-125040000D02*
X93745000Y-121280000D01*
X100565000Y-121280000D02*
X99305000Y-121280000D01*
X100565000Y-125040000D02*
X100565000Y-121280000D01*
X93845000Y-126320000D02*
X93515000Y-126560000D01*
X93515000Y-126080000D01*
X93845000Y-126320000D01*
G36*
X93845000Y-126320000D02*
G01*
X93515000Y-126560000D01*
X93515000Y-126080000D01*
X93845000Y-126320000D01*
G37*
%TO.C,R5*%
X114149940Y-115357341D02*
X113932659Y-115140060D01*
X114687341Y-114819940D02*
X114470060Y-114602659D01*
%TO.C,C9*%
X112039617Y-119573244D02*
X112039617Y-119854404D01*
X113059617Y-119573244D02*
X113059617Y-119854404D01*
%TO.C,TP1*%
X101300000Y-120550000D02*
X102700000Y-120550000D01*
X101300000Y-121950000D02*
X101300000Y-120550000D01*
X102700000Y-120550000D02*
X102700000Y-121950000D01*
X102700000Y-121950000D02*
X101300000Y-121950000D01*
%TO.C,C5*%
X101373264Y-126336744D02*
X101373264Y-126617904D01*
X102393264Y-126336744D02*
X102393264Y-126617904D01*
%TO.C,R8*%
X118703640Y-129850000D02*
X118396357Y-129849999D01*
X118703641Y-130610001D02*
X118396358Y-130610000D01*
%TO.C,C6*%
X113770580Y-116250000D02*
X113489420Y-116250000D01*
X113770580Y-117270000D02*
X113489420Y-117270000D01*
%TO.C,C2*%
X92835000Y-129359420D02*
X92835000Y-129640580D01*
X93855000Y-129359420D02*
X93855000Y-129640580D01*
%TO.C,TP3*%
X103300000Y-118550000D02*
X104700000Y-118550000D01*
X103300000Y-119950000D02*
X103300000Y-118550000D01*
X104700000Y-118550000D02*
X104700000Y-119950000D01*
X104700000Y-119950000D02*
X103300000Y-119950000D01*
%TO.C,C1*%
X97490000Y-129640580D02*
X97490000Y-129359420D01*
X98510000Y-129640580D02*
X98510000Y-129359420D01*
%TO.C,J1*%
X90305000Y-119860000D02*
X88675000Y-119860000D01*
X90305000Y-129060000D02*
X88675000Y-129060000D01*
%TO.C,C14*%
X109970000Y-123719419D02*
X109970000Y-124000581D01*
X110990000Y-123719419D02*
X110990000Y-124000581D01*
%TO.C,TP2*%
X103300000Y-120550000D02*
X104700000Y-120550000D01*
X103300000Y-121950000D02*
X103300000Y-120550000D01*
X104700000Y-120550000D02*
X104700000Y-121950000D01*
X104700000Y-121950000D02*
X103300000Y-121950000D01*
%TO.C,Y1*%
X102900000Y-122600000D02*
X103430000Y-122600000D01*
X102900000Y-126320000D02*
X102900000Y-122600000D01*
X103430000Y-126320000D02*
X102900000Y-126320000D01*
X103430000Y-126720000D02*
X103430000Y-126320000D01*
X105350000Y-122600000D02*
X105970000Y-122600000D01*
X105350000Y-126320000D02*
X105350000Y-126720000D01*
X105970000Y-126320000D02*
X105350000Y-126320000D01*
X107890000Y-122600000D02*
X108420000Y-122600000D01*
X108420000Y-122600000D02*
X108420000Y-126320000D01*
X108420000Y-126320000D02*
X107890000Y-126320000D01*
%TO.C,TP4*%
X101300000Y-118550000D02*
X102700000Y-118550000D01*
X101300000Y-119950000D02*
X101300000Y-118550000D01*
X102700000Y-118550000D02*
X102700000Y-119950000D01*
X102700000Y-119950000D02*
X101300000Y-119950000D01*
%TO.C,R7*%
X118517641Y-118238000D02*
X118210359Y-118238000D01*
X118517641Y-118998000D02*
X118210359Y-118998000D01*
%TO.C,C8*%
X114430580Y-130040000D02*
X114149420Y-130040000D01*
X114430580Y-131060000D02*
X114149420Y-131060000D01*
%TD*%
M02*
