M48
; DRILL file {KiCad 9.0.7} date 2026-03-09T01:44:28+0100
; FORMAT={-:-/ absolute / metric / decimal}
; #@! TF.CreationDate,2026-03-09T01:44:28+01:00
; #@! TF.GenerationSoftware,Kicad,Pcbnew,9.0.7
; #@! TF.FileFunction,Plated,1,2,PTH
FMAT,2
METRIC
; #@! TA.AperFunction,Plated,PTH,ViaDrill
T1C0.300
; #@! TA.AperFunction,Plated,PTH,ComponentDrill
T2C0.500
; #@! TA.AperFunction,Plated,PTH,ComponentDrill
T3C2.200
%
G90
G05
T1
X86.5Y-131.53
X87.88Y-117.34
X90.53Y-113.78
X91.25Y-135.25
X92.54Y-114.62
X93.02Y-133.5
X93.03Y-119.59
X93.94Y-113.65
X94.09Y-125.01
X94.65Y-135.25
X96.02Y-114.78
X96.42Y-133.32
X97.34Y-113.65
X97.95Y-123.83
X98.05Y-135.25
X99.18Y-114.91
X99.88Y-133.43
X100.655Y-125.535
X100.74Y-113.65
X101.45Y-135.25
X102.0Y-123.03
X102.49Y-114.91
X103.14Y-133.56
X103.43Y-127.46
X104.14Y-113.65
X104.85Y-135.25
X105.97Y-115.15
X106.71Y-133.77
X107.14Y-120.81
X107.54Y-113.65
X107.61Y-119.36
X108.08Y-122.8
X108.25Y-135.25
X109.12Y-125.57
X109.46Y-115.03
X109.82Y-133.76
X110.04Y-129.8
X110.15Y-126.32
X110.94Y-113.65
X111.51Y-121.46
X111.65Y-135.25
X112.182Y-130.048
X112.28Y-129.21
X112.65Y-114.33
X112.74Y-128.45
X113.64Y-119.79
X113.84Y-135.23
X113.97Y-130.22
X114.27Y-125.11
X114.34Y-113.65
X114.418Y-126.399
X114.91Y-121.64
X115.14Y-118.95
X115.472Y-129.85
X116.272Y-119.102
X117.14Y-131.05
X117.49Y-130.11
X117.7Y-113.48
X117.854Y-118.618
X117.87Y-127.2
X118.45Y-135.25
X118.874Y-118.618
X119.4Y-127.52
X119.96Y-122.2
X120.19Y-134.34
X120.61Y-120.475
X121.14Y-113.65
X121.85Y-135.25
X122.507Y-124.499
X122.77Y-125.98
X122.87Y-131.9
X123.01Y-116.75
X123.11Y-123.76
X126.54Y-117.48
X126.54Y-120.88
X126.54Y-124.28
X126.54Y-127.68
X126.54Y-131.08
T2
X112.34Y-132.65
X113.34Y-132.65
X114.34Y-132.65
X115.34Y-132.65
X116.34Y-132.65
X117.34Y-132.65
X118.34Y-132.65
X119.34Y-132.65
X124.714Y-122.92
X124.714Y-123.92
X124.714Y-124.92
X124.714Y-125.92
T3
X88.0Y-114.75
X88.0Y-133.75
X125.25Y-114.75
X125.25Y-133.75
M30
