M48
; DRILL file {KiCad 9.0.7} date 2026-03-11T14:19:05+0100
; FORMAT={-:-/ absolute / metric / decimal}
; #@! TF.CreationDate,2026-03-11T14:19:05+01:00
; #@! TF.GenerationSoftware,Kicad,Pcbnew,9.0.7
; #@! TF.FileFunction,Plated,1,2,PTH
FMAT,2
METRIC
; #@! TA.AperFunction,Plated,PTH,ViaDrill
T1C0.300
; #@! TA.AperFunction,Plated,PTH,ComponentDrill
T2C1.000
; #@! TA.AperFunction,Plated,PTH,ComponentDrill
T3C2.200
%
G90
G05
T1
X87.88Y-117.34
X88.265Y-124.46
X90.53Y-113.78
X90.77Y-131.72
X90.83Y-134.72
X93.03Y-119.59
X93.94Y-113.65
X94.09Y-125.01
X94.23Y-134.72
X97.34Y-113.65
X97.63Y-134.72
X97.95Y-123.83
X100.655Y-125.535
X100.74Y-113.65
X101.03Y-134.72
X102.0Y-123.03
X103.43Y-127.46
X104.14Y-113.65
X104.43Y-134.72
X105.66Y-129.01
X107.19Y-129.83
X107.32Y-120.47
X107.54Y-113.65
X107.61Y-119.36
X108.08Y-122.8
X110.92Y-119.27
X110.94Y-113.65
X111.58Y-124.27
X111.64Y-121.41
X112.086Y-127.321
X112.24Y-131.19
X112.74Y-128.45
X113.481Y-128.951
X114.03Y-131.92
X114.387Y-126.37
X114.45Y-124.81
X114.7Y-113.49
X114.804Y-127.385
X114.91Y-121.64
X115.14Y-118.95
X115.772Y-131.346
X116.272Y-119.102
X116.874Y-127.385
X117.18Y-129.97
X117.854Y-118.618
X118.874Y-118.618
X119.39Y-127.29
X119.96Y-122.2
X120.61Y-120.475
X121.78Y-113.9
X122.85Y-125.08
X125.18Y-113.9
X129.61Y-118.71
X129.61Y-122.11
X129.61Y-125.51
X129.61Y-128.91
T2
X107.24Y-133.17
X107.505Y-116.87
X109.78Y-133.17
X110.045Y-116.87
X112.32Y-133.17
X114.86Y-133.17
X117.4Y-133.17
X119.94Y-133.17
X122.48Y-133.17
X125.02Y-133.17
X125.39Y-118.92
X125.39Y-121.46
X125.39Y-124.0
X125.39Y-126.54
X125.39Y-129.08
T3
X88.0Y-115.0
X88.06Y-133.3
X129.18Y-115.0
X129.18Y-133.41
M30
