%TF.GenerationSoftware,KiCad,Pcbnew,9.0.7*%
%TF.CreationDate,2026-03-09T01:44:23+01:00*%
%TF.ProjectId,Temp-Project,54656d70-2d50-4726-9f6a-6563742e6b69,rev?*%
%TF.SameCoordinates,Original*%
%TF.FileFunction,Copper,L1,Top*%
%TF.FilePolarity,Positive*%
%FSLAX46Y46*%
G04 Gerber Fmt 4.6, Leading zero omitted, Abs format (unit mm)*
G04 Created by KiCad (PCBNEW 9.0.7) date 2026-03-09 01:44:23*
%MOMM*%
%LPD*%
G01*
G04 APERTURE LIST*
G04 Aperture macros list*
%AMRoundRect*
0 Rectangle with rounded corners*
0 $1 Rounding radius*
0 $2 $3 $4 $5 $6 $7 $8 $9 X,Y pos of 4 corners*
0 Add a 4 corners polygon primitive as box body*
4,1,4,$2,$3,$4,$5,$6,$7,$8,$9,$2,$3,0*
0 Add four circle primitives for the rounded corners*
1,1,$1+$1,$2,$3*
1,1,$1+$1,$4,$5*
1,1,$1+$1,$6,$7*
1,1,$1+$1,$8,$9*
0 Add four rect primitives between the rounded corners*
20,1,$1+$1,$2,$3,$4,$5,0*
20,1,$1+$1,$4,$5,$6,$7,0*
20,1,$1+$1,$6,$7,$8,$9,0*
20,1,$1+$1,$8,$9,$2,$3,0*%
G04 Aperture macros list end*
%TA.AperFunction,SMDPad,CuDef*%
%ADD10RoundRect,0.225000X-0.225000X-0.250000X0.225000X-0.250000X0.225000X0.250000X-0.225000X0.250000X0*%
%TD*%
%TA.AperFunction,SMDPad,CuDef*%
%ADD11RoundRect,0.225000X-0.250000X0.225000X-0.250000X-0.225000X0.250000X-0.225000X0.250000X0.225000X0*%
%TD*%
%TA.AperFunction,SMDPad,CuDef*%
%ADD12RoundRect,0.135000X0.185000X-0.135000X0.185000X0.135000X-0.185000X0.135000X-0.185000X-0.135000X0*%
%TD*%
%TA.AperFunction,SMDPad,CuDef*%
%ADD13RoundRect,0.100000X0.200000X0.100000X-0.200000X0.100000X-0.200000X-0.100000X0.200000X-0.100000X0*%
%TD*%
%TA.AperFunction,SMDPad,CuDef*%
%ADD14R,1.500000X2.400000*%
%TD*%
%TA.AperFunction,ComponentPad*%
%ADD15R,0.850000X0.850000*%
%TD*%
%TA.AperFunction,ComponentPad*%
%ADD16C,0.850000*%
%TD*%
%TA.AperFunction,SMDPad,CuDef*%
%ADD17RoundRect,0.225000X0.225000X0.250000X-0.225000X0.250000X-0.225000X-0.250000X0.225000X-0.250000X0*%
%TD*%
%TA.AperFunction,SMDPad,CuDef*%
%ADD18RoundRect,0.135000X-0.135000X-0.185000X0.135000X-0.185000X0.135000X0.185000X-0.135000X0.185000X0*%
%TD*%
%TA.AperFunction,SMDPad,CuDef*%
%ADD19RoundRect,0.225000X0.250000X-0.225000X0.250000X0.225000X-0.250000X0.225000X-0.250000X-0.225000X0*%
%TD*%
%TA.AperFunction,SMDPad,CuDef*%
%ADD20R,0.900000X1.000000*%
%TD*%
%TA.AperFunction,ComponentPad*%
%ADD21C,3.800000*%
%TD*%
%TA.AperFunction,SMDPad,CuDef*%
%ADD22RoundRect,0.135000X-0.185000X0.135000X-0.185000X-0.135000X0.185000X-0.135000X0.185000X0.135000X0*%
%TD*%
%TA.AperFunction,SMDPad,CuDef*%
%ADD23RoundRect,0.075000X-0.662500X-0.075000X0.662500X-0.075000X0.662500X0.075000X-0.662500X0.075000X0*%
%TD*%
%TA.AperFunction,SMDPad,CuDef*%
%ADD24RoundRect,0.075000X-0.075000X-0.662500X0.075000X-0.662500X0.075000X0.662500X-0.075000X0.662500X0*%
%TD*%
%TA.AperFunction,SMDPad,CuDef*%
%ADD25RoundRect,0.375000X0.375000X-0.625000X0.375000X0.625000X-0.375000X0.625000X-0.375000X-0.625000X0*%
%TD*%
%TA.AperFunction,SMDPad,CuDef*%
%ADD26RoundRect,0.500000X1.400000X-0.500000X1.400000X0.500000X-1.400000X0.500000X-1.400000X-0.500000X0*%
%TD*%
%TA.AperFunction,SMDPad,CuDef*%
%ADD27R,1.000000X1.000000*%
%TD*%
%TA.AperFunction,SMDPad,CuDef*%
%ADD28RoundRect,0.175000X-0.425000X0.175000X-0.425000X-0.175000X0.425000X-0.175000X0.425000X0.175000X0*%
%TD*%
%TA.AperFunction,SMDPad,CuDef*%
%ADD29RoundRect,0.190000X0.410000X-0.190000X0.410000X0.190000X-0.410000X0.190000X-0.410000X-0.190000X0*%
%TD*%
%TA.AperFunction,SMDPad,CuDef*%
%ADD30RoundRect,0.200000X0.400000X-0.200000X0.400000X0.200000X-0.400000X0.200000X-0.400000X-0.200000X0*%
%TD*%
%TA.AperFunction,SMDPad,CuDef*%
%ADD31RoundRect,0.175000X0.425000X-0.175000X0.425000X0.175000X-0.425000X0.175000X-0.425000X-0.175000X0*%
%TD*%
%TA.AperFunction,SMDPad,CuDef*%
%ADD32RoundRect,0.190000X-0.410000X0.190000X-0.410000X-0.190000X0.410000X-0.190000X0.410000X0.190000X0*%
%TD*%
%TA.AperFunction,SMDPad,CuDef*%
%ADD33RoundRect,0.200000X-0.400000X0.200000X-0.400000X-0.200000X0.400000X-0.200000X0.400000X0.200000X0*%
%TD*%
%TA.AperFunction,SMDPad,CuDef*%
%ADD34RoundRect,0.250000X-0.425000X0.650000X-0.425000X-0.650000X0.425000X-0.650000X0.425000X0.650000X0*%
%TD*%
%TA.AperFunction,SMDPad,CuDef*%
%ADD35RoundRect,0.250000X-0.500000X0.650000X-0.500000X-0.650000X0.500000X-0.650000X0.500000X0.650000X0*%
%TD*%
%TA.AperFunction,SMDPad,CuDef*%
%ADD36RoundRect,0.250000X-0.450000X-0.350000X0.450000X-0.350000X0.450000X0.350000X-0.450000X0.350000X0*%
%TD*%
%TA.AperFunction,SMDPad,CuDef*%
%ADD37RoundRect,0.135000X0.135000X0.185000X-0.135000X0.185000X-0.135000X-0.185000X0.135000X-0.185000X0*%
%TD*%
%TA.AperFunction,ViaPad*%
%ADD38C,0.600000*%
%TD*%
%TA.AperFunction,Conductor*%
%ADD39C,0.200000*%
%TD*%
%TA.AperFunction,Conductor*%
%ADD40C,0.500000*%
%TD*%
%TA.AperFunction,Conductor*%
%ADD41C,0.300000*%
%TD*%
G04 APERTURE END LIST*
D10*
%TO.P,C4,1*%
%TO.N,+3.3V*%
X104885000Y-127635000D03*
%TO.P,C4,2*%
%TO.N,GND*%
X106435000Y-127635000D03*
%TD*%
D11*
%TO.P,C3,1*%
%TO.N,+5V*%
X95680000Y-128725000D03*
%TO.P,C3,2*%
%TO.N,GND*%
X95680000Y-130275000D03*
%TD*%
D12*
%TO.P,R6,1*%
%TO.N,+3.3V*%
X109549999Y-128169998D03*
%TO.P,R6,2*%
%TO.N,Net-(U2-NRST)*%
X109549999Y-127149998D03*
%TD*%
D13*
%TO.P,U3,1,SDA*%
%TO.N,I2C_sda_master*%
X118730324Y-116632000D03*
%TO.P,U3,2,ADDR*%
%TO.N,GND*%
X118730324Y-115682000D03*
%TO.P,U3,3,ALERT*%
%TO.N,unconnected-(U3-ALERT-Pad3)*%
X118730324Y-114732000D03*
%TO.P,U3,4,SCL*%
%TO.N,Clock_Out*%
X115930324Y-114732000D03*
%TO.P,U3,5,VDD*%
%TO.N,+3.3V*%
X115930324Y-115682000D03*
%TO.P,U3,6,~{RESET}*%
%TO.N,Net-(U3-~{RESET})*%
X115930324Y-116632000D03*
D14*
%TO.P,U3,7,R*%
%TO.N,unconnected-(U3-R-Pad7)*%
X117330324Y-115682000D03*
%TD*%
D15*
%TO.P,J2,1,Pin_1*%
%TO.N,+3.3V*%
X124714000Y-125920000D03*
D16*
%TO.P,J2,2,Pin_2*%
%TO.N,SWCLK*%
X124714000Y-124920000D03*
%TO.P,J2,3,Pin_3*%
%TO.N,GND*%
X124714000Y-123920000D03*
%TO.P,J2,4,Pin_4*%
%TO.N,SWDIO*%
X124714000Y-122920000D03*
%TD*%
D10*
%TO.P,C15,1*%
%TO.N,GND*%
X115090867Y-134650000D03*
%TO.P,C15,2*%
%TO.N,+3.3V*%
X116640867Y-134650000D03*
%TD*%
D17*
%TO.P,C12,1*%
%TO.N,GND*%
X122591744Y-129000548D03*
%TO.P,C12,2*%
%TO.N,+3.3V*%
X121041744Y-129000548D03*
%TD*%
D18*
%TO.P,R3,1*%
%TO.N,+3.3V*%
X114552000Y-118110000D03*
%TO.P,R3,2*%
%TO.N,Net-(U3-~{RESET})*%
X115572000Y-118110000D03*
%TD*%
D19*
%TO.P,C10,1*%
%TO.N,GND*%
X108220655Y-128961716D03*
%TO.P,C10,2*%
%TO.N,Net-(U2-NRST)*%
X108220655Y-127411716D03*
%TD*%
D20*
%TO.P,SW1,1,1*%
%TO.N,GND*%
X100185000Y-129375000D03*
X104285000Y-129375000D03*
%TO.P,SW1,2,2*%
%TO.N,Net-(U2-NRST)*%
X100185000Y-130975000D03*
X104285000Y-130975000D03*
%TD*%
D11*
%TO.P,C13,1*%
%TO.N,GND*%
X121768092Y-118901165D03*
%TO.P,C13,2*%
%TO.N,+3.3V*%
X121768092Y-120451165D03*
%TD*%
D15*
%TO.P,J4,1,Pin_1*%
%TO.N,SPI_dc_master*%
X112340000Y-132650000D03*
D16*
%TO.P,J4,2,Pin_2*%
%TO.N,SPI_rst_master*%
X113340000Y-132650000D03*
%TO.P,J4,3,Pin_3*%
%TO.N,SPI_cs_master*%
X114340000Y-132650000D03*
%TO.P,J4,4,Pin_4*%
%TO.N,+3.3V*%
X115340000Y-132650000D03*
%TO.P,J4,5,Pin_5*%
%TO.N,SPI_mosi_master*%
X116340000Y-132650000D03*
%TO.P,J4,6,Pin_6*%
%TO.N,SPI_sck_master*%
X117340000Y-132650000D03*
%TO.P,J4,7,Pin_7*%
%TO.N,GND*%
X118340000Y-132650000D03*
%TO.P,J4,8,Pin_8*%
%TO.N,+3.3V*%
X119340000Y-132650000D03*
%TD*%
D21*
%TO.P,H3,1,1*%
%TO.N,GND*%
X125250000Y-133750000D03*
%TD*%
D12*
%TO.P,R2,1*%
%TO.N,Net-(J1-CC1)*%
X92935342Y-123970152D03*
%TO.P,R2,2*%
%TO.N,GND*%
X92935342Y-122950152D03*
%TD*%
D22*
%TO.P,R1,1*%
%TO.N,Net-(J1-CC2)*%
X93061963Y-124842027D03*
%TO.P,R1,2*%
%TO.N,GND*%
X93061963Y-125862027D03*
%TD*%
D12*
%TO.P,R9,1*%
%TO.N,SWDIO*%
X122889625Y-122629686D03*
%TO.P,R9,2*%
%TO.N,+3.3V*%
X122889625Y-121609686D03*
%TD*%
D23*
%TO.P,U2,1,VBAT*%
%TO.N,+3.3V*%
X112960000Y-121710000D03*
%TO.P,U2,2,PC13*%
%TO.N,unconnected-(U2-PC13-Pad2)*%
X112960000Y-122210000D03*
%TO.P,U2,3,PC14*%
%TO.N,unconnected-(U2-PC14-Pad3)*%
X112960000Y-122710000D03*
%TO.P,U2,4,PC15*%
%TO.N,unconnected-(U2-PC15-Pad4)*%
X112960000Y-123210000D03*
%TO.P,U2,5,PD0*%
%TO.N,Clock_Out*%
X112960000Y-123710000D03*
%TO.P,U2,6,PD1*%
%TO.N,unconnected-(U2-PD1-Pad6)*%
X112960000Y-124210000D03*
%TO.P,U2,7,NRST*%
%TO.N,Net-(U2-NRST)*%
X112960000Y-124710000D03*
%TO.P,U2,8,VSSA*%
%TO.N,GND*%
X112960000Y-125210000D03*
%TO.P,U2,9,VDDA*%
%TO.N,+3.3V*%
X112960000Y-125710000D03*
%TO.P,U2,10,PA0*%
%TO.N,SPI_dc_master*%
X112960000Y-126210000D03*
%TO.P,U2,11,PA1*%
%TO.N,SPI_rst_master*%
X112960000Y-126710000D03*
%TO.P,U2,12,PA2*%
%TO.N,unconnected-(U2-PA2-Pad12)*%
X112960000Y-127210000D03*
D24*
%TO.P,U2,13,PA3*%
%TO.N,unconnected-(U2-PA3-Pad13)*%
X114372500Y-128622500D03*
%TO.P,U2,14,PA4*%
%TO.N,SPI_cs_master*%
X114872500Y-128622500D03*
%TO.P,U2,15,PA5*%
%TO.N,SPI_sck_master*%
X115372500Y-128622500D03*
%TO.P,U2,16,PA6*%
%TO.N,unconnected-(U2-PA6-Pad16)*%
X115872500Y-128622500D03*
%TO.P,U2,17,PA7*%
%TO.N,SPI_mosi_master*%
X116372500Y-128622500D03*
%TO.P,U2,18,PB0*%
%TO.N,unconnected-(U2-PB0-Pad18)*%
X116872500Y-128622500D03*
%TO.P,U2,19,PB1*%
%TO.N,unconnected-(U2-PB1-Pad19)*%
X117372500Y-128622500D03*
%TO.P,U2,20,PB2*%
%TO.N,Net-(U2-PB2)*%
X117872500Y-128622500D03*
%TO.P,U2,21,PB10*%
%TO.N,unconnected-(U2-PB10-Pad21)*%
X118372500Y-128622500D03*
%TO.P,U2,22,PB11*%
%TO.N,unconnected-(U2-PB11-Pad22)*%
X118872500Y-128622500D03*
%TO.P,U2,23,VSS*%
%TO.N,GND*%
X119372500Y-128622500D03*
%TO.P,U2,24,VDD*%
%TO.N,+3.3V*%
X119872500Y-128622500D03*
D23*
%TO.P,U2,25,PB12*%
%TO.N,unconnected-(U2-PB12-Pad25)*%
X121285000Y-127210000D03*
%TO.P,U2,26,PB13*%
%TO.N,unconnected-(U2-PB13-Pad26)*%
X121285000Y-126710000D03*
%TO.P,U2,27,PB14*%
%TO.N,unconnected-(U2-PB14-Pad27)*%
X121285000Y-126210000D03*
%TO.P,U2,28,PB15*%
%TO.N,unconnected-(U2-PB15-Pad28)*%
X121285000Y-125710000D03*
%TO.P,U2,29,PA8*%
%TO.N,unconnected-(U2-PA8-Pad29)*%
X121285000Y-125210000D03*
%TO.P,U2,30,PA9*%
%TO.N,unconnected-(U2-PA9-Pad30)*%
X121285000Y-124710000D03*
%TO.P,U2,31,PA10*%
%TO.N,unconnected-(U2-PA10-Pad31)*%
X121285000Y-124210000D03*
%TO.P,U2,32,PA11*%
%TO.N,unconnected-(U2-PA11-Pad32)*%
X121285000Y-123710000D03*
%TO.P,U2,33,PA12*%
%TO.N,unconnected-(U2-PA12-Pad33)*%
X121285000Y-123210000D03*
%TO.P,U2,34,PA13*%
%TO.N,SWDIO*%
X121285000Y-122710000D03*
%TO.P,U2,35,VSS*%
%TO.N,GND*%
X121285000Y-122210000D03*
%TO.P,U2,36,VDD*%
%TO.N,+3.3V*%
X121285000Y-121710000D03*
D24*
%TO.P,U2,37,PA14*%
%TO.N,SWCLK*%
X119872500Y-120297500D03*
%TO.P,U2,38,PA15*%
%TO.N,unconnected-(U2-PA15-Pad38)*%
X119372500Y-120297500D03*
%TO.P,U2,39,PB3*%
%TO.N,unconnected-(U2-PB3-Pad39)*%
X118872500Y-120297500D03*
%TO.P,U2,40,PB4*%
%TO.N,unconnected-(U2-PB4-Pad40)*%
X118372500Y-120297500D03*
%TO.P,U2,41,PB5*%
%TO.N,unconnected-(U2-PB5-Pad41)*%
X117872500Y-120297500D03*
%TO.P,U2,42,PB6*%
%TO.N,I2C_scl_master*%
X117372500Y-120297500D03*
%TO.P,U2,43,PB7*%
%TO.N,I2C_sda_master*%
X116872500Y-120297500D03*
%TO.P,U2,44,BOOT0*%
%TO.N,Net-(U2-BOOT0)*%
X116372500Y-120297500D03*
%TO.P,U2,45,PB8*%
%TO.N,unconnected-(U2-PB8-Pad45)*%
X115872500Y-120297500D03*
%TO.P,U2,46,PB9*%
%TO.N,unconnected-(U2-PB9-Pad46)*%
X115372500Y-120297500D03*
%TO.P,U2,47,VSS*%
%TO.N,GND*%
X114872500Y-120297500D03*
%TO.P,U2,48,VDD*%
%TO.N,+3.3V*%
X114372500Y-120297500D03*
%TD*%
D12*
%TO.P,R4,1*%
%TO.N,+3.3V*%
X120250000Y-118510000D03*
%TO.P,R4,2*%
%TO.N,I2C_sda_master*%
X120250000Y-117490000D03*
%TD*%
D19*
%TO.P,C7,1*%
%TO.N,+3.3V*%
X106000000Y-121525000D03*
%TO.P,C7,2*%
%TO.N,GND*%
X106000000Y-119975000D03*
%TD*%
D25*
%TO.P,U1,1,GND*%
%TO.N,GND*%
X94855000Y-126340000D03*
%TO.P,U1,2,VO*%
%TO.N,+3.3V*%
X97155000Y-126340000D03*
D26*
X97155000Y-120040000D03*
D25*
%TO.P,U1,3,VI*%
%TO.N,+5V*%
X99455000Y-126340000D03*
%TD*%
D21*
%TO.P,,1,1*%
%TO.N,GND*%
X88000000Y-114750000D03*
%TD*%
D12*
%TO.P,R5,1*%
%TO.N,+3.3V*%
X114750000Y-115760000D03*
%TO.P,R5,2*%
%TO.N,Clock_Out*%
X114750000Y-114740000D03*
%TD*%
D11*
%TO.P,C9,1*%
%TO.N,GND*%
X112549617Y-118938824D03*
%TO.P,C9,2*%
%TO.N,+3.3V*%
X112549617Y-120488824D03*
%TD*%
D27*
%TO.P,TP1,1,1*%
%TO.N,+5V*%
X102000000Y-121250000D03*
%TD*%
D11*
%TO.P,C5,1*%
%TO.N,+3.3V*%
X101883264Y-125702324D03*
%TO.P,C5,2*%
%TO.N,GND*%
X101883264Y-127252324D03*
%TD*%
D18*
%TO.P,R8,1*%
%TO.N,GND*%
X111250000Y-130048000D03*
%TO.P,R8,2*%
%TO.N,Net-(U2-PB2)*%
X112270000Y-130048000D03*
%TD*%
D17*
%TO.P,C6,1*%
%TO.N,+3.3V*%
X114525000Y-117000000D03*
%TO.P,C6,2*%
%TO.N,GND*%
X112975000Y-117000000D03*
%TD*%
D11*
%TO.P,C2,1*%
%TO.N,+5V*%
X93345000Y-128725000D03*
%TO.P,C2,2*%
%TO.N,GND*%
X93345000Y-130275000D03*
%TD*%
D27*
%TO.P,TP3,1,1*%
%TO.N,Clock_Out*%
X104000000Y-119250000D03*
%TD*%
D19*
%TO.P,C1,1*%
%TO.N,GND*%
X98000000Y-130275000D03*
%TO.P,C1,2*%
%TO.N,+5V*%
X98000000Y-128725000D03*
%TD*%
D28*
%TO.P,J1,A5,CC1*%
%TO.N,Net-(J1-CC1)*%
X91297500Y-123960000D03*
D29*
%TO.P,J1,A9,VBUS*%
%TO.N,+5V*%
X91297500Y-125980000D03*
D30*
%TO.P,J1,A12,GND*%
%TO.N,GND*%
X91297500Y-127210000D03*
D31*
%TO.P,J1,B5,CC2*%
%TO.N,Net-(J1-CC2)*%
X91297500Y-124960000D03*
D32*
%TO.P,J1,B9,VBUS*%
%TO.N,+5V*%
X91297500Y-122940000D03*
D33*
%TO.P,J1,B12,GND*%
%TO.N,GND*%
X91297500Y-121710000D03*
D34*
%TO.P,J1,S1,SHIELD*%
X91242500Y-119335000D03*
D35*
X87662500Y-119335000D03*
D34*
X91242500Y-129585000D03*
D35*
X87662500Y-129585000D03*
%TD*%
D19*
%TO.P,C14,1*%
%TO.N,GND*%
X111144607Y-127775000D03*
%TO.P,C14,2*%
%TO.N,+3.3V*%
X111144607Y-126225000D03*
%TD*%
D27*
%TO.P,TP2,1,1*%
%TO.N,+3.3V*%
X104000000Y-121250000D03*
%TD*%
D36*
%TO.P,Y1,1,Tri-State*%
%TO.N,+3.3V*%
X104390000Y-125560000D03*
%TO.P,Y1,2,GND*%
%TO.N,GND*%
X106930000Y-125560000D03*
%TO.P,Y1,3,OUT*%
%TO.N,Clock_Out*%
X106930000Y-123360000D03*
%TO.P,Y1,4,VDD*%
%TO.N,+3.3V*%
X104390000Y-123360000D03*
%TD*%
D21*
%TO.P,H4,1,1*%
%TO.N,GND*%
X88000000Y-133750000D03*
%TD*%
%TO.P,H2,1,1*%
%TO.N,GND*%
X125250000Y-114750000D03*
%TD*%
D27*
%TO.P,TP4,1,1*%
%TO.N,GND*%
X102000000Y-119250000D03*
%TD*%
D37*
%TO.P,R7,1*%
%TO.N,GND*%
X118874000Y-118618000D03*
%TO.P,R7,2*%
%TO.N,Net-(U2-BOOT0)*%
X117854000Y-118618000D03*
%TD*%
D17*
%TO.P,C8,1*%
%TO.N,+3.3V*%
X120144734Y-130631778D03*
%TO.P,C8,2*%
%TO.N,GND*%
X118594734Y-130631778D03*
%TD*%
D38*
%TO.N,GND*%
X111650000Y-135250000D03*
X118450000Y-135250000D03*
X108250000Y-135250000D03*
X126540000Y-120880000D03*
X97950000Y-123830000D03*
X122770000Y-125980000D03*
X114340000Y-113650000D03*
X109460000Y-115030000D03*
X117490000Y-130110000D03*
X123010000Y-116750000D03*
X118874000Y-118618000D03*
X109820000Y-133760000D03*
X105970000Y-115150000D03*
X126540000Y-124280000D03*
X113970000Y-130220000D03*
X87880000Y-117340000D03*
X94090000Y-125010000D03*
X96420000Y-133320000D03*
X110040000Y-129800000D03*
X101450000Y-135250000D03*
X115140000Y-118950000D03*
X111510000Y-121460000D03*
X126540000Y-117480000D03*
X104850000Y-135250000D03*
X117700000Y-113480000D03*
X123110000Y-123760000D03*
X99180000Y-114910000D03*
X122870000Y-131900000D03*
X102490000Y-114910000D03*
X110150000Y-126320000D03*
X109120000Y-125570000D03*
X93030000Y-119590000D03*
X104140000Y-113650000D03*
X98050000Y-135250000D03*
X107140000Y-120810000D03*
X99880000Y-133430000D03*
X114270000Y-125110000D03*
X93940000Y-113650000D03*
X86500000Y-131530000D03*
X103430000Y-127460000D03*
X93020000Y-133500000D03*
X126540000Y-131080000D03*
X113640000Y-119790000D03*
X97340000Y-113650000D03*
X90530000Y-113780000D03*
X107540000Y-113650000D03*
X119960000Y-122200000D03*
X119400000Y-127520000D03*
X91250000Y-135250000D03*
X110940000Y-113650000D03*
X126540000Y-127680000D03*
X92540000Y-114620000D03*
X103140000Y-133560000D03*
X113840000Y-135230000D03*
X112650000Y-114330000D03*
X100740000Y-113650000D03*
X121850000Y-135250000D03*
X94650000Y-135250000D03*
X96020000Y-114780000D03*
X114910000Y-121640000D03*
X121140000Y-113650000D03*
X106710000Y-133770000D03*
X120190000Y-134340000D03*
%TO.N,Clock_Out*%
X108080000Y-122800000D03*
X107610000Y-119360000D03*
%TO.N,SWCLK*%
X122506528Y-124498568D03*
X120610215Y-120475467D03*
%TO.N,SPI_dc_master*%
X112740000Y-128450000D03*
X114417817Y-126399287D03*
%TO.N,SPI_sck_master*%
X117140000Y-131050000D03*
X115472500Y-129850000D03*
%TO.N,Net-(U2-BOOT0)*%
X117854000Y-118618000D03*
X116272500Y-119102221D03*
%TO.N,Net-(U2-PB2)*%
X117870000Y-127200000D03*
X112181791Y-130048000D03*
X112280000Y-129210000D03*
%TO.N,+5V*%
X100655139Y-125534861D03*
X102000000Y-123030000D03*
%TD*%
D39*
%TO.N,GND*%
X114872500Y-120297500D02*
X114872500Y-121602500D01*
X91695190Y-121710000D02*
X91297500Y-121710000D01*
X119372500Y-127547500D02*
X119400000Y-127520000D01*
X121275000Y-122200000D02*
X121285000Y-122210000D01*
D40*
X118011778Y-130631778D02*
X117490000Y-130110000D01*
D39*
X119372500Y-128622500D02*
X119372500Y-127547500D01*
X115095000Y-118950000D02*
X114872500Y-119172500D01*
X94377027Y-125862027D02*
X94855000Y-126340000D01*
X112960000Y-125210000D02*
X114170000Y-125210000D01*
D41*
X92935342Y-122950152D02*
X91695190Y-121710000D01*
D39*
X114872500Y-121602500D02*
X114910000Y-121640000D01*
X115140000Y-118950000D02*
X115095000Y-118950000D01*
X119960000Y-122200000D02*
X121275000Y-122200000D01*
D40*
X118594734Y-130631778D02*
X118011778Y-130631778D01*
D41*
X93061963Y-125862027D02*
X94377027Y-125862027D01*
D39*
X114872500Y-119172500D02*
X114872500Y-120297500D01*
X114170000Y-125210000D02*
X114270000Y-125110000D01*
D40*
%TO.N,+3.3V*%
X113138824Y-121010000D02*
X113660000Y-120488824D01*
X115340000Y-132650000D02*
X115340000Y-133430000D01*
X101883264Y-125702324D02*
X102025588Y-125560000D01*
X105140000Y-121250000D02*
X104000000Y-121250000D01*
X113050000Y-120989207D02*
X112549617Y-120488824D01*
X122589314Y-121459000D02*
X121435000Y-121459000D01*
X113050000Y-121609000D02*
X112960000Y-121609000D01*
X105720000Y-122030000D02*
X105720000Y-121830000D01*
X122889625Y-121609686D02*
X122740000Y-121609686D01*
X119690000Y-131660000D02*
X119690000Y-132300000D01*
X104390000Y-123360000D02*
X104501231Y-123360000D01*
X121435000Y-121459000D02*
X121768092Y-121125908D01*
X113660000Y-120488824D02*
X114080176Y-120488824D01*
X100185000Y-129375000D02*
X104285000Y-129375000D01*
X104630000Y-129030000D02*
X104285000Y-129375000D01*
X105540000Y-122210000D02*
X104390000Y-123360000D01*
X124714000Y-125920000D02*
X124122292Y-125920000D01*
X100830940Y-124650000D02*
X101883264Y-125702324D01*
X104390000Y-123360000D02*
X104390000Y-125560000D01*
X98025000Y-125165000D02*
X98045000Y-125145000D01*
X120380000Y-130396512D02*
X120144734Y-130631778D01*
X113050000Y-121010000D02*
X113138824Y-121010000D01*
X106000000Y-121525000D02*
X109190891Y-121525000D01*
X97155000Y-126340000D02*
X97155000Y-124450000D01*
X98540000Y-124650000D02*
X98045000Y-125145000D01*
X114525000Y-117000000D02*
X114525000Y-116706204D01*
X117630000Y-134650000D02*
X119340000Y-132940000D01*
X116560000Y-134650000D02*
X116640867Y-134650000D01*
X121386000Y-121609000D02*
X121285000Y-121609000D01*
X120144734Y-131205266D02*
X119690000Y-131660000D01*
X97475000Y-125165000D02*
X98025000Y-125165000D01*
X106000000Y-121525000D02*
X105775000Y-121525000D01*
X119340000Y-132940000D02*
X119340000Y-132650000D01*
D39*
X111144607Y-126225000D02*
X111659607Y-125710000D01*
D40*
X104390000Y-125560000D02*
X104720000Y-125890000D01*
X114552000Y-118110000D02*
X114271500Y-118390500D01*
X97155000Y-124450000D02*
X97155000Y-124845000D01*
X120064048Y-129000548D02*
X119973500Y-128910000D01*
X113050000Y-120488824D02*
X113660000Y-120488824D01*
X120380000Y-129920000D02*
X120380000Y-130396512D01*
X97155000Y-124845000D02*
X97475000Y-125165000D01*
D39*
X121768092Y-121226908D02*
X121285000Y-121710000D01*
D40*
X105720000Y-121830000D02*
X105540000Y-121650000D01*
X113050000Y-120488824D02*
X113050000Y-121010000D01*
X104720000Y-127470000D02*
X104885000Y-127635000D01*
X112549617Y-120488824D02*
X113050000Y-120488824D01*
X121041744Y-129000548D02*
X120064048Y-129000548D01*
X102025588Y-125560000D02*
X104390000Y-125560000D01*
X114750000Y-116481204D02*
X114750000Y-115760000D01*
X121435000Y-121560000D02*
X121386000Y-121609000D01*
X114552000Y-117060324D02*
X114552000Y-118110000D01*
X122740000Y-121609686D02*
X122589314Y-121459000D01*
X119690000Y-132300000D02*
X119340000Y-132650000D01*
D39*
X111659607Y-125710000D02*
X112960000Y-125710000D01*
X122889625Y-121609686D02*
X121385314Y-121609686D01*
D40*
X98540000Y-124650000D02*
X100830940Y-124650000D01*
X105775000Y-121525000D02*
X105500000Y-121250000D01*
X113050000Y-121010000D02*
X113050000Y-120989207D01*
D39*
X121768092Y-120451165D02*
X121768092Y-121226908D01*
D40*
X114271500Y-118390500D02*
X114271500Y-120297500D01*
X114525000Y-116706204D02*
X114750000Y-116481204D01*
X105540000Y-121650000D02*
X105540000Y-122210000D01*
X121041744Y-129000548D02*
X121041744Y-129258256D01*
X110227067Y-120488824D02*
X112549617Y-120488824D01*
X121041744Y-129258256D02*
X120380000Y-129920000D01*
X116640867Y-134650000D02*
X117630000Y-134650000D01*
X115930324Y-115682000D02*
X114828000Y-115682000D01*
D39*
X121385314Y-121609686D02*
X121285000Y-121710000D01*
D40*
X106000000Y-121750000D02*
X105720000Y-122030000D01*
X124122292Y-125920000D02*
X121041744Y-129000548D01*
X97155000Y-124450000D02*
X97155000Y-120040000D01*
X105540000Y-121650000D02*
X105140000Y-121250000D01*
X121435000Y-121459000D02*
X121435000Y-121560000D01*
X104885000Y-127635000D02*
X104630000Y-127890000D01*
X121768092Y-121125908D02*
X121768092Y-120451165D01*
X113050000Y-121010000D02*
X113050000Y-121609000D01*
X115340000Y-133430000D02*
X116560000Y-134650000D01*
X114080176Y-120488824D02*
X114271500Y-120297500D01*
X97155000Y-126035000D02*
X97155000Y-126340000D01*
X114828000Y-115682000D02*
X114750000Y-115760000D01*
X98045000Y-125145000D02*
X97155000Y-126035000D01*
X104720000Y-125890000D02*
X104720000Y-127470000D01*
X106000000Y-121525000D02*
X106000000Y-121750000D01*
X120144734Y-130631778D02*
X120144734Y-131205266D01*
X105720000Y-122030000D02*
X105540000Y-122210000D01*
X109190891Y-121525000D02*
X110227067Y-120488824D01*
X104630000Y-127890000D02*
X104630000Y-129030000D01*
X105500000Y-121250000D02*
X105140000Y-121250000D01*
D39*
%TO.N,Net-(U2-NRST)*%
X109311185Y-126321185D02*
X109786185Y-125846185D01*
X110922371Y-124710000D02*
X112960000Y-124710000D01*
X108220655Y-127574275D02*
X108220655Y-127411716D01*
X108220655Y-127411716D02*
X109311185Y-126321185D01*
X109311185Y-126321185D02*
X109421184Y-126321185D01*
X109421184Y-126321185D02*
X109549999Y-126450000D01*
X109786185Y-125846185D02*
X110922371Y-124710000D01*
X109549999Y-127149998D02*
X109549999Y-126450000D01*
X109549999Y-126082371D02*
X109786185Y-125846185D01*
X104819930Y-130975000D02*
X108220655Y-127574275D01*
X109549999Y-126450000D02*
X109549999Y-126082371D01*
X104285000Y-130975000D02*
X104819930Y-130975000D01*
%TO.N,Clock_Out*%
X104000000Y-118865993D02*
X104000000Y-119250000D01*
X115930324Y-114732000D02*
X114758000Y-114732000D01*
X108080000Y-122800000D02*
X108080000Y-122910000D01*
X107610000Y-119360000D02*
X107120000Y-118870000D01*
X107520000Y-123360000D02*
X108080000Y-122800000D01*
X107120000Y-118870000D02*
X104004007Y-118870000D01*
X114758000Y-114732000D02*
X114750000Y-114740000D01*
X106930000Y-123360000D02*
X107520000Y-123360000D01*
X104004007Y-118870000D02*
X104000000Y-118865993D01*
%TO.N,Net-(J1-CC2)*%
X93013990Y-124890000D02*
X93061963Y-124842027D01*
X91297500Y-124960000D02*
X91367500Y-124890000D01*
X91367500Y-124890000D02*
X93013990Y-124890000D01*
%TO.N,Net-(J1-CC1)*%
X91305105Y-123967605D02*
X91297500Y-123960000D01*
X92941048Y-123967605D02*
X92710000Y-123967605D01*
X92710000Y-123967605D02*
X91305105Y-123967605D01*
X92710000Y-123967605D02*
X92932795Y-123967605D01*
X92932795Y-123967605D02*
X92935342Y-123970152D01*
%TO.N,SWDIO*%
X123853448Y-122629686D02*
X122889625Y-122629686D01*
X124143762Y-122920000D02*
X123853448Y-122629686D01*
X122809311Y-122710000D02*
X122889625Y-122629686D01*
X121285000Y-122710000D02*
X122809311Y-122710000D01*
X124714000Y-122920000D02*
X124143762Y-122920000D01*
%TO.N,SWCLK*%
X122927960Y-124920000D02*
X122506528Y-124498568D01*
X119872500Y-120297500D02*
X120031686Y-120456686D01*
X120031686Y-120456686D02*
X120591434Y-120456686D01*
X124714000Y-124920000D02*
X122927960Y-124920000D01*
X120610215Y-120475467D02*
X120610215Y-120275953D01*
X120591434Y-120456686D02*
X120610215Y-120475467D01*
%TO.N,SPI_dc_master*%
X114417817Y-126399287D02*
X114228530Y-126210000D01*
X112940000Y-130318340D02*
X112940000Y-128650000D01*
X112340000Y-132650000D02*
X112340000Y-130918340D01*
X114228530Y-126210000D02*
X112960000Y-126210000D01*
X112340000Y-130918340D02*
X112940000Y-130318340D01*
X112940000Y-128650000D02*
X112740000Y-128450000D01*
%TO.N,SPI_mosi_master*%
X116372500Y-128622500D02*
X116372500Y-132617500D01*
X116372500Y-132617500D02*
X116340000Y-132650000D01*
%TO.N,SPI_sck_master*%
X115472500Y-129850000D02*
X115372500Y-129750000D01*
X115372500Y-129750000D02*
X115372500Y-128622500D01*
X117340000Y-131250000D02*
X117140000Y-131050000D01*
X117340000Y-132650000D02*
X117340000Y-131250000D01*
%TO.N,SPI_cs_master*%
X114872500Y-128622500D02*
X114872500Y-130317500D01*
X114340000Y-130850000D02*
X114340000Y-132650000D01*
X114872500Y-130317500D02*
X114340000Y-130850000D01*
%TO.N,SPI_rst_master*%
X113340000Y-128250000D02*
X114140000Y-127450000D01*
X113880000Y-126710000D02*
X112960000Y-126710000D01*
X114140000Y-127450000D02*
X114140000Y-126970000D01*
X113340000Y-132650000D02*
X113340000Y-128250000D01*
X114140000Y-126970000D02*
X113880000Y-126710000D01*
%TO.N,Net-(U3-~{RESET})*%
X115530000Y-118068000D02*
X115572000Y-118110000D01*
X115930324Y-116632000D02*
X115530000Y-117032324D01*
X115530000Y-117032324D02*
X115530000Y-118068000D01*
%TO.N,I2C_sda_master*%
X119392000Y-116632000D02*
X120250000Y-117490000D01*
X118730324Y-116632000D02*
X119392000Y-116632000D01*
X116872500Y-120297500D02*
X116872500Y-117864450D01*
X116872500Y-117864450D02*
X117207019Y-117529931D01*
X117860069Y-117529931D02*
X118730324Y-116659676D01*
X118640000Y-116722324D02*
X118730324Y-116632000D01*
X118730324Y-116659676D02*
X118730324Y-116632000D01*
X117207019Y-117529931D02*
X117860069Y-117529931D01*
%TO.N,Net-(U2-BOOT0)*%
X116372500Y-120297500D02*
X116372500Y-119202221D01*
X116372500Y-119202221D02*
X116272500Y-119102221D01*
%TO.N,Net-(U2-PB2)*%
X117872500Y-127579443D02*
X117872500Y-128622500D01*
X112270000Y-130048000D02*
X112270000Y-129220000D01*
X117870000Y-127200000D02*
X117870000Y-127576943D01*
X112270000Y-129220000D02*
X112280000Y-129210000D01*
X117870000Y-127576943D02*
X117872500Y-127579443D01*
D40*
%TO.N,+5V*%
X100655139Y-125594861D02*
X99910000Y-126340000D01*
D39*
X98236865Y-128725000D02*
X98000000Y-128725000D01*
D40*
X98000000Y-128725000D02*
X95290000Y-128725000D01*
D39*
X95290000Y-128725000D02*
X95250000Y-128765000D01*
D41*
X99455000Y-126340000D02*
X99455000Y-127085000D01*
D39*
X91297500Y-125980000D02*
X91706729Y-125980000D01*
D41*
X98236865Y-128303135D02*
X98236865Y-128725000D01*
D40*
X93345000Y-128765000D02*
X95250000Y-128765000D01*
X100655139Y-125534861D02*
X100655139Y-125594861D01*
X102000000Y-123030000D02*
X102000000Y-121250000D01*
X91706729Y-125980000D02*
X93345000Y-127618271D01*
D39*
X99910000Y-126340000D02*
X99455000Y-126340000D01*
D40*
X99455000Y-127085000D02*
X98236865Y-128303135D01*
X93345000Y-127618271D02*
X93345000Y-128765000D01*
%TD*%
%TA.AperFunction,Conductor*%
%TO.N,GND*%
G36*
X127208691Y-113019407D02*
G01*
X127244655Y-113068907D01*
X127249500Y-113099500D01*
X127249500Y-135400500D01*
X127230593Y-135458691D01*
X127181093Y-135494655D01*
X127150500Y-135499500D01*
X117038892Y-135499500D01*
X116980701Y-135480593D01*
X116944737Y-135431093D01*
X116944737Y-135369907D01*
X116980701Y-135320407D01*
X116993946Y-135312291D01*
X117030648Y-135293589D01*
X117119087Y-135248528D01*
X117214395Y-135153220D01*
X117214398Y-135153215D01*
X117218977Y-135146914D01*
X117220354Y-135147915D01*
X117256981Y-135111290D01*
X117301925Y-135100500D01*
X117689309Y-135100500D01*
X117779669Y-135076287D01*
X117779672Y-135076287D01*
X117792903Y-135072741D01*
X117803887Y-135069799D01*
X117906614Y-135010489D01*
X119700489Y-133216614D01*
X119752049Y-133127308D01*
X119767776Y-133106813D01*
X119825858Y-133048733D01*
X119894311Y-132946286D01*
X119941463Y-132832452D01*
X119965500Y-132711606D01*
X119965500Y-132702610D01*
X119984407Y-132644419D01*
X119994498Y-132632605D01*
X120050486Y-132576618D01*
X120050486Y-132576617D01*
X120050490Y-132576614D01*
X120109799Y-132473887D01*
X120111498Y-132467549D01*
X120120757Y-132432990D01*
X120120757Y-132432989D01*
X120140500Y-132359309D01*
X120140500Y-131887610D01*
X120159407Y-131829419D01*
X120169490Y-131817612D01*
X120505223Y-131481880D01*
X120564533Y-131379153D01*
X120570384Y-131357314D01*
X120571021Y-131354938D01*
X120571021Y-131354935D01*
X120590862Y-131280890D01*
X120619075Y-131237446D01*
X120617444Y-131235815D01*
X120622951Y-131230307D01*
X120622954Y-131230306D01*
X120718262Y-131134998D01*
X120779453Y-131014904D01*
X120795234Y-130915266D01*
X120795234Y-130600467D01*
X120798607Y-130574844D01*
X120799798Y-130570398D01*
X120799799Y-130570398D01*
X120830500Y-130455821D01*
X120830500Y-130147611D01*
X120849407Y-130089420D01*
X120859496Y-130077607D01*
X121232059Y-129705044D01*
X121286576Y-129677267D01*
X121296370Y-129676496D01*
X121296359Y-129676353D01*
X121300231Y-129676048D01*
X121300232Y-129676048D01*
X121399870Y-129660267D01*
X121519964Y-129599076D01*
X121561275Y-129557764D01*
X121615789Y-129529988D01*
X121676221Y-129539559D01*
X121715537Y-129575796D01*
X121794170Y-129703277D01*
X121794170Y-129703278D01*
X121914014Y-129823122D01*
X122058256Y-129912093D01*
X122219140Y-129965404D01*
X122318420Y-129975547D01*
X122341744Y-129975546D01*
X122341744Y-129250549D01*
X122841744Y-129250549D01*
X122841744Y-129975546D01*
X122841745Y-129975547D01*
X122865066Y-129975547D01*
X122964341Y-129965405D01*
X122964353Y-129965402D01*
X123125231Y-129912093D01*
X123269473Y-129823122D01*
X123389318Y-129703277D01*
X123478289Y-129559035D01*
X123531600Y-129398151D01*
X123541744Y-129298871D01*
X123541744Y-129250549D01*
X123541743Y-129250548D01*
X122841745Y-129250548D01*
X122841744Y-129250549D01*
X122341744Y-129250549D01*
X122341744Y-129099548D01*
X122360651Y-129041357D01*
X122410151Y-129005393D01*
X122440744Y-129000548D01*
X122591743Y-129000548D01*
X122591744Y-129000547D01*
X122591744Y-128849548D01*
X122610651Y-128791357D01*
X122660151Y-128755393D01*
X122690744Y-128750548D01*
X123541742Y-128750548D01*
X123541743Y-128750547D01*
X123541743Y-128702225D01*
X123531601Y-128602950D01*
X123531598Y-128602938D01*
X123478289Y-128442060D01*
X123389318Y-128297818D01*
X123269473Y-128177973D01*
X123125231Y-128089002D01*
X122964347Y-128035691D01*
X122964348Y-128035691D01*
X122880682Y-128027143D01*
X122824715Y-128002419D01*
X122793968Y-127949520D01*
X122800188Y-127888651D01*
X122820736Y-127858658D01*
X124118937Y-126560457D01*
X124173452Y-126532682D01*
X124208255Y-126533366D01*
X124210767Y-126533865D01*
X124210769Y-126533867D01*
X124245600Y-126540795D01*
X124269244Y-126545499D01*
X124269250Y-126545499D01*
X124269252Y-126545500D01*
X124269253Y-126545500D01*
X125158747Y-126545500D01*
X125158748Y-126545500D01*
X125217231Y-126533867D01*
X125283552Y-126489552D01*
X125327867Y-126423231D01*
X125339500Y-126364748D01*
X125339500Y-125475252D01*
X125339447Y-125474988D01*
X125331514Y-125435105D01*
X125327867Y-125416769D01*
X125283552Y-125350448D01*
X125283548Y-125350445D01*
X125278127Y-125345024D01*
X125250350Y-125290507D01*
X125259921Y-125230075D01*
X125265812Y-125220025D01*
X125268311Y-125216286D01*
X125315463Y-125102452D01*
X125339500Y-124981606D01*
X125339500Y-124858394D01*
X125315463Y-124737548D01*
X125268311Y-124623714D01*
X125199858Y-124521267D01*
X125112733Y-124434142D01*
X125038015Y-124384217D01*
X125010285Y-124365688D01*
X124896450Y-124318536D01*
X124775608Y-124294500D01*
X124770769Y-124294024D01*
X124770884Y-124292852D01*
X124717763Y-124275593D01*
X124705950Y-124265504D01*
X124572386Y-124131940D01*
X124664272Y-124170000D01*
X124763728Y-124170000D01*
X124855614Y-124131940D01*
X124925940Y-124061614D01*
X124964000Y-123969728D01*
X124964000Y-123920000D01*
X125067554Y-123920000D01*
X125522501Y-124374947D01*
X125533726Y-124358149D01*
X125603452Y-124189814D01*
X125603452Y-124189812D01*
X125638999Y-124011107D01*
X125639000Y-124011103D01*
X125639000Y-123828896D01*
X125638999Y-123828892D01*
X125603452Y-123650187D01*
X125603452Y-123650185D01*
X125533727Y-123481853D01*
X125522501Y-123465052D01*
X125067554Y-123920000D01*
X124964000Y-123920000D01*
X124964000Y-123870272D01*
X124925940Y-123778386D01*
X124855614Y-123708060D01*
X124763728Y-123670000D01*
X124664272Y-123670000D01*
X124572386Y-123708060D01*
X124502060Y-123778386D01*
X124464000Y-123870272D01*
X124464000Y-123969728D01*
X124502060Y-124061614D01*
X124389443Y-123948997D01*
X123905496Y-123465051D01*
X123894277Y-123481842D01*
X123894275Y-123481846D01*
X123824547Y-123650185D01*
X123824547Y-123650187D01*
X123789000Y-123828892D01*
X123789000Y-124011107D01*
X123824547Y-124189812D01*
X123824547Y-124189814D01*
X123894272Y-124358147D01*
X123894278Y-124358158D01*
X123966002Y-124465498D01*
X123982611Y-124524386D01*
X123961434Y-124581790D01*
X123910561Y-124615783D01*
X123883687Y-124619500D01*
X123106028Y-124619500D01*
X123047837Y-124600593D01*
X123011873Y-124551093D01*
X123007028Y-124520500D01*
X123007028Y-124432677D01*
X123004520Y-124423316D01*
X122972920Y-124305382D01*
X122972918Y-124305379D01*
X122972918Y-124305377D01*
X122907031Y-124191258D01*
X122907029Y-124191256D01*
X122907028Y-124191254D01*
X122813842Y-124098068D01*
X122813839Y-124098066D01*
X122813837Y-124098064D01*
X122699717Y-124032177D01*
X122699719Y-124032177D01*
X122635608Y-124014999D01*
X122572420Y-123998068D01*
X122440636Y-123998068D01*
X122322568Y-124029703D01*
X122261468Y-124026501D01*
X122213919Y-123987996D01*
X122198083Y-123928896D01*
X122205484Y-123896189D01*
X122207009Y-123892502D01*
X122207015Y-123892495D01*
X122223000Y-123812133D01*
X122222999Y-123607868D01*
X122207015Y-123527505D01*
X122198659Y-123514999D01*
X122182051Y-123456114D01*
X122198659Y-123404999D01*
X122207015Y-123392495D01*
X122223000Y-123312133D01*
X122222999Y-123109499D01*
X122227844Y-123094588D01*
X122227844Y-123078907D01*
X122237061Y-123066220D01*
X122241906Y-123051310D01*
X122254589Y-123042094D01*
X122263808Y-123029407D01*
X122278722Y-123024561D01*
X122291406Y-123015346D01*
X122321999Y-123010500D01*
X122434963Y-123010500D01*
X122493154Y-123029407D01*
X122504960Y-123039490D01*
X122509221Y-123043751D01*
X122509222Y-123043751D01*
X122509223Y-123043752D01*
X122616449Y-123093753D01*
X122616450Y-123093753D01*
X122616452Y-123093754D01*
X122665309Y-123100186D01*
X122665310Y-123100186D01*
X123113939Y-123100186D01*
X123113941Y-123100186D01*
X123162798Y-123093754D01*
X123270029Y-123043751D01*
X123353690Y-122960090D01*
X123353690Y-122960088D01*
X123354597Y-122959182D01*
X123409114Y-122931405D01*
X123424601Y-122930186D01*
X123687969Y-122930186D01*
X123746160Y-122949093D01*
X123757973Y-122959182D01*
X123903302Y-123104511D01*
X123903301Y-123104511D01*
X123959251Y-123160460D01*
X124027769Y-123200019D01*
X124027773Y-123200021D01*
X124104197Y-123220499D01*
X124104199Y-123220500D01*
X124104200Y-123220500D01*
X124109588Y-123220500D01*
X124167779Y-123239407D01*
X124191904Y-123264499D01*
X124228141Y-123318732D01*
X124315258Y-123405850D01*
X124315262Y-123405853D01*
X124315267Y-123405858D01*
X124417714Y-123474311D01*
X124531548Y-123521463D01*
X124652394Y-123545500D01*
X124652396Y-123545500D01*
X124775604Y-123545500D01*
X124775606Y-123545500D01*
X124896452Y-123521463D01*
X125010286Y-123474311D01*
X125112733Y-123405858D01*
X125199858Y-123318733D01*
X125268311Y-123216286D01*
X125315463Y-123102452D01*
X125339500Y-122981606D01*
X125339500Y-122858394D01*
X125315463Y-122737548D01*
X125268311Y-122623714D01*
X125199858Y-122521267D01*
X125112733Y-122434142D01*
X125010286Y-122365689D01*
X125010287Y-122365689D01*
X125010285Y-122365688D01*
X124896450Y-122318536D01*
X124775608Y-122294500D01*
X124775606Y-122294500D01*
X124652394Y-122294500D01*
X124652391Y-122294500D01*
X124531549Y-122318536D01*
X124417714Y-122365688D01*
X124315267Y-122434142D01*
X124315263Y-122434145D01*
X124269075Y-122480334D01*
X124214558Y-122508111D01*
X124154126Y-122498540D01*
X124129068Y-122480334D01*
X124037958Y-122389225D01*
X123969440Y-122349666D01*
X123969436Y-122349664D01*
X123893012Y-122329186D01*
X123893010Y-122329186D01*
X123424601Y-122329186D01*
X123420137Y-122327735D01*
X123415562Y-122328772D01*
X123398031Y-122320553D01*
X123366410Y-122310279D01*
X123359341Y-122304631D01*
X123354001Y-122299950D01*
X123353690Y-122299282D01*
X123270029Y-122215621D01*
X123243909Y-122203441D01*
X123233289Y-122194131D01*
X123224512Y-122179386D01*
X123211962Y-122167683D01*
X123209253Y-122153750D01*
X123201994Y-122141554D01*
X123203561Y-122124464D01*
X123200287Y-122107622D01*
X123206284Y-122094758D01*
X123207581Y-122080625D01*
X123218891Y-122067722D01*
X123226144Y-122052169D01*
X123243719Y-122039399D01*
X123247914Y-122034615D01*
X123251388Y-122033828D01*
X123256709Y-122029961D01*
X123270029Y-122023751D01*
X123353690Y-121940090D01*
X123403693Y-121832859D01*
X123410125Y-121784002D01*
X123410125Y-121435370D01*
X123403693Y-121386513D01*
X123402006Y-121382896D01*
X123353691Y-121279284D01*
X123353690Y-121279283D01*
X123353690Y-121279282D01*
X123270029Y-121195621D01*
X123270027Y-121195620D01*
X123270026Y-121195619D01*
X123162800Y-121145618D01*
X123130226Y-121141330D01*
X123113941Y-121139186D01*
X123113940Y-121139186D01*
X122947610Y-121139186D01*
X122889419Y-121120279D01*
X122877612Y-121110195D01*
X122865928Y-121098511D01*
X122865925Y-121098509D01*
X122865923Y-121098507D01*
X122763204Y-121039202D01*
X122763200Y-121039200D01*
X122738987Y-121032712D01*
X122738987Y-121032713D01*
X122648623Y-121008500D01*
X122648621Y-121008500D01*
X122487862Y-121008500D01*
X122429671Y-120989593D01*
X122393707Y-120940093D01*
X122393707Y-120878907D01*
X122399653Y-120864554D01*
X122412163Y-120840001D01*
X122427811Y-120809291D01*
X122443592Y-120709653D01*
X122443592Y-120192677D01*
X122427811Y-120093039D01*
X122427808Y-120093034D01*
X122427808Y-120093032D01*
X122366621Y-119972947D01*
X122366620Y-119972945D01*
X122325307Y-119931632D01*
X122297532Y-119877118D01*
X122307103Y-119816686D01*
X122343340Y-119777370D01*
X122470824Y-119698736D01*
X122590666Y-119578894D01*
X122679637Y-119434652D01*
X122732948Y-119273768D01*
X122743092Y-119174488D01*
X122743092Y-119151166D01*
X122743091Y-119151165D01*
X120793094Y-119151165D01*
X120793093Y-119151166D01*
X120793093Y-119174487D01*
X120803234Y-119273762D01*
X120803237Y-119273774D01*
X120856546Y-119434652D01*
X120945517Y-119578894D01*
X121065361Y-119698738D01*
X121192843Y-119777371D01*
X121232444Y-119824012D01*
X121237067Y-119885022D01*
X121210874Y-119931634D01*
X121169565Y-119972943D01*
X121169564Y-119972945D01*
X121111916Y-120086084D01*
X121068651Y-120129348D01*
X121008219Y-120138919D01*
X120953705Y-120111143D01*
X120917529Y-120074967D01*
X120917526Y-120074965D01*
X120917524Y-120074963D01*
X120803404Y-120009076D01*
X120803406Y-120009076D01*
X120754014Y-119995842D01*
X120676107Y-119974967D01*
X120544323Y-119974967D01*
X120466415Y-119995842D01*
X120417024Y-120009076D01*
X120371499Y-120035361D01*
X120311651Y-120048083D01*
X120255755Y-120023196D01*
X120225162Y-119970208D01*
X120222999Y-119949625D01*
X120222999Y-119607870D01*
X120222998Y-119607863D01*
X120207015Y-119527505D01*
X120207014Y-119527503D01*
X120146126Y-119436379D01*
X120146124Y-119436376D01*
X120110848Y-119412805D01*
X120054997Y-119375486D01*
X120054996Y-119375485D01*
X120054995Y-119375485D01*
X119974633Y-119359500D01*
X119974632Y-119359500D01*
X119770370Y-119359500D01*
X119770362Y-119359501D01*
X119690005Y-119375484D01*
X119690001Y-119375486D01*
X119677499Y-119383840D01*
X119618611Y-119400447D01*
X119580557Y-119391199D01*
X119573743Y-119388012D01*
X119554995Y-119375485D01*
X119541013Y-119372703D01*
X119530144Y-119367620D01*
X119516123Y-119354515D01*
X119499385Y-119345140D01*
X119494307Y-119334124D01*
X119485444Y-119325840D01*
X119481804Y-119307000D01*
X119473772Y-119289574D01*
X119476139Y-119277675D01*
X119473839Y-119265765D01*
X119481968Y-119248384D01*
X119485713Y-119229565D01*
X119498945Y-119212084D01*
X119499761Y-119210342D01*
X119500627Y-119209862D01*
X119502085Y-119207938D01*
X119514739Y-119195284D01*
X119596404Y-119057196D01*
X119596404Y-119057195D01*
X119641174Y-118903099D01*
X119675565Y-118852494D01*
X119733133Y-118831768D01*
X119791889Y-118848838D01*
X119806241Y-118860710D01*
X119869596Y-118924065D01*
X119869597Y-118924065D01*
X119869598Y-118924066D01*
X119976824Y-118974067D01*
X119976825Y-118974067D01*
X119976827Y-118974068D01*
X120025684Y-118980500D01*
X120025685Y-118980500D01*
X120474314Y-118980500D01*
X120474316Y-118980500D01*
X120523173Y-118974068D01*
X120630404Y-118924065D01*
X120714065Y-118840404D01*
X120764068Y-118733173D01*
X120764068Y-118733170D01*
X120766187Y-118725902D01*
X120768603Y-118726606D01*
X120789878Y-118682013D01*
X120843651Y-118652821D01*
X120861685Y-118651165D01*
X121518091Y-118651165D01*
X121518092Y-118651164D01*
X121518092Y-117951166D01*
X122018092Y-117951166D01*
X122018092Y-118651164D01*
X122018093Y-118651165D01*
X122743090Y-118651165D01*
X122743091Y-118651164D01*
X122743091Y-118627842D01*
X122732949Y-118528567D01*
X122732945Y-118528550D01*
X122679637Y-118367677D01*
X122590666Y-118223435D01*
X122470821Y-118103590D01*
X122326579Y-118014619D01*
X122165695Y-117961308D01*
X122066415Y-117951165D01*
X122018093Y-117951165D01*
X122018092Y-117951166D01*
X121518092Y-117951166D01*
X121518092Y-117951164D01*
X121469771Y-117951165D01*
X121469768Y-117951166D01*
X121370494Y-117961307D01*
X121370482Y-117961310D01*
X121209604Y-118014619D01*
X121065362Y-118103590D01*
X120945519Y-118223433D01*
X120921741Y-118261983D01*
X120875099Y-118301583D01*
X120814088Y-118306206D01*
X120762013Y-118274084D01*
X120747759Y-118251853D01*
X120714065Y-118179596D01*
X120630404Y-118095935D01*
X120617085Y-118089724D01*
X120572337Y-118047997D01*
X120560662Y-117987936D01*
X120586519Y-117932483D01*
X120617084Y-117910275D01*
X120630404Y-117904065D01*
X120714065Y-117820404D01*
X120764068Y-117713173D01*
X120770500Y-117664316D01*
X120770500Y-117315684D01*
X120764068Y-117266827D01*
X120761627Y-117261593D01*
X120714066Y-117159598D01*
X120714065Y-117159597D01*
X120714065Y-117159596D01*
X120630404Y-117075935D01*
X120630402Y-117075934D01*
X120630401Y-117075933D01*
X120523175Y-117025932D01*
X120490601Y-117021644D01*
X120474316Y-117019500D01*
X120474315Y-117019500D01*
X120245479Y-117019500D01*
X120187288Y-117000593D01*
X120175475Y-116990504D01*
X119877058Y-116692087D01*
X119576511Y-116391540D01*
X119576508Y-116391538D01*
X119576507Y-116391537D01*
X119562226Y-116383292D01*
X119562221Y-116383290D01*
X119555925Y-116379655D01*
X119507989Y-116351979D01*
X119431562Y-116331500D01*
X119431376Y-116331500D01*
X119425676Y-116329244D01*
X119406283Y-116313204D01*
X119385173Y-116299495D01*
X119383063Y-116293999D01*
X119378528Y-116290248D01*
X119372266Y-116265870D01*
X119363247Y-116242373D01*
X119364770Y-116236687D01*
X119363306Y-116230986D01*
X119372568Y-116207583D01*
X119379083Y-116183273D01*
X119383569Y-116176925D01*
X119454424Y-116084585D01*
X119514879Y-115938632D01*
X119522335Y-115882000D01*
X118829324Y-115882000D01*
X118771133Y-115863093D01*
X118735169Y-115813593D01*
X118730324Y-115783000D01*
X118730324Y-115581000D01*
X118749231Y-115522809D01*
X118798731Y-115486845D01*
X118829324Y-115482000D01*
X119522335Y-115482000D01*
X119522335Y-115481999D01*
X119514880Y-115425372D01*
X119514878Y-115425364D01*
X119454424Y-115279414D01*
X119454422Y-115279410D01*
X119358253Y-115154080D01*
X119358243Y-115154070D01*
X119239477Y-115062938D01*
X119204821Y-115012514D01*
X119206422Y-114951349D01*
X119209174Y-114944419D01*
X119227909Y-114901991D01*
X119230824Y-114876865D01*
X119230823Y-114587136D01*
X119227909Y-114562009D01*
X119182530Y-114459235D01*
X119103089Y-114379794D01*
X119000315Y-114334415D01*
X119000314Y-114334414D01*
X119000312Y-114334414D01*
X118975192Y-114331500D01*
X118485463Y-114331500D01*
X118485460Y-114331501D01*
X118460333Y-114334414D01*
X118353043Y-114381788D01*
X118292173Y-114387996D01*
X118239280Y-114357240D01*
X118230747Y-114346235D01*
X118224876Y-114337448D01*
X118220337Y-114334415D01*
X118158557Y-114293134D01*
X118158555Y-114293133D01*
X118158552Y-114293132D01*
X118158551Y-114293132D01*
X118100082Y-114281501D01*
X118100072Y-114281500D01*
X116560576Y-114281500D01*
X116560575Y-114281500D01*
X116560565Y-114281501D01*
X116502096Y-114293132D01*
X116502090Y-114293134D01*
X116435775Y-114337445D01*
X116435768Y-114337452D01*
X116429906Y-114346226D01*
X116381856Y-114384105D01*
X116320718Y-114386506D01*
X116307604Y-114381788D01*
X116303089Y-114379794D01*
X116200315Y-114334415D01*
X116200314Y-114334414D01*
X116200312Y-114334414D01*
X116175192Y-114331500D01*
X115685463Y-114331500D01*
X115685460Y-114331501D01*
X115660333Y-114334414D01*
X115557557Y-114379795D01*
X115534847Y-114402505D01*
X115527731Y-114406130D01*
X115523036Y-114412593D01*
X115500983Y-114419758D01*
X115480330Y-114430281D01*
X115464845Y-114431500D01*
X115276976Y-114431500D01*
X115218785Y-114412593D01*
X115206978Y-114402509D01*
X115130404Y-114325935D01*
X115130402Y-114325934D01*
X115130401Y-114325933D01*
X115023175Y-114275932D01*
X114990601Y-114271644D01*
X114974316Y-114269500D01*
X114525684Y-114269500D01*
X114509398Y-114271644D01*
X114476825Y-114275932D01*
X114476824Y-114275932D01*
X114369598Y-114325933D01*
X114285933Y-114409598D01*
X114235932Y-114516824D01*
X114235932Y-114516825D01*
X114229500Y-114565685D01*
X114229500Y-114914314D01*
X114235932Y-114963174D01*
X114235932Y-114963175D01*
X114285933Y-115070401D01*
X114285934Y-115070402D01*
X114285935Y-115070404D01*
X114369596Y-115154065D01*
X114369597Y-115154065D01*
X114369598Y-115154066D01*
X114382915Y-115160276D01*
X114427663Y-115202005D01*
X114439337Y-115262066D01*
X114413478Y-115317518D01*
X114382915Y-115339724D01*
X114369598Y-115345933D01*
X114285933Y-115429598D01*
X114235932Y-115536824D01*
X114235932Y-115536825D01*
X114229500Y-115585685D01*
X114229500Y-115934314D01*
X114235932Y-115983174D01*
X114235932Y-115983175D01*
X114289595Y-116098254D01*
X114286479Y-116099706D01*
X114299500Y-116140991D01*
X114299500Y-116234721D01*
X114280593Y-116292912D01*
X114231093Y-116328876D01*
X114215988Y-116332502D01*
X114166874Y-116340281D01*
X114166867Y-116340283D01*
X114046782Y-116401470D01*
X114046778Y-116401473D01*
X114005469Y-116442782D01*
X113950952Y-116470559D01*
X113890520Y-116460987D01*
X113851206Y-116424751D01*
X113772573Y-116297269D01*
X113652729Y-116177425D01*
X113508487Y-116088454D01*
X113347603Y-116035143D01*
X113248323Y-116025000D01*
X113225001Y-116025000D01*
X113225000Y-116025001D01*
X113225000Y-116901000D01*
X113206093Y-116959191D01*
X113156593Y-116995155D01*
X113126000Y-117000000D01*
X112975001Y-117000000D01*
X112975000Y-117000001D01*
X112975000Y-117151000D01*
X112956093Y-117209191D01*
X112906593Y-117245155D01*
X112876000Y-117250000D01*
X112025002Y-117250000D01*
X112025001Y-117250001D01*
X112025001Y-117298322D01*
X112035142Y-117397597D01*
X112035145Y-117397609D01*
X112088454Y-117558487D01*
X112177425Y-117702729D01*
X112296532Y-117821836D01*
X112324309Y-117876353D01*
X112314738Y-117936785D01*
X112271473Y-117980050D01*
X112236590Y-117990327D01*
X112152018Y-117998967D01*
X112152007Y-117998969D01*
X111991129Y-118052278D01*
X111846887Y-118141249D01*
X111727042Y-118261094D01*
X111638071Y-118405336D01*
X111584760Y-118566220D01*
X111574617Y-118665500D01*
X111574617Y-118688823D01*
X111574618Y-118688824D01*
X113524615Y-118688824D01*
X113524616Y-118688823D01*
X113524616Y-118665501D01*
X113514474Y-118566226D01*
X113514471Y-118566214D01*
X113461162Y-118405336D01*
X113372191Y-118261094D01*
X113248450Y-118137353D01*
X113220673Y-118082836D01*
X113230244Y-118022404D01*
X113273509Y-117979139D01*
X113308393Y-117968862D01*
X113347598Y-117964857D01*
X113347609Y-117964854D01*
X113508487Y-117911545D01*
X113652729Y-117822574D01*
X113772571Y-117702732D01*
X113851205Y-117575248D01*
X113869566Y-117559657D01*
X113885610Y-117541691D01*
X113892484Y-117540199D01*
X113897847Y-117535647D01*
X113921864Y-117533827D01*
X113945405Y-117528721D01*
X113951443Y-117531585D01*
X113958857Y-117531024D01*
X114001404Y-117553375D01*
X114003486Y-117555234D01*
X114046780Y-117598528D01*
X114058873Y-117604690D01*
X114068438Y-117613230D01*
X114077700Y-117629119D01*
X114090705Y-117642122D01*
X114094506Y-117657951D01*
X114099250Y-117666090D01*
X114098424Y-117674269D01*
X114101500Y-117687076D01*
X114101500Y-117785781D01*
X114092226Y-117827618D01*
X114087933Y-117836823D01*
X114087933Y-117836824D01*
X114087932Y-117836827D01*
X114082729Y-117876353D01*
X114081500Y-117885685D01*
X114081500Y-117902389D01*
X114062593Y-117960580D01*
X114052504Y-117972392D01*
X113911011Y-118113885D01*
X113911007Y-118113890D01*
X113851702Y-118216609D01*
X113851701Y-118216610D01*
X113849188Y-118225987D01*
X113849189Y-118225988D01*
X113828934Y-118301583D01*
X113821000Y-118331192D01*
X113821000Y-119939324D01*
X113802093Y-119997515D01*
X113752593Y-120033479D01*
X113722000Y-120038324D01*
X113216872Y-120038324D01*
X113209274Y-120035855D01*
X113201385Y-120037105D01*
X113180729Y-120026580D01*
X113158681Y-120019417D01*
X113146874Y-120009333D01*
X113106832Y-119969291D01*
X113079057Y-119914777D01*
X113088628Y-119854345D01*
X113088629Y-119854344D01*
X113124865Y-119815029D01*
X113252349Y-119736395D01*
X113372191Y-119616553D01*
X113461162Y-119472311D01*
X113514473Y-119311427D01*
X113524617Y-119212147D01*
X113524617Y-119188825D01*
X113524616Y-119188824D01*
X111574619Y-119188824D01*
X111574618Y-119188825D01*
X111574618Y-119212146D01*
X111584759Y-119311421D01*
X111584762Y-119311433D01*
X111638071Y-119472311D01*
X111727042Y-119616553D01*
X111846886Y-119736397D01*
X111974368Y-119815030D01*
X111991684Y-119835425D01*
X112010604Y-119854344D01*
X112011258Y-119858479D01*
X112013969Y-119861671D01*
X112015990Y-119888353D01*
X112020176Y-119914776D01*
X112018275Y-119918505D01*
X112018592Y-119922681D01*
X111992399Y-119969293D01*
X111952366Y-120009327D01*
X111897850Y-120037105D01*
X111882362Y-120038324D01*
X110167758Y-120038324D01*
X110131337Y-120048083D01*
X110077392Y-120062537D01*
X110077391Y-120062536D01*
X110053179Y-120069025D01*
X110053176Y-120069026D01*
X109950457Y-120128331D01*
X109033284Y-121045504D01*
X108978767Y-121073281D01*
X108963280Y-121074500D01*
X106667255Y-121074500D01*
X106659657Y-121072031D01*
X106651768Y-121073281D01*
X106631112Y-121062756D01*
X106609064Y-121055593D01*
X106597257Y-121045509D01*
X106557215Y-121005467D01*
X106529440Y-120950953D01*
X106539011Y-120890521D01*
X106575248Y-120851205D01*
X106702732Y-120772571D01*
X106822574Y-120652729D01*
X106911545Y-120508487D01*
X106964856Y-120347603D01*
X106975000Y-120248323D01*
X106975000Y-120225001D01*
X106974999Y-120225000D01*
X105025002Y-120225000D01*
X105025001Y-120225001D01*
X105025001Y-120248322D01*
X105035142Y-120347597D01*
X105035145Y-120347609D01*
X105088454Y-120508487D01*
X105174834Y-120648527D01*
X105189291Y-120707979D01*
X105166042Y-120764575D01*
X105113966Y-120796697D01*
X105090574Y-120799500D01*
X104795522Y-120799500D01*
X104737331Y-120780593D01*
X104701367Y-120731093D01*
X104698425Y-120719816D01*
X104692806Y-120691576D01*
X104688867Y-120671769D01*
X104644552Y-120605448D01*
X104644548Y-120605445D01*
X104578233Y-120561134D01*
X104578231Y-120561133D01*
X104578228Y-120561132D01*
X104578227Y-120561132D01*
X104519758Y-120549501D01*
X104519748Y-120549500D01*
X103480252Y-120549500D01*
X103480251Y-120549500D01*
X103480241Y-120549501D01*
X103421772Y-120561132D01*
X103421766Y-120561134D01*
X103355451Y-120605445D01*
X103355445Y-120605451D01*
X103311134Y-120671766D01*
X103311132Y-120671772D01*
X103299501Y-120730241D01*
X103299500Y-120730253D01*
X103299500Y-121769746D01*
X103299501Y-121769758D01*
X103311132Y-121828227D01*
X103311134Y-121828233D01*
X103355445Y-121894548D01*
X103355448Y-121894552D01*
X103421769Y-121938867D01*
X103466231Y-121947711D01*
X103480241Y-121950498D01*
X103480246Y-121950498D01*
X103480252Y-121950500D01*
X103480253Y-121950500D01*
X104519747Y-121950500D01*
X104519748Y-121950500D01*
X104578231Y-121938867D01*
X104644552Y-121894552D01*
X104688867Y-121828231D01*
X104697665Y-121784002D01*
X104698425Y-121780184D01*
X104701367Y-121774930D01*
X104701367Y-121768907D01*
X104716088Y-121748644D01*
X104728322Y-121726801D01*
X104733790Y-121724280D01*
X104737331Y-121719407D01*
X104761149Y-121711668D01*
X104783888Y-121701186D01*
X104795522Y-121700500D01*
X104912389Y-121700500D01*
X104970580Y-121719407D01*
X104982393Y-121729496D01*
X105060504Y-121807607D01*
X105088281Y-121862124D01*
X105089500Y-121877611D01*
X105089500Y-121982388D01*
X105070593Y-122040579D01*
X105060504Y-122052391D01*
X104582393Y-122530503D01*
X104527876Y-122558281D01*
X104512389Y-122559500D01*
X103885725Y-122559500D01*
X103855305Y-122562353D01*
X103855296Y-122562355D01*
X103727116Y-122607207D01*
X103617855Y-122687845D01*
X103617845Y-122687855D01*
X103537207Y-122797116D01*
X103492355Y-122925296D01*
X103492353Y-122925305D01*
X103489500Y-122955725D01*
X103489500Y-123764274D01*
X103492353Y-123794694D01*
X103492355Y-123794703D01*
X103537207Y-123922883D01*
X103617845Y-124032144D01*
X103617847Y-124032146D01*
X103617850Y-124032150D01*
X103617853Y-124032152D01*
X103617855Y-124032154D01*
X103727116Y-124112792D01*
X103727117Y-124112792D01*
X103727118Y-124112793D01*
X103855301Y-124157646D01*
X103855308Y-124157646D01*
X103861185Y-124158931D01*
X103860556Y-124161806D01*
X103905871Y-124181344D01*
X103937087Y-124233967D01*
X103939500Y-124255692D01*
X103939500Y-124664307D01*
X103920593Y-124722498D01*
X103871093Y-124758462D01*
X103861069Y-124760542D01*
X103861185Y-124761069D01*
X103855296Y-124762355D01*
X103727116Y-124807207D01*
X103617855Y-124887845D01*
X103617845Y-124887855D01*
X103537208Y-124997114D01*
X103532524Y-125010500D01*
X103521082Y-125043198D01*
X103484018Y-125091878D01*
X103427639Y-125109500D01*
X102372382Y-125109500D01*
X102327437Y-125098710D01*
X102305420Y-125087492D01*
X102266390Y-125067605D01*
X102241480Y-125063659D01*
X102166755Y-125051824D01*
X102166752Y-125051824D01*
X101910875Y-125051824D01*
X101852684Y-125032917D01*
X101840871Y-125022828D01*
X101476440Y-124658397D01*
X101107554Y-124289511D01*
X101107551Y-124289509D01*
X101107550Y-124289508D01*
X101107549Y-124289507D01*
X101004830Y-124230202D01*
X101004826Y-124230200D01*
X100980613Y-124223712D01*
X100980613Y-124223713D01*
X100890249Y-124199500D01*
X98480691Y-124199500D01*
X98435508Y-124211606D01*
X98390325Y-124223713D01*
X98390324Y-124223712D01*
X98366115Y-124230200D01*
X98366113Y-124230200D01*
X98366113Y-124230201D01*
X98263390Y-124289508D01*
X98263383Y-124289512D01*
X97867394Y-124685503D01*
X97860277Y-124689129D01*
X97855581Y-124695593D01*
X97833530Y-124702757D01*
X97812877Y-124713281D01*
X97797390Y-124714500D01*
X97704500Y-124714500D01*
X97646309Y-124695593D01*
X97610345Y-124646093D01*
X97605500Y-124615500D01*
X97605500Y-121339500D01*
X97624407Y-121281309D01*
X97673907Y-121245345D01*
X97704500Y-121240500D01*
X98611611Y-121240500D01*
X98611616Y-121240500D01*
X98682196Y-121234086D01*
X98844606Y-121183478D01*
X98990185Y-121095472D01*
X99110472Y-120975185D01*
X99198478Y-120829606D01*
X99229437Y-120730253D01*
X101299500Y-120730253D01*
X101299500Y-121769746D01*
X101299501Y-121769758D01*
X101311132Y-121828227D01*
X101311134Y-121828233D01*
X101355445Y-121894548D01*
X101355448Y-121894552D01*
X101421769Y-121938867D01*
X101469816Y-121948424D01*
X101523198Y-121978320D01*
X101548814Y-122033885D01*
X101549500Y-122045521D01*
X101549500Y-122782761D01*
X101536238Y-122832259D01*
X101533608Y-122836813D01*
X101527826Y-122858394D01*
X101499500Y-122964108D01*
X101499500Y-123095892D01*
X101527401Y-123200021D01*
X101533609Y-123223190D01*
X101599496Y-123337309D01*
X101599498Y-123337311D01*
X101599500Y-123337314D01*
X101692686Y-123430500D01*
X101692688Y-123430501D01*
X101692690Y-123430503D01*
X101806810Y-123496390D01*
X101806808Y-123496390D01*
X101806812Y-123496391D01*
X101806814Y-123496392D01*
X101934108Y-123530500D01*
X101934110Y-123530500D01*
X102065890Y-123530500D01*
X102065892Y-123530500D01*
X102193186Y-123496392D01*
X102193188Y-123496390D01*
X102193190Y-123496390D01*
X102307309Y-123430503D01*
X102307309Y-123430502D01*
X102307314Y-123430500D01*
X102400500Y-123337314D01*
X102442540Y-123264499D01*
X102466390Y-123223190D01*
X102466390Y-123223188D01*
X102466392Y-123223186D01*
X102500500Y-123095892D01*
X102500500Y-122964108D01*
X102466392Y-122836814D01*
X102463761Y-122832258D01*
X102450500Y-122782761D01*
X102450500Y-122045521D01*
X102469407Y-121987330D01*
X102518907Y-121951366D01*
X102530173Y-121948426D01*
X102578231Y-121938867D01*
X102644552Y-121894552D01*
X102688867Y-121828231D01*
X102700500Y-121769748D01*
X102700500Y-120730252D01*
X102688867Y-120671769D01*
X102644552Y-120605448D01*
X102644548Y-120605445D01*
X102578233Y-120561134D01*
X102578231Y-120561133D01*
X102578228Y-120561132D01*
X102578227Y-120561132D01*
X102519758Y-120549501D01*
X102519748Y-120549500D01*
X101480252Y-120549500D01*
X101480251Y-120549500D01*
X101480241Y-120549501D01*
X101421772Y-120561132D01*
X101421766Y-120561134D01*
X101355451Y-120605445D01*
X101355445Y-120605451D01*
X101311134Y-120671766D01*
X101311132Y-120671772D01*
X101299501Y-120730241D01*
X101299500Y-120730253D01*
X99229437Y-120730253D01*
X99249086Y-120667196D01*
X99255500Y-120596616D01*
X99255500Y-119797824D01*
X100999999Y-119797824D01*
X101006401Y-119857370D01*
X101006403Y-119857381D01*
X101056646Y-119992088D01*
X101056647Y-119992090D01*
X101142807Y-120107184D01*
X101142815Y-120107192D01*
X101257909Y-120193352D01*
X101257911Y-120193353D01*
X101392618Y-120243596D01*
X101392629Y-120243598D01*
X101452176Y-120250000D01*
X101749999Y-120250000D01*
X101750000Y-120249999D01*
X101750000Y-119500001D01*
X102250000Y-119500001D01*
X102250000Y-120249999D01*
X102250001Y-120250000D01*
X102547824Y-120250000D01*
X102607370Y-120243598D01*
X102607381Y-120243596D01*
X102742088Y-120193353D01*
X102742090Y-120193352D01*
X102857184Y-120107192D01*
X102857192Y-120107184D01*
X102943352Y-119992090D01*
X102943353Y-119992088D01*
X102993596Y-119857381D01*
X102993598Y-119857370D01*
X103000000Y-119797824D01*
X103000000Y-119500001D01*
X102999999Y-119500000D01*
X102250001Y-119500000D01*
X102250000Y-119500001D01*
X101750000Y-119500001D01*
X101749999Y-119500000D01*
X101000001Y-119500000D01*
X101000000Y-119500001D01*
X101000000Y-119797824D01*
X100999999Y-119797824D01*
X99255500Y-119797824D01*
X99255500Y-119483384D01*
X99251228Y-119436379D01*
X99249086Y-119412805D01*
X99242353Y-119391199D01*
X99198478Y-119250394D01*
X99192893Y-119241156D01*
X99147949Y-119166809D01*
X99110472Y-119104815D01*
X98990185Y-118984528D01*
X98948777Y-118959496D01*
X98844607Y-118896522D01*
X98844605Y-118896521D01*
X98682194Y-118845913D01*
X98611620Y-118839500D01*
X98611616Y-118839500D01*
X95698384Y-118839500D01*
X95698379Y-118839500D01*
X95627805Y-118845913D01*
X95465394Y-118896521D01*
X95465392Y-118896522D01*
X95319816Y-118984527D01*
X95199527Y-119104816D01*
X95111522Y-119250392D01*
X95111521Y-119250394D01*
X95060913Y-119412805D01*
X95054500Y-119483379D01*
X95054500Y-120596620D01*
X95060913Y-120667194D01*
X95111521Y-120829605D01*
X95111522Y-120829607D01*
X95156569Y-120904122D01*
X95199528Y-120975185D01*
X95319815Y-121095472D01*
X95402766Y-121145618D01*
X95463587Y-121182386D01*
X95465394Y-121183478D01*
X95627804Y-121234086D01*
X95698384Y-121240500D01*
X96605500Y-121240500D01*
X96663691Y-121259407D01*
X96699655Y-121308907D01*
X96704500Y-121339500D01*
X96704500Y-125058322D01*
X96685593Y-125116513D01*
X96636093Y-125152477D01*
X96631127Y-125153948D01*
X96629763Y-125154313D01*
X96489768Y-125212301D01*
X96369551Y-125304547D01*
X96369547Y-125304551D01*
X96277301Y-125424767D01*
X96256200Y-125475710D01*
X96216462Y-125522235D01*
X96156967Y-125536518D01*
X96100440Y-125513102D01*
X96068662Y-125461715D01*
X96056169Y-125411478D01*
X95971608Y-125240976D01*
X95971606Y-125240973D01*
X95852368Y-125092635D01*
X95852364Y-125092631D01*
X95704026Y-124973393D01*
X95704023Y-124973391D01*
X95533522Y-124888831D01*
X95348821Y-124842897D01*
X95306115Y-124840000D01*
X95105001Y-124840000D01*
X95105000Y-124840001D01*
X95105000Y-127839999D01*
X95105001Y-127840000D01*
X95306096Y-127840000D01*
X95306115Y-127839999D01*
X95348821Y-127837102D01*
X95533522Y-127791168D01*
X95704023Y-127706608D01*
X95704026Y-127706606D01*
X95852364Y-127587368D01*
X95852368Y-127587364D01*
X95971606Y-127439026D01*
X95971608Y-127439023D01*
X96056169Y-127268520D01*
X96068662Y-127218285D01*
X96101053Y-127166377D01*
X96157769Y-127143421D01*
X96217146Y-127158187D01*
X96256200Y-127204290D01*
X96276038Y-127252181D01*
X96277302Y-127255233D01*
X96369549Y-127375451D01*
X96489767Y-127467698D01*
X96629764Y-127525687D01*
X96742280Y-127540500D01*
X96742281Y-127540500D01*
X97567719Y-127540500D01*
X97567720Y-127540500D01*
X97680236Y-127525687D01*
X97820233Y-127467698D01*
X97940451Y-127375451D01*
X98032698Y-127255233D01*
X98090687Y-127115236D01*
X98105500Y-127002720D01*
X98105500Y-125762610D01*
X98124407Y-125704419D01*
X98134496Y-125692607D01*
X98236822Y-125590281D01*
X98352116Y-125474986D01*
X98406631Y-125447210D01*
X98467063Y-125456781D01*
X98510328Y-125500046D01*
X98519546Y-125558250D01*
X98520160Y-125558331D01*
X98519887Y-125560403D01*
X98519899Y-125560478D01*
X98519841Y-125560749D01*
X98504500Y-125677279D01*
X98504500Y-127002720D01*
X98518342Y-127107867D01*
X98519313Y-127115236D01*
X98537104Y-127158187D01*
X98572595Y-127243870D01*
X98577396Y-127304867D01*
X98551135Y-127351759D01*
X97876376Y-128026520D01*
X97872425Y-128031670D01*
X97871034Y-128030602D01*
X97831777Y-128065944D01*
X97791517Y-128074500D01*
X97716510Y-128074500D01*
X97616874Y-128090281D01*
X97616867Y-128090283D01*
X97496782Y-128151470D01*
X97496780Y-128151471D01*
X97496780Y-128151472D01*
X97402746Y-128245505D01*
X97348232Y-128273281D01*
X97332745Y-128274500D01*
X96347255Y-128274500D01*
X96289064Y-128255593D01*
X96277257Y-128245509D01*
X96183220Y-128151472D01*
X96183217Y-128151470D01*
X96063132Y-128090283D01*
X96063127Y-128090281D01*
X96063126Y-128090281D01*
X96029913Y-128085020D01*
X95963490Y-128074500D01*
X95963488Y-128074500D01*
X95396512Y-128074500D01*
X95396510Y-128074500D01*
X95296874Y-128090281D01*
X95296867Y-128090283D01*
X95176782Y-128151470D01*
X95081471Y-128246781D01*
X95074509Y-128260446D01*
X95031244Y-128303710D01*
X94986300Y-128314500D01*
X94038700Y-128314500D01*
X93980509Y-128295593D01*
X93950491Y-128260446D01*
X93943528Y-128246780D01*
X93848220Y-128151472D01*
X93848217Y-128151470D01*
X93841916Y-128146892D01*
X93842916Y-128145515D01*
X93806287Y-128108880D01*
X93795500Y-128063942D01*
X93795500Y-127744020D01*
X93814407Y-127685829D01*
X93863907Y-127649865D01*
X93925093Y-127649865D01*
X93956525Y-127666858D01*
X94005973Y-127706606D01*
X94005976Y-127706608D01*
X94176477Y-127791168D01*
X94361178Y-127837102D01*
X94403884Y-127839999D01*
X94403904Y-127840000D01*
X94604999Y-127840000D01*
X94605000Y-127839999D01*
X94605000Y-124840001D01*
X94604999Y-124840000D01*
X94403884Y-124840000D01*
X94361178Y-124842897D01*
X94176477Y-124888831D01*
X94005976Y-124973391D01*
X94005973Y-124973393D01*
X93857635Y-125092631D01*
X93857626Y-125092640D01*
X93770905Y-125200525D01*
X93763637Y-125205282D01*
X93759215Y-125212760D01*
X93738551Y-125221702D01*
X93719711Y-125234034D01*
X93711033Y-125233610D01*
X93703062Y-125237060D01*
X93681091Y-125232149D01*
X93658599Y-125231052D01*
X93643350Y-125223714D01*
X93609911Y-125203939D01*
X93569448Y-125158044D01*
X93563689Y-125097130D01*
X93570577Y-125076894D01*
X93576031Y-125065200D01*
X93582463Y-125016343D01*
X93582463Y-124667711D01*
X93576031Y-124618854D01*
X93570906Y-124607864D01*
X93526029Y-124511625D01*
X93526028Y-124511624D01*
X93526028Y-124511623D01*
X93442367Y-124427962D01*
X93442365Y-124427961D01*
X93442363Y-124427959D01*
X93435272Y-124422994D01*
X93437082Y-124420408D01*
X93403247Y-124388845D01*
X93391584Y-124328782D01*
X93400120Y-124299026D01*
X93402231Y-124294500D01*
X93449410Y-124193325D01*
X93455842Y-124144468D01*
X93455842Y-123795836D01*
X93449410Y-123746979D01*
X93449409Y-123746977D01*
X93449409Y-123746975D01*
X93449408Y-123746972D01*
X93443962Y-123735294D01*
X93436503Y-123674565D01*
X93466165Y-123621051D01*
X93483291Y-123608239D01*
X93512628Y-123590889D01*
X93626080Y-123477437D01*
X93707746Y-123339348D01*
X93707746Y-123339347D01*
X93748186Y-123200152D01*
X93034342Y-123200152D01*
X92976151Y-123181245D01*
X92940187Y-123131745D01*
X92935342Y-123101152D01*
X92935342Y-122950153D01*
X92935341Y-122950152D01*
X92784342Y-122950152D01*
X92726151Y-122931245D01*
X92690187Y-122881745D01*
X92685342Y-122851152D01*
X92685342Y-122700151D01*
X93185342Y-122700151D01*
X93185343Y-122700152D01*
X93748186Y-122700152D01*
X93748186Y-122700151D01*
X93707746Y-122560956D01*
X93707746Y-122560955D01*
X93626080Y-122422866D01*
X93512627Y-122309413D01*
X93374537Y-122227747D01*
X93220466Y-122182985D01*
X93185342Y-122180220D01*
X93185342Y-122700151D01*
X92685342Y-122700151D01*
X92685342Y-122180220D01*
X92650217Y-122182985D01*
X92492274Y-122228872D01*
X92431119Y-122226950D01*
X92382773Y-122189449D01*
X92365703Y-122130693D01*
X92370137Y-122104350D01*
X92391089Y-122037110D01*
X92391091Y-122037104D01*
X92397499Y-121966581D01*
X92397500Y-121966568D01*
X92397500Y-121960001D01*
X92397499Y-121960000D01*
X90197502Y-121960000D01*
X90197501Y-121960001D01*
X90197501Y-121966582D01*
X90203908Y-122037103D01*
X90203910Y-122037109D01*
X90254479Y-122199392D01*
X90254482Y-122199400D01*
X90342424Y-122344872D01*
X90462629Y-122465077D01*
X90484582Y-122478348D01*
X90524599Y-122524632D01*
X90529769Y-122585599D01*
X90521577Y-122608013D01*
X90511483Y-122627824D01*
X90497000Y-122719263D01*
X90497000Y-123160737D01*
X90511483Y-123252174D01*
X90511484Y-123252178D01*
X90555899Y-123339347D01*
X90567641Y-123362391D01*
X90595854Y-123390604D01*
X90623630Y-123445119D01*
X90614059Y-123505551D01*
X90595853Y-123530609D01*
X90562674Y-123563788D01*
X90507634Y-123676373D01*
X90507634Y-123676375D01*
X90497000Y-123749364D01*
X90497000Y-124170636D01*
X90504733Y-124223712D01*
X90507634Y-124243626D01*
X90544256Y-124318536D01*
X90562674Y-124356211D01*
X90596461Y-124389998D01*
X90624237Y-124444513D01*
X90614666Y-124504945D01*
X90596462Y-124530000D01*
X90575370Y-124551093D01*
X90562673Y-124563790D01*
X90507634Y-124676373D01*
X90507634Y-124676375D01*
X90497000Y-124749364D01*
X90497000Y-125170636D01*
X90503137Y-125212760D01*
X90507634Y-125243626D01*
X90557205Y-125345024D01*
X90562674Y-125356211D01*
X90595854Y-125389391D01*
X90623630Y-125443906D01*
X90614059Y-125504338D01*
X90595854Y-125529396D01*
X90567640Y-125557610D01*
X90511483Y-125667823D01*
X90497000Y-125759263D01*
X90497000Y-126200737D01*
X90511483Y-126292174D01*
X90511484Y-126292178D01*
X90521575Y-126311982D01*
X90531147Y-126372414D01*
X90503370Y-126426931D01*
X90484586Y-126441648D01*
X90462630Y-126454921D01*
X90342424Y-126575127D01*
X90254482Y-126720599D01*
X90254479Y-126720607D01*
X90203910Y-126882889D01*
X90203908Y-126882895D01*
X90197500Y-126953418D01*
X90197500Y-126959999D01*
X90197501Y-126960000D01*
X91198500Y-126960000D01*
X91256691Y-126978907D01*
X91292655Y-127028407D01*
X91297500Y-127059000D01*
X91297500Y-127209999D01*
X91297501Y-127210000D01*
X91448500Y-127210000D01*
X91506691Y-127228907D01*
X91542655Y-127278407D01*
X91547500Y-127309000D01*
X91547500Y-128118993D01*
X91528593Y-128177184D01*
X91518504Y-128188997D01*
X91492500Y-128215001D01*
X91492500Y-130984998D01*
X91492501Y-130984999D01*
X91717486Y-130984999D01*
X91820187Y-130974507D01*
X91820199Y-130974504D01*
X91986624Y-130919356D01*
X92135841Y-130827318D01*
X92135844Y-130827316D01*
X92250575Y-130712585D01*
X92305092Y-130684807D01*
X92365524Y-130694378D01*
X92408788Y-130737643D01*
X92414554Y-130751448D01*
X92433454Y-130808487D01*
X92522425Y-130952729D01*
X92642270Y-131072574D01*
X92786512Y-131161545D01*
X92947396Y-131214856D01*
X93046677Y-131224999D01*
X93095000Y-131224998D01*
X93095000Y-130525001D01*
X93595000Y-130525001D01*
X93595000Y-131224998D01*
X93595001Y-131224999D01*
X93643322Y-131224999D01*
X93742597Y-131214857D01*
X93742609Y-131214854D01*
X93903487Y-131161545D01*
X94047729Y-131072574D01*
X94167574Y-130952729D01*
X94256545Y-130808487D01*
X94309856Y-130647603D01*
X94320000Y-130548323D01*
X94320000Y-130525001D01*
X94705001Y-130525001D01*
X94705001Y-130548322D01*
X94715142Y-130647597D01*
X94715145Y-130647609D01*
X94768454Y-130808487D01*
X94857425Y-130952729D01*
X94977270Y-131072574D01*
X95121512Y-131161545D01*
X95282396Y-131214856D01*
X95381677Y-131224999D01*
X95430000Y-131224998D01*
X95430000Y-130525001D01*
X95930000Y-130525001D01*
X95930000Y-131224998D01*
X95930001Y-131224999D01*
X95978322Y-131224999D01*
X96077597Y-131214857D01*
X96077609Y-131214854D01*
X96238487Y-131161545D01*
X96382729Y-131072574D01*
X96502574Y-130952729D01*
X96591545Y-130808487D01*
X96644856Y-130647603D01*
X96655000Y-130548323D01*
X96655000Y-130525001D01*
X97025001Y-130525001D01*
X97025001Y-130548322D01*
X97035142Y-130647597D01*
X97035145Y-130647609D01*
X97088454Y-130808487D01*
X97177425Y-130952729D01*
X97297270Y-131072574D01*
X97441512Y-131161545D01*
X97602396Y-131214856D01*
X97701677Y-131224999D01*
X97750000Y-131224998D01*
X97750000Y-130525001D01*
X98250000Y-130525001D01*
X98250000Y-131224998D01*
X98250001Y-131224999D01*
X98298322Y-131224999D01*
X98397597Y-131214857D01*
X98397609Y-131214854D01*
X98558487Y-131161545D01*
X98702729Y-131072574D01*
X98822574Y-130952729D01*
X98911545Y-130808487D01*
X98964856Y-130647603D01*
X98975000Y-130548323D01*
X98975000Y-130525001D01*
X98974999Y-130525000D01*
X98250001Y-130525000D01*
X98250000Y-130525001D01*
X97750000Y-130525001D01*
X97749999Y-130525000D01*
X97025002Y-130525000D01*
X97025001Y-130525001D01*
X96655000Y-130525001D01*
X96654999Y-130525000D01*
X95930001Y-130525000D01*
X95930000Y-130525001D01*
X95430000Y-130525001D01*
X95429999Y-130525000D01*
X94705002Y-130525000D01*
X94705001Y-130525001D01*
X94320000Y-130525001D01*
X94319999Y-130525000D01*
X93595001Y-130525000D01*
X93595000Y-130525001D01*
X93095000Y-130525001D01*
X93095000Y-130374000D01*
X93113907Y-130315809D01*
X93163407Y-130279845D01*
X93194000Y-130275000D01*
X93344999Y-130275000D01*
X93345000Y-130274999D01*
X93345000Y-130124000D01*
X93363907Y-130065809D01*
X93413407Y-130029845D01*
X93444000Y-130025000D01*
X94319998Y-130025000D01*
X94319999Y-130024999D01*
X94319999Y-130001677D01*
X94309857Y-129902402D01*
X94309854Y-129902390D01*
X94256545Y-129741512D01*
X94167574Y-129597270D01*
X94047730Y-129477426D01*
X93920248Y-129398793D01*
X93902034Y-129377341D01*
X93882728Y-129356865D01*
X93882385Y-129354199D01*
X93880647Y-129352152D01*
X93878521Y-129324095D01*
X93874937Y-129296178D01*
X93876227Y-129293820D01*
X93876024Y-129291141D01*
X93904306Y-129242502D01*
X93904341Y-129242469D01*
X93959650Y-129216306D01*
X93972256Y-129215500D01*
X95052744Y-129215500D01*
X95110935Y-129234407D01*
X95121695Y-129243460D01*
X95121729Y-129243493D01*
X95150317Y-129297588D01*
X95141649Y-129358157D01*
X95104751Y-129398793D01*
X94977270Y-129477425D01*
X94857425Y-129597270D01*
X94768454Y-129741512D01*
X94715143Y-129902396D01*
X94705000Y-130001676D01*
X94705000Y-130024999D01*
X94705001Y-130025000D01*
X96654998Y-130025000D01*
X96654999Y-130024999D01*
X96654999Y-130001677D01*
X96644857Y-129902402D01*
X96644854Y-129902390D01*
X96591545Y-129741512D01*
X96502574Y-129597270D01*
X96382730Y-129477426D01*
X96255248Y-129398793D01*
X96237930Y-129378397D01*
X96219011Y-129359477D01*
X96218356Y-129355342D01*
X96215647Y-129352152D01*
X96213625Y-129325471D01*
X96209440Y-129299045D01*
X96211340Y-129295315D01*
X96211024Y-129291141D01*
X96237216Y-129244531D01*
X96277252Y-129204496D01*
X96331769Y-129176719D01*
X96347255Y-129175500D01*
X97332745Y-129175500D01*
X97390936Y-129194407D01*
X97402742Y-129204490D01*
X97442783Y-129244531D01*
X97470559Y-129299046D01*
X97460988Y-129359478D01*
X97424751Y-129398793D01*
X97297270Y-129477425D01*
X97177425Y-129597270D01*
X97088454Y-129741512D01*
X97035143Y-129902396D01*
X97025000Y-130001676D01*
X97025000Y-130024999D01*
X97025001Y-130025000D01*
X98974998Y-130025000D01*
X98974999Y-130024999D01*
X98974999Y-130001677D01*
X98964857Y-129902402D01*
X98964854Y-129902390D01*
X98911545Y-129741512D01*
X98822574Y-129597270D01*
X98702730Y-129477426D01*
X98575248Y-129398793D01*
X98535647Y-129352152D01*
X98531024Y-129291141D01*
X98557216Y-129244531D01*
X98598528Y-129203220D01*
X98659719Y-129083126D01*
X98675500Y-128983488D01*
X98675500Y-128542611D01*
X98694407Y-128484420D01*
X98704496Y-128472607D01*
X99607607Y-127569496D01*
X99662124Y-127541719D01*
X99677611Y-127540500D01*
X99867719Y-127540500D01*
X99867720Y-127540500D01*
X99980236Y-127525687D01*
X100036637Y-127502325D01*
X100908265Y-127502325D01*
X100908265Y-127525646D01*
X100918406Y-127624921D01*
X100918409Y-127624933D01*
X100971718Y-127785811D01*
X101060689Y-127930053D01*
X101180534Y-128049898D01*
X101324776Y-128138869D01*
X101485660Y-128192180D01*
X101584941Y-128202323D01*
X101633264Y-128202322D01*
X101633264Y-127502325D01*
X102133264Y-127502325D01*
X102133264Y-128202322D01*
X102133265Y-128202323D01*
X102181586Y-128202323D01*
X102280861Y-128192181D01*
X102280873Y-128192178D01*
X102441751Y-128138869D01*
X102585993Y-128049898D01*
X102705838Y-127930053D01*
X102794809Y-127785811D01*
X102848120Y-127624927D01*
X102858264Y-127525647D01*
X102858264Y-127502325D01*
X102858263Y-127502324D01*
X102133265Y-127502324D01*
X102133264Y-127502325D01*
X101633264Y-127502325D01*
X101633263Y-127502324D01*
X100908266Y-127502324D01*
X100908265Y-127502325D01*
X100036637Y-127502325D01*
X100120233Y-127467698D01*
X100240451Y-127375451D01*
X100332698Y-127255233D01*
X100390687Y-127115236D01*
X100405500Y-127002720D01*
X100405500Y-126522611D01*
X100424407Y-126464420D01*
X100434496Y-126452607D01*
X100681007Y-126206096D01*
X100927917Y-125959185D01*
X100931536Y-125955747D01*
X100939316Y-125948718D01*
X100962453Y-125935361D01*
X101040535Y-125857278D01*
X101042399Y-125855595D01*
X101068143Y-125844081D01*
X101093277Y-125831276D01*
X101095862Y-125831685D01*
X101098254Y-125830616D01*
X101125856Y-125836435D01*
X101153709Y-125840847D01*
X101155560Y-125842698D01*
X101158123Y-125843239D01*
X101177031Y-125864169D01*
X101196974Y-125884112D01*
X101197671Y-125887016D01*
X101199139Y-125888641D01*
X101200002Y-125896724D01*
X101207764Y-125929057D01*
X101207764Y-125960812D01*
X101218832Y-126030696D01*
X101223545Y-126060449D01*
X101223547Y-126060456D01*
X101284734Y-126180541D01*
X101284736Y-126180544D01*
X101326047Y-126221855D01*
X101353823Y-126276370D01*
X101344252Y-126336802D01*
X101308015Y-126376117D01*
X101180534Y-126454749D01*
X101060689Y-126574594D01*
X100971718Y-126718836D01*
X100918407Y-126879720D01*
X100908264Y-126979000D01*
X100908264Y-127002323D01*
X100908265Y-127002324D01*
X102858262Y-127002324D01*
X102858263Y-127002323D01*
X102858263Y-126979001D01*
X102848121Y-126879726D01*
X102848118Y-126879714D01*
X102794809Y-126718836D01*
X102705838Y-126574594D01*
X102585994Y-126454750D01*
X102458512Y-126376117D01*
X102418911Y-126329476D01*
X102414288Y-126268465D01*
X102440480Y-126221855D01*
X102481792Y-126180544D01*
X102518823Y-126107867D01*
X102540892Y-126064555D01*
X102584156Y-126021290D01*
X102629101Y-126010500D01*
X103427639Y-126010500D01*
X103485830Y-126029407D01*
X103521082Y-126076801D01*
X103536097Y-126119712D01*
X103537208Y-126122885D01*
X103617845Y-126232144D01*
X103617847Y-126232146D01*
X103617850Y-126232150D01*
X103617853Y-126232152D01*
X103617855Y-126232154D01*
X103727116Y-126312792D01*
X103727117Y-126312792D01*
X103727118Y-126312793D01*
X103855301Y-126357646D01*
X103885725Y-126360499D01*
X103885727Y-126360500D01*
X103885734Y-126360500D01*
X104170500Y-126360500D01*
X104228691Y-126379407D01*
X104264655Y-126428907D01*
X104269500Y-126459500D01*
X104269500Y-127190386D01*
X104258711Y-127235329D01*
X104250281Y-127251874D01*
X104234500Y-127351510D01*
X104234500Y-127647499D01*
X104221236Y-127697000D01*
X104210200Y-127716112D01*
X104203712Y-127740324D01*
X104203713Y-127740325D01*
X104179500Y-127830691D01*
X104179500Y-128276000D01*
X104160593Y-128334191D01*
X104111093Y-128370155D01*
X104080500Y-128375000D01*
X103787176Y-128375000D01*
X103727629Y-128381401D01*
X103727618Y-128381403D01*
X103592911Y-128431646D01*
X103592909Y-128431647D01*
X103477815Y-128517807D01*
X103477807Y-128517815D01*
X103391647Y-128632909D01*
X103391646Y-128632911D01*
X103341403Y-128767618D01*
X103341401Y-128767629D01*
X103334999Y-128827175D01*
X103334858Y-128829823D01*
X103333617Y-128829756D01*
X103316093Y-128883691D01*
X103266593Y-128919655D01*
X103236000Y-128924500D01*
X101234000Y-128924500D01*
X101175809Y-128905593D01*
X101139845Y-128856093D01*
X101135680Y-128829794D01*
X101135142Y-128829823D01*
X101135000Y-128827175D01*
X101128598Y-128767629D01*
X101128596Y-128767618D01*
X101078353Y-128632911D01*
X101078352Y-128632909D01*
X100992192Y-128517815D01*
X100992184Y-128517807D01*
X100877090Y-128431647D01*
X100877088Y-128431646D01*
X100742381Y-128381403D01*
X100742370Y-128381401D01*
X100682824Y-128375000D01*
X100435001Y-128375000D01*
X100435000Y-128375001D01*
X100435000Y-128825500D01*
X100416093Y-128883691D01*
X100366593Y-128919655D01*
X100336000Y-128924500D01*
X100125691Y-128924500D01*
X100059623Y-128942203D01*
X99998521Y-128939000D01*
X99950971Y-128900495D01*
X99935000Y-128846576D01*
X99935000Y-128375001D01*
X99934999Y-128375000D01*
X99687176Y-128375000D01*
X99627629Y-128381401D01*
X99627618Y-128381403D01*
X99492911Y-128431646D01*
X99492909Y-128431647D01*
X99377815Y-128517807D01*
X99377807Y-128517815D01*
X99291647Y-128632909D01*
X99291646Y-128632911D01*
X99241403Y-128767618D01*
X99241401Y-128767629D01*
X99235000Y-128827175D01*
X99235000Y-129124999D01*
X99235001Y-129125000D01*
X99656576Y-129125000D01*
X99714767Y-129143907D01*
X99750731Y-129193407D01*
X99752202Y-129249622D01*
X99734500Y-129315691D01*
X99734500Y-129434309D01*
X99744255Y-129470714D01*
X99752203Y-129500377D01*
X99749000Y-129561479D01*
X99710495Y-129609029D01*
X99656576Y-129625000D01*
X99235001Y-129625000D01*
X99235000Y-129625001D01*
X99235000Y-129922824D01*
X99234999Y-129922824D01*
X99241401Y-129982370D01*
X99241403Y-129982381D01*
X99291646Y-130117088D01*
X99291647Y-130117090D01*
X99377807Y-130232184D01*
X99377815Y-130232192D01*
X99498579Y-130322597D01*
X99497466Y-130324083D01*
X99533154Y-130361866D01*
X99540999Y-130422546D01*
X99540797Y-130423592D01*
X99534500Y-130455246D01*
X99534500Y-131494746D01*
X99534501Y-131494758D01*
X99546132Y-131553227D01*
X99546134Y-131553233D01*
X99575133Y-131596632D01*
X99590448Y-131619552D01*
X99656769Y-131663867D01*
X99701231Y-131672711D01*
X99715241Y-131675498D01*
X99715246Y-131675498D01*
X99715252Y-131675500D01*
X99715253Y-131675500D01*
X100654747Y-131675500D01*
X100654748Y-131675500D01*
X100713231Y-131663867D01*
X100779552Y-131619552D01*
X100823867Y-131553231D01*
X100835500Y-131494748D01*
X100835500Y-130455252D01*
X100835499Y-130455246D01*
X100835499Y-130455244D01*
X100829203Y-130423595D01*
X100836393Y-130362834D01*
X100872389Y-130323891D01*
X100871420Y-130322597D01*
X100992184Y-130232192D01*
X100992192Y-130232184D01*
X101078352Y-130117090D01*
X101078353Y-130117088D01*
X101128596Y-129982381D01*
X101128598Y-129982370D01*
X101135000Y-129922824D01*
X101135142Y-129920177D01*
X101136382Y-129920243D01*
X101153907Y-129866309D01*
X101203407Y-129830345D01*
X101234000Y-129825500D01*
X103236000Y-129825500D01*
X103294191Y-129844407D01*
X103330155Y-129893907D01*
X103334319Y-129920205D01*
X103334858Y-129920177D01*
X103334999Y-129922824D01*
X103341401Y-129982370D01*
X103341403Y-129982381D01*
X103391646Y-130117088D01*
X103391647Y-130117090D01*
X103477807Y-130232184D01*
X103477815Y-130232192D01*
X103598579Y-130322597D01*
X103597466Y-130324083D01*
X103633154Y-130361866D01*
X103640999Y-130422546D01*
X103640797Y-130423592D01*
X103634500Y-130455246D01*
X103634500Y-131494746D01*
X103634501Y-131494758D01*
X103646132Y-131553227D01*
X103646134Y-131553233D01*
X103675133Y-131596632D01*
X103690448Y-131619552D01*
X103756769Y-131663867D01*
X103801231Y-131672711D01*
X103815241Y-131675498D01*
X103815246Y-131675498D01*
X103815252Y-131675500D01*
X103815253Y-131675500D01*
X104754747Y-131675500D01*
X104754748Y-131675500D01*
X104813231Y-131663867D01*
X104879552Y-131619552D01*
X104923867Y-131553231D01*
X104935500Y-131494748D01*
X104935500Y-131312420D01*
X104954407Y-131254229D01*
X104984999Y-131226684D01*
X105004441Y-131215460D01*
X105060390Y-131159511D01*
X105921901Y-130298000D01*
X110480069Y-130298000D01*
X110482832Y-130333121D01*
X110482834Y-130333127D01*
X110527595Y-130487195D01*
X110527595Y-130487196D01*
X110609261Y-130625285D01*
X110722714Y-130738738D01*
X110860804Y-130820404D01*
X110999999Y-130860844D01*
X111000000Y-130860844D01*
X111000000Y-130298001D01*
X110999999Y-130298000D01*
X110480069Y-130298000D01*
X105921901Y-130298000D01*
X107076655Y-129143245D01*
X107131168Y-129115471D01*
X107191600Y-129125042D01*
X107234865Y-129168307D01*
X107245655Y-129213248D01*
X107245655Y-129235038D01*
X107255797Y-129334313D01*
X107255800Y-129334325D01*
X107309109Y-129495203D01*
X107398080Y-129639445D01*
X107517925Y-129759290D01*
X107662167Y-129848261D01*
X107823051Y-129901572D01*
X107922332Y-129911715D01*
X107970655Y-129911714D01*
X107970655Y-129211717D01*
X108470655Y-129211717D01*
X108470655Y-129911714D01*
X108470656Y-129911715D01*
X108518977Y-129911715D01*
X108618252Y-129901573D01*
X108618264Y-129901570D01*
X108779142Y-129848261D01*
X108860628Y-129797999D01*
X110480069Y-129797999D01*
X110480070Y-129798000D01*
X110999999Y-129798000D01*
X111000000Y-129797999D01*
X111000000Y-129235154D01*
X110860805Y-129275594D01*
X110860803Y-129275595D01*
X110722714Y-129357261D01*
X110609261Y-129470714D01*
X110527595Y-129608803D01*
X110527595Y-129608804D01*
X110482834Y-129762872D01*
X110482832Y-129762878D01*
X110480069Y-129797999D01*
X108860628Y-129797999D01*
X108923385Y-129759289D01*
X109043229Y-129639445D01*
X109132200Y-129495203D01*
X109185511Y-129334319D01*
X109195655Y-129235039D01*
X109195655Y-129211717D01*
X109195654Y-129211716D01*
X108470656Y-129211716D01*
X108470655Y-129211717D01*
X107970655Y-129211717D01*
X107970655Y-129060716D01*
X107989562Y-129002525D01*
X108039062Y-128966561D01*
X108069655Y-128961716D01*
X108220654Y-128961716D01*
X108220655Y-128961715D01*
X108220655Y-128810716D01*
X108239562Y-128752525D01*
X108289062Y-128716561D01*
X108319655Y-128711716D01*
X109195653Y-128711716D01*
X109207470Y-128699898D01*
X109214561Y-128678076D01*
X109264061Y-128642112D01*
X109307575Y-128638114D01*
X109325683Y-128640498D01*
X109325684Y-128640498D01*
X109774313Y-128640498D01*
X109774315Y-128640498D01*
X109823172Y-128634066D01*
X109930403Y-128584063D01*
X110014064Y-128500402D01*
X110064067Y-128393171D01*
X110066657Y-128373491D01*
X110092997Y-128318268D01*
X110146767Y-128289072D01*
X110207429Y-128297057D01*
X110249070Y-128334441D01*
X110322032Y-128452729D01*
X110441877Y-128572574D01*
X110586119Y-128661545D01*
X110747003Y-128714856D01*
X110846284Y-128724999D01*
X110894607Y-128724998D01*
X110894607Y-128025001D01*
X111394607Y-128025001D01*
X111394607Y-128724998D01*
X111394608Y-128724999D01*
X111442929Y-128724999D01*
X111542204Y-128714857D01*
X111542216Y-128714854D01*
X111703094Y-128661545D01*
X111847336Y-128572574D01*
X111967181Y-128452729D01*
X112054953Y-128310430D01*
X112108311Y-128151081D01*
X112109463Y-128147602D01*
X112119607Y-128048323D01*
X112119607Y-128025001D01*
X112119606Y-128025000D01*
X111394608Y-128025000D01*
X111394607Y-128025001D01*
X110894607Y-128025001D01*
X110894606Y-128025000D01*
X110161116Y-128025000D01*
X110102925Y-128006093D01*
X110066961Y-127956593D01*
X110066070Y-127953701D01*
X110064068Y-127946835D01*
X110064067Y-127946825D01*
X110014064Y-127839594D01*
X109930403Y-127755933D01*
X109917084Y-127749722D01*
X109872336Y-127707995D01*
X109860661Y-127647934D01*
X109886518Y-127592481D01*
X109894339Y-127584965D01*
X109904695Y-127576050D01*
X109930403Y-127564063D01*
X110003222Y-127491243D01*
X110006023Y-127488833D01*
X110030995Y-127478376D01*
X110055120Y-127466085D01*
X110058915Y-127466686D01*
X110062460Y-127465202D01*
X110088810Y-127471420D01*
X110115552Y-127475656D01*
X110118269Y-127478373D01*
X110122010Y-127479256D01*
X110138361Y-127498252D01*
X110140611Y-127496003D01*
X110169608Y-127525000D01*
X112130767Y-127525000D01*
X112185768Y-127541685D01*
X112189998Y-127544511D01*
X112190000Y-127544512D01*
X112190005Y-127544515D01*
X112270367Y-127560500D01*
X113365522Y-127560499D01*
X113423713Y-127579406D01*
X113459677Y-127628906D01*
X113459677Y-127690092D01*
X113435526Y-127729501D01*
X113379218Y-127785811D01*
X113155489Y-128009540D01*
X113155485Y-128009543D01*
X113144272Y-128020755D01*
X113089755Y-128048530D01*
X113029323Y-128038956D01*
X113024772Y-128036485D01*
X112933187Y-127983608D01*
X112890754Y-127972238D01*
X112805892Y-127949500D01*
X112674108Y-127949500D01*
X112596200Y-127970375D01*
X112546809Y-127983609D01*
X112432690Y-128049496D01*
X112339498Y-128142688D01*
X112292902Y-128223392D01*
X112292898Y-128223401D01*
X112273608Y-128256814D01*
X112241149Y-128377950D01*
X112241145Y-128377965D01*
X112239500Y-128384103D01*
X112239500Y-128384108D01*
X112239500Y-128515892D01*
X112260578Y-128594556D01*
X112257375Y-128655658D01*
X112218870Y-128703208D01*
X112190574Y-128715805D01*
X112187756Y-128716561D01*
X112086809Y-128743609D01*
X111972690Y-128809496D01*
X111879496Y-128902690D01*
X111813609Y-129016809D01*
X111795840Y-129083125D01*
X111779731Y-129143248D01*
X111779500Y-129144109D01*
X111779500Y-129185597D01*
X111760593Y-129243788D01*
X111711093Y-129279752D01*
X111649907Y-129279752D01*
X111641185Y-129276456D01*
X111639194Y-129275594D01*
X111500000Y-129235154D01*
X111500000Y-130860844D01*
X111639195Y-130820404D01*
X111639196Y-130820404D01*
X111777285Y-130738738D01*
X111890737Y-130625286D01*
X111908087Y-130595949D01*
X111912408Y-130592138D01*
X111914289Y-130586694D01*
X111935013Y-130572209D01*
X111953982Y-130555486D01*
X111959717Y-130554943D01*
X111964440Y-130551643D01*
X111981745Y-130552861D01*
X112014896Y-130549727D01*
X112025615Y-130552765D01*
X112030477Y-130554444D01*
X112046827Y-130562068D01*
X112056085Y-130563286D01*
X112065544Y-130566553D01*
X112082357Y-130579245D01*
X112101370Y-130588312D01*
X112106236Y-130597273D01*
X112114376Y-130603418D01*
X112120517Y-130623569D01*
X112130570Y-130642080D01*
X112129239Y-130652190D01*
X112132213Y-130661946D01*
X112125337Y-130681857D01*
X112122590Y-130702742D01*
X112113858Y-130715099D01*
X112112242Y-130719780D01*
X112108901Y-130722114D01*
X112103238Y-130730130D01*
X112099540Y-130733828D01*
X112059980Y-130802347D01*
X112059978Y-130802351D01*
X112039500Y-130878775D01*
X112039500Y-131925500D01*
X112020593Y-131983691D01*
X111971093Y-132019655D01*
X111940500Y-132024500D01*
X111895252Y-132024500D01*
X111895251Y-132024500D01*
X111895241Y-132024501D01*
X111836772Y-132036132D01*
X111836766Y-132036134D01*
X111770451Y-132080445D01*
X111770445Y-132080451D01*
X111726134Y-132146766D01*
X111726132Y-132146772D01*
X111714501Y-132205241D01*
X111714500Y-132205253D01*
X111714500Y-133094746D01*
X111714501Y-133094758D01*
X111726132Y-133153227D01*
X111726134Y-133153233D01*
X111765084Y-133211525D01*
X111770448Y-133219552D01*
X111836769Y-133263867D01*
X111877440Y-133271957D01*
X111895241Y-133275498D01*
X111895246Y-133275498D01*
X111895252Y-133275500D01*
X111895253Y-133275500D01*
X112784747Y-133275500D01*
X112784748Y-133275500D01*
X112843231Y-133263867D01*
X112909552Y-133219552D01*
X112909554Y-133219548D01*
X112914973Y-133214130D01*
X112969488Y-133186350D01*
X113029920Y-133195920D01*
X113039968Y-133201808D01*
X113043714Y-133204311D01*
X113157548Y-133251463D01*
X113278394Y-133275500D01*
X113278396Y-133275500D01*
X113401604Y-133275500D01*
X113401606Y-133275500D01*
X113522452Y-133251463D01*
X113636286Y-133204311D01*
X113738733Y-133135858D01*
X113769996Y-133104595D01*
X113824513Y-133076818D01*
X113884945Y-133086389D01*
X113910004Y-133104595D01*
X113941267Y-133135858D01*
X114043714Y-133204311D01*
X114157548Y-133251463D01*
X114278394Y-133275500D01*
X114278396Y-133275500D01*
X114401604Y-133275500D01*
X114401606Y-133275500D01*
X114522452Y-133251463D01*
X114636286Y-133204311D01*
X114735499Y-133138018D01*
X114794386Y-133121410D01*
X114851790Y-133142587D01*
X114885783Y-133193461D01*
X114889500Y-133220334D01*
X114889500Y-133489309D01*
X114905928Y-133550618D01*
X114902725Y-133611720D01*
X114864220Y-133659270D01*
X114819950Y-133673667D01*
X114820060Y-133674744D01*
X114718269Y-133685142D01*
X114718257Y-133685145D01*
X114557379Y-133738454D01*
X114413137Y-133827425D01*
X114293292Y-133947270D01*
X114204321Y-134091512D01*
X114151010Y-134252396D01*
X114140867Y-134351676D01*
X114140867Y-134399999D01*
X114140868Y-134400000D01*
X114991867Y-134400000D01*
X115050058Y-134418907D01*
X115086022Y-134468407D01*
X115090867Y-134499000D01*
X115090867Y-134801000D01*
X115071960Y-134859191D01*
X115022460Y-134895155D01*
X114991867Y-134900000D01*
X114140869Y-134900000D01*
X114140868Y-134900001D01*
X114140868Y-134948322D01*
X114151009Y-135047597D01*
X114151012Y-135047609D01*
X114204321Y-135208487D01*
X114290701Y-135348527D01*
X114305158Y-135407979D01*
X114281909Y-135464575D01*
X114229833Y-135496697D01*
X114206441Y-135499500D01*
X86099500Y-135499500D01*
X86041309Y-135480593D01*
X86005345Y-135431093D01*
X86000500Y-135400500D01*
X86000500Y-129835001D01*
X86412501Y-129835001D01*
X86412501Y-130284986D01*
X86422992Y-130387687D01*
X86422995Y-130387699D01*
X86478143Y-130554124D01*
X86570180Y-130703340D01*
X86694159Y-130827319D01*
X86843375Y-130919356D01*
X87009806Y-130974506D01*
X87112513Y-130984999D01*
X87412498Y-130984999D01*
X87412500Y-130984998D01*
X87412500Y-129835001D01*
X87912500Y-129835001D01*
X87912500Y-130984998D01*
X87912501Y-130984999D01*
X88212486Y-130984999D01*
X88315187Y-130974507D01*
X88315199Y-130974504D01*
X88481624Y-130919356D01*
X88630840Y-130827319D01*
X88754819Y-130703340D01*
X88846856Y-130554124D01*
X88902006Y-130387693D01*
X88912500Y-130284987D01*
X88912500Y-129835001D01*
X90067501Y-129835001D01*
X90067501Y-130284986D01*
X90077992Y-130387687D01*
X90077995Y-130387699D01*
X90133143Y-130554124D01*
X90225180Y-130703340D01*
X90349159Y-130827319D01*
X90498375Y-130919356D01*
X90664806Y-130974506D01*
X90767513Y-130984999D01*
X90992498Y-130984999D01*
X90992500Y-130984998D01*
X90992500Y-129835001D01*
X90992499Y-129835000D01*
X90067502Y-129835000D01*
X90067501Y-129835001D01*
X88912500Y-129835001D01*
X88912499Y-129835000D01*
X87912501Y-129835000D01*
X87912500Y-129835001D01*
X87412500Y-129835001D01*
X87412499Y-129835000D01*
X86412502Y-129835000D01*
X86412501Y-129835001D01*
X86000500Y-129835001D01*
X86000500Y-128885012D01*
X86412500Y-128885012D01*
X86412500Y-129334999D01*
X86412501Y-129335000D01*
X87412499Y-129335000D01*
X87412500Y-129334999D01*
X87412500Y-128185001D01*
X87912500Y-128185001D01*
X87912500Y-129334999D01*
X87912501Y-129335000D01*
X88912498Y-129335000D01*
X88912499Y-129334999D01*
X88912499Y-128885013D01*
X88912499Y-128885012D01*
X90067500Y-128885012D01*
X90067500Y-129334999D01*
X90067501Y-129335000D01*
X90992499Y-129335000D01*
X90992500Y-129334999D01*
X90992500Y-128176007D01*
X91011407Y-128117816D01*
X91021496Y-128106003D01*
X91047500Y-128079999D01*
X91047500Y-127460001D01*
X91047499Y-127460000D01*
X90197502Y-127460000D01*
X90197501Y-127460001D01*
X90197501Y-127466582D01*
X90203908Y-127537103D01*
X90203910Y-127537109D01*
X90254479Y-127699392D01*
X90254482Y-127699400D01*
X90342424Y-127844872D01*
X90462629Y-127965077D01*
X90596583Y-128046055D01*
X90636601Y-128092339D01*
X90641769Y-128153306D01*
X90610116Y-128205667D01*
X90576508Y-128224752D01*
X90498374Y-128250643D01*
X90349159Y-128342680D01*
X90225180Y-128466659D01*
X90133143Y-128615875D01*
X90077993Y-128782306D01*
X90067500Y-128885012D01*
X88912499Y-128885012D01*
X88902007Y-128782312D01*
X88902004Y-128782300D01*
X88846856Y-128615875D01*
X88754819Y-128466659D01*
X88630840Y-128342680D01*
X88481624Y-128250643D01*
X88315193Y-128195493D01*
X88212487Y-128185000D01*
X87912501Y-128185000D01*
X87912500Y-128185001D01*
X87412500Y-128185001D01*
X87412499Y-128185000D01*
X87112513Y-128185000D01*
X87009812Y-128195492D01*
X87009800Y-128195495D01*
X86843375Y-128250643D01*
X86694159Y-128342680D01*
X86570180Y-128466659D01*
X86478143Y-128615875D01*
X86422993Y-128782306D01*
X86412500Y-128885012D01*
X86000500Y-128885012D01*
X86000500Y-119585001D01*
X86412501Y-119585001D01*
X86412501Y-120034986D01*
X86422992Y-120137687D01*
X86422995Y-120137699D01*
X86478143Y-120304124D01*
X86570180Y-120453340D01*
X86694159Y-120577319D01*
X86843375Y-120669356D01*
X87009806Y-120724506D01*
X87112513Y-120734999D01*
X87412498Y-120734999D01*
X87412500Y-120734998D01*
X87412500Y-119585001D01*
X87912500Y-119585001D01*
X87912500Y-120734998D01*
X87912501Y-120734999D01*
X88212486Y-120734999D01*
X88315187Y-120724507D01*
X88315199Y-120724504D01*
X88481624Y-120669356D01*
X88630840Y-120577319D01*
X88754819Y-120453340D01*
X88846856Y-120304124D01*
X88902006Y-120137693D01*
X88912500Y-120034987D01*
X88912500Y-119585001D01*
X90067501Y-119585001D01*
X90067501Y-120034986D01*
X90077992Y-120137687D01*
X90077995Y-120137699D01*
X90133143Y-120304124D01*
X90225180Y-120453340D01*
X90349159Y-120577319D01*
X90498375Y-120669356D01*
X90576507Y-120695247D01*
X90625797Y-120731498D01*
X90644365Y-120789798D01*
X90625120Y-120847878D01*
X90596584Y-120873944D01*
X90462627Y-120954924D01*
X90342424Y-121075127D01*
X90254482Y-121220599D01*
X90254479Y-121220607D01*
X90203910Y-121382889D01*
X90203908Y-121382895D01*
X90197500Y-121453418D01*
X90197500Y-121459999D01*
X90197501Y-121460000D01*
X91047499Y-121460000D01*
X91047500Y-121459999D01*
X91047500Y-120840001D01*
X91021496Y-120813997D01*
X90993719Y-120759480D01*
X90992500Y-120743993D01*
X90992500Y-119585001D01*
X91492500Y-119585001D01*
X91492500Y-120704999D01*
X91518504Y-120731003D01*
X91546281Y-120785520D01*
X91547500Y-120801007D01*
X91547500Y-121459999D01*
X91547501Y-121460000D01*
X92397498Y-121460000D01*
X92397499Y-121459999D01*
X92397499Y-121453433D01*
X92397498Y-121453417D01*
X92391091Y-121382896D01*
X92391089Y-121382890D01*
X92340520Y-121220607D01*
X92340517Y-121220599D01*
X92252575Y-121075127D01*
X92132372Y-120954924D01*
X91986900Y-120866982D01*
X91986894Y-120866980D01*
X91973422Y-120862782D01*
X91923492Y-120827418D01*
X91903883Y-120769460D01*
X91922087Y-120711045D01*
X91971149Y-120674487D01*
X91971737Y-120674290D01*
X91986623Y-120669357D01*
X92135840Y-120577319D01*
X92259819Y-120453340D01*
X92351856Y-120304124D01*
X92407006Y-120137693D01*
X92417500Y-120034987D01*
X92417500Y-119585001D01*
X92417499Y-119585000D01*
X91492501Y-119585000D01*
X91492500Y-119585001D01*
X90992500Y-119585001D01*
X90992499Y-119585000D01*
X90067502Y-119585000D01*
X90067501Y-119585001D01*
X88912500Y-119585001D01*
X88912499Y-119585000D01*
X87912501Y-119585000D01*
X87912500Y-119585001D01*
X87412500Y-119585001D01*
X87412499Y-119585000D01*
X86412502Y-119585000D01*
X86412501Y-119585001D01*
X86000500Y-119585001D01*
X86000500Y-118635012D01*
X86412500Y-118635012D01*
X86412500Y-119084999D01*
X86412501Y-119085000D01*
X87412499Y-119085000D01*
X87412500Y-119084999D01*
X87412500Y-117935001D01*
X87912500Y-117935001D01*
X87912500Y-119084999D01*
X87912501Y-119085000D01*
X88912498Y-119085000D01*
X88912499Y-119084999D01*
X88912499Y-118635013D01*
X88912499Y-118635012D01*
X90067500Y-118635012D01*
X90067500Y-119084999D01*
X90067501Y-119085000D01*
X90992499Y-119085000D01*
X90992500Y-119084999D01*
X90992500Y-117935001D01*
X91492500Y-117935001D01*
X91492500Y-119084999D01*
X91492501Y-119085000D01*
X92417498Y-119085000D01*
X92417499Y-119084999D01*
X92417499Y-118702175D01*
X101000000Y-118702175D01*
X101000000Y-118999999D01*
X101000001Y-119000000D01*
X101749999Y-119000000D01*
X101750000Y-118999999D01*
X101750000Y-118250001D01*
X102250000Y-118250001D01*
X102250000Y-118999999D01*
X102250001Y-119000000D01*
X102999999Y-119000000D01*
X103000000Y-118999999D01*
X103000000Y-118730253D01*
X103299500Y-118730253D01*
X103299500Y-119769746D01*
X103299501Y-119769758D01*
X103311132Y-119828227D01*
X103311134Y-119828233D01*
X103349080Y-119885022D01*
X103355448Y-119894552D01*
X103421769Y-119938867D01*
X103466231Y-119947711D01*
X103480241Y-119950498D01*
X103480246Y-119950498D01*
X103480252Y-119950500D01*
X103480253Y-119950500D01*
X104519747Y-119950500D01*
X104519748Y-119950500D01*
X104578231Y-119938867D01*
X104644552Y-119894552D01*
X104688867Y-119828231D01*
X104700500Y-119769748D01*
X104700500Y-119269500D01*
X104719407Y-119211309D01*
X104768907Y-119175345D01*
X104799500Y-119170500D01*
X105078237Y-119170500D01*
X105136428Y-119189407D01*
X105172392Y-119238907D01*
X105172392Y-119300093D01*
X105162497Y-119321473D01*
X105088454Y-119441512D01*
X105035143Y-119602396D01*
X105025000Y-119701676D01*
X105025000Y-119724999D01*
X105025001Y-119725000D01*
X106974998Y-119725000D01*
X106974999Y-119724999D01*
X106974999Y-119701678D01*
X106967317Y-119626489D01*
X106980212Y-119566678D01*
X107025800Y-119525869D01*
X107086668Y-119519651D01*
X107139567Y-119550397D01*
X107151540Y-119566926D01*
X107209497Y-119667309D01*
X107209500Y-119667314D01*
X107302686Y-119760500D01*
X107302688Y-119760501D01*
X107302690Y-119760503D01*
X107416810Y-119826390D01*
X107416808Y-119826390D01*
X107416812Y-119826391D01*
X107416814Y-119826392D01*
X107544108Y-119860500D01*
X107544110Y-119860500D01*
X107675890Y-119860500D01*
X107675892Y-119860500D01*
X107803186Y-119826392D01*
X107803188Y-119826390D01*
X107803190Y-119826390D01*
X107917309Y-119760503D01*
X107917309Y-119760502D01*
X107917314Y-119760500D01*
X108010500Y-119667314D01*
X108010503Y-119667309D01*
X108076390Y-119553190D01*
X108076390Y-119553188D01*
X108076392Y-119553186D01*
X108110500Y-119425892D01*
X108110500Y-119294108D01*
X108076392Y-119166814D01*
X108076390Y-119166811D01*
X108076390Y-119166809D01*
X108010503Y-119052690D01*
X108010501Y-119052688D01*
X108010500Y-119052686D01*
X107917314Y-118959500D01*
X107917311Y-118959498D01*
X107917309Y-118959496D01*
X107803189Y-118893609D01*
X107803191Y-118893609D01*
X107753799Y-118880375D01*
X107675892Y-118859500D01*
X107575479Y-118859500D01*
X107517288Y-118840593D01*
X107505476Y-118830504D01*
X107304511Y-118629540D01*
X107262781Y-118605447D01*
X107262780Y-118605447D01*
X107235988Y-118589978D01*
X107159564Y-118569500D01*
X107159562Y-118569500D01*
X104618123Y-118569500D01*
X104580241Y-118561966D01*
X104578233Y-118561134D01*
X104578231Y-118561133D01*
X104578227Y-118561132D01*
X104519758Y-118549501D01*
X104519748Y-118549500D01*
X103480252Y-118549500D01*
X103480251Y-118549500D01*
X103480241Y-118549501D01*
X103421772Y-118561132D01*
X103421766Y-118561134D01*
X103355451Y-118605445D01*
X103355445Y-118605451D01*
X103311134Y-118671766D01*
X103311132Y-118671772D01*
X103299501Y-118730241D01*
X103299500Y-118730253D01*
X103000000Y-118730253D01*
X103000000Y-118702175D01*
X102993598Y-118642629D01*
X102993596Y-118642618D01*
X102943353Y-118507911D01*
X102943352Y-118507909D01*
X102857192Y-118392815D01*
X102857184Y-118392807D01*
X102742090Y-118306647D01*
X102742088Y-118306646D01*
X102607381Y-118256403D01*
X102607370Y-118256401D01*
X102547824Y-118250000D01*
X102250001Y-118250000D01*
X102250000Y-118250001D01*
X101750000Y-118250001D01*
X101749999Y-118250000D01*
X101452176Y-118250000D01*
X101392629Y-118256401D01*
X101392618Y-118256403D01*
X101257911Y-118306646D01*
X101257909Y-118306647D01*
X101142815Y-118392807D01*
X101142807Y-118392815D01*
X101056647Y-118507909D01*
X101056646Y-118507911D01*
X101006403Y-118642618D01*
X101006401Y-118642629D01*
X101000000Y-118702175D01*
X92417499Y-118702175D01*
X92417499Y-118635013D01*
X92407007Y-118532312D01*
X92407004Y-118532300D01*
X92351856Y-118365875D01*
X92259819Y-118216659D01*
X92135840Y-118092680D01*
X91986624Y-118000643D01*
X91820193Y-117945493D01*
X91717487Y-117935000D01*
X91492501Y-117935000D01*
X91492500Y-117935001D01*
X90992500Y-117935001D01*
X90992499Y-117935000D01*
X90767513Y-117935000D01*
X90664812Y-117945492D01*
X90664800Y-117945495D01*
X90498375Y-118000643D01*
X90349159Y-118092680D01*
X90225180Y-118216659D01*
X90133143Y-118365875D01*
X90077993Y-118532306D01*
X90067500Y-118635012D01*
X88912499Y-118635012D01*
X88902007Y-118532312D01*
X88902004Y-118532300D01*
X88846856Y-118365875D01*
X88754819Y-118216659D01*
X88630840Y-118092680D01*
X88481624Y-118000643D01*
X88315193Y-117945493D01*
X88212487Y-117935000D01*
X87912501Y-117935000D01*
X87912500Y-117935001D01*
X87412500Y-117935001D01*
X87412499Y-117935000D01*
X87112513Y-117935000D01*
X87009812Y-117945492D01*
X87009800Y-117945495D01*
X86843375Y-118000643D01*
X86694159Y-118092680D01*
X86570180Y-118216659D01*
X86478143Y-118365875D01*
X86422993Y-118532306D01*
X86412500Y-118635012D01*
X86000500Y-118635012D01*
X86000500Y-116701676D01*
X112025000Y-116701676D01*
X112025000Y-116749999D01*
X112025001Y-116750000D01*
X112724999Y-116750000D01*
X112725000Y-116749999D01*
X112725000Y-116025000D01*
X112724999Y-116024999D01*
X112701689Y-116025000D01*
X112701684Y-116025001D01*
X112602401Y-116035142D01*
X112602390Y-116035145D01*
X112441512Y-116088454D01*
X112297270Y-116177425D01*
X112177425Y-116297270D01*
X112088454Y-116441512D01*
X112035143Y-116602396D01*
X112025000Y-116701676D01*
X86000500Y-116701676D01*
X86000500Y-113099500D01*
X86019407Y-113041309D01*
X86068907Y-113005345D01*
X86099500Y-113000500D01*
X127150500Y-113000500D01*
X127208691Y-113019407D01*
G37*
%TD.AperFunction*%
%TA.AperFunction,Conductor*%
G36*
X118090000Y-132600272D02*
G01*
X118090000Y-132699728D01*
X118128060Y-132791614D01*
X118198386Y-132861940D01*
X118290272Y-132900000D01*
X118389728Y-132900000D01*
X118481614Y-132861940D01*
X117885052Y-133458501D01*
X117901853Y-133469727D01*
X117956815Y-133492493D01*
X118003341Y-133532229D01*
X118017625Y-133591724D01*
X117994211Y-133648252D01*
X117988934Y-133653960D01*
X117472394Y-134170503D01*
X117465277Y-134174129D01*
X117460581Y-134180593D01*
X117438530Y-134187757D01*
X117417877Y-134198281D01*
X117402390Y-134199500D01*
X117301925Y-134199500D01*
X117243734Y-134180593D01*
X117219757Y-134152519D01*
X117218977Y-134153086D01*
X117214398Y-134146784D01*
X117214396Y-134146782D01*
X117214395Y-134146780D01*
X117119087Y-134051472D01*
X117119084Y-134051470D01*
X116998999Y-133990283D01*
X116998994Y-133990281D01*
X116998993Y-133990281D01*
X116965780Y-133985020D01*
X116899357Y-133974500D01*
X116899355Y-133974500D01*
X116562611Y-133974500D01*
X116504420Y-133955593D01*
X116492607Y-133945504D01*
X115873577Y-133326474D01*
X115845800Y-133271957D01*
X115855371Y-133211525D01*
X115898636Y-133168260D01*
X115959068Y-133158689D01*
X115998581Y-133174154D01*
X116043714Y-133204311D01*
X116157548Y-133251463D01*
X116278394Y-133275500D01*
X116278396Y-133275500D01*
X116401604Y-133275500D01*
X116401606Y-133275500D01*
X116522452Y-133251463D01*
X116636286Y-133204311D01*
X116738733Y-133135858D01*
X116769996Y-133104595D01*
X116824513Y-133076818D01*
X116884945Y-133086389D01*
X116910004Y-133104595D01*
X116941267Y-133135858D01*
X117043714Y-133204311D01*
X117157548Y-133251463D01*
X117278394Y-133275500D01*
X117278396Y-133275500D01*
X117401604Y-133275500D01*
X117401606Y-133275500D01*
X117522452Y-133251463D01*
X117636286Y-133204311D01*
X117738733Y-133135858D01*
X117825858Y-133048733D01*
X117894311Y-132946286D01*
X117941463Y-132832452D01*
X117965500Y-132711606D01*
X117965500Y-132711597D01*
X117965976Y-132706769D01*
X117967147Y-132706884D01*
X117984407Y-132653763D01*
X117994496Y-132641950D01*
X118128060Y-132508386D01*
X118090000Y-132600272D01*
G37*
%TD.AperFunction*%
%TA.AperFunction,Conductor*%
G36*
X119220253Y-131584892D02*
G01*
X119239498Y-131642972D01*
X119239500Y-131643548D01*
X119239500Y-131950988D01*
X119220593Y-132009179D01*
X119171093Y-132045143D01*
X119159820Y-132048085D01*
X119157549Y-132048536D01*
X119043714Y-132095688D01*
X118941267Y-132164142D01*
X118941263Y-132164145D01*
X118854145Y-132251263D01*
X118854142Y-132251267D01*
X118785688Y-132353714D01*
X118738536Y-132467549D01*
X118714500Y-132588391D01*
X118714024Y-132593231D01*
X118712852Y-132593115D01*
X118695593Y-132646237D01*
X118685504Y-132658050D01*
X118551940Y-132791614D01*
X118590000Y-132699728D01*
X118590000Y-132600272D01*
X118551940Y-132508386D01*
X118481614Y-132438060D01*
X118389728Y-132400000D01*
X118290272Y-132400000D01*
X118198386Y-132438060D01*
X118163223Y-132473223D01*
X118794948Y-131841497D01*
X118778154Y-131830276D01*
X118778152Y-131830275D01*
X118698400Y-131797241D01*
X118651875Y-131757504D01*
X118637591Y-131698010D01*
X118661006Y-131641482D01*
X118713175Y-131609512D01*
X118736286Y-131606777D01*
X118868056Y-131606777D01*
X118967331Y-131596635D01*
X118967343Y-131596632D01*
X119109360Y-131549573D01*
X119170544Y-131549217D01*
X119220253Y-131584892D01*
G37*
%TD.AperFunction*%
%TA.AperFunction,Conductor*%
G36*
X113967945Y-128143767D02*
G01*
X114011210Y-128187032D01*
X114022000Y-128231977D01*
X114022000Y-129312129D01*
X114022001Y-129312136D01*
X114037984Y-129392494D01*
X114037985Y-129392496D01*
X114098873Y-129483620D01*
X114098876Y-129483624D01*
X114190005Y-129544515D01*
X114270367Y-129560500D01*
X114473000Y-129560499D01*
X114531190Y-129579406D01*
X114567154Y-129628906D01*
X114572000Y-129659499D01*
X114572000Y-130152021D01*
X114553093Y-130210212D01*
X114543004Y-130222025D01*
X114155489Y-130609540D01*
X114155488Y-130609539D01*
X114099539Y-130665489D01*
X114059980Y-130734007D01*
X114059978Y-130734011D01*
X114039500Y-130810435D01*
X114039500Y-132045587D01*
X114035296Y-132058525D01*
X114035879Y-132072118D01*
X114026807Y-132084651D01*
X114020593Y-132103778D01*
X114002069Y-132123113D01*
X113998878Y-132125646D01*
X113941267Y-132164142D01*
X113906004Y-132199404D01*
X113901569Y-132202927D01*
X113877949Y-132211737D01*
X113855487Y-132223182D01*
X113849716Y-132222268D01*
X113844242Y-132224310D01*
X113819957Y-132217554D01*
X113795055Y-132213611D01*
X113788402Y-132208777D01*
X113785294Y-132207913D01*
X113782677Y-132204618D01*
X113769996Y-132195405D01*
X113738734Y-132164143D01*
X113684497Y-132127902D01*
X113646619Y-132079851D01*
X113640500Y-132045587D01*
X113640500Y-128415477D01*
X113659407Y-128357286D01*
X113669484Y-128345486D01*
X113852998Y-128161971D01*
X113907513Y-128134196D01*
X113967945Y-128143767D01*
G37*
%TD.AperFunction*%
%TA.AperFunction,Conductor*%
G36*
X117677500Y-129536159D02*
G01*
X117690005Y-129544515D01*
X117770367Y-129560500D01*
X117971131Y-129560499D01*
X118029321Y-129579406D01*
X118065285Y-129628906D01*
X118065286Y-129690091D01*
X118029322Y-129739591D01*
X118023105Y-129743759D01*
X117917002Y-129809205D01*
X117797159Y-129929048D01*
X117708188Y-130073290D01*
X117654877Y-130234174D01*
X117644734Y-130333454D01*
X117644734Y-130381777D01*
X117644735Y-130381778D01*
X118495734Y-130381778D01*
X118553925Y-130400685D01*
X118589889Y-130450185D01*
X118594734Y-130480778D01*
X118594734Y-130782778D01*
X118575827Y-130840969D01*
X118526327Y-130876933D01*
X118495734Y-130881778D01*
X117677963Y-130881778D01*
X117619772Y-130862871D01*
X117592227Y-130832278D01*
X117540503Y-130742690D01*
X117540501Y-130742688D01*
X117540500Y-130742686D01*
X117447314Y-130649500D01*
X117447311Y-130649498D01*
X117447309Y-130649496D01*
X117333189Y-130583609D01*
X117333191Y-130583609D01*
X117283799Y-130570375D01*
X117205892Y-130549500D01*
X117074108Y-130549500D01*
X116996200Y-130570375D01*
X116946809Y-130583609D01*
X116832691Y-130649496D01*
X116832268Y-130649821D01*
X116831907Y-130649948D01*
X116827066Y-130652744D01*
X116826547Y-130651846D01*
X116774592Y-130670245D01*
X116715926Y-130652868D01*
X116678679Y-130604326D01*
X116673000Y-130571279D01*
X116673000Y-129659499D01*
X116691907Y-129601308D01*
X116741407Y-129565344D01*
X116771993Y-129560499D01*
X116974632Y-129560499D01*
X117054995Y-129544515D01*
X117067496Y-129536161D01*
X117126383Y-129519551D01*
X117177500Y-129536159D01*
X117190005Y-129544515D01*
X117270367Y-129560500D01*
X117474632Y-129560499D01*
X117554995Y-129544515D01*
X117567496Y-129536161D01*
X117626383Y-129519551D01*
X117677500Y-129536159D01*
G37*
%TD.AperFunction*%
%TA.AperFunction,Conductor*%
G36*
X106644191Y-127653907D02*
G01*
X106680155Y-127703407D01*
X106685000Y-127734000D01*
X106685000Y-128643949D01*
X106666093Y-128702140D01*
X106656004Y-128713953D01*
X105404004Y-129965953D01*
X105349487Y-129993730D01*
X105289055Y-129984159D01*
X105245790Y-129940894D01*
X105235000Y-129895949D01*
X105235000Y-129625001D01*
X105234999Y-129625000D01*
X104911111Y-129625000D01*
X104852920Y-129606093D01*
X104816956Y-129556593D01*
X104816956Y-129495407D01*
X104841105Y-129455997D01*
X104990490Y-129306614D01*
X105049799Y-129203887D01*
X105051276Y-129198373D01*
X105084601Y-129147061D01*
X105141724Y-129125136D01*
X105146902Y-129125000D01*
X105234999Y-129125000D01*
X105235000Y-129124999D01*
X105235000Y-128827175D01*
X105228598Y-128767629D01*
X105228596Y-128767618D01*
X105178353Y-128632911D01*
X105178352Y-128632909D01*
X105100247Y-128528574D01*
X105100007Y-128527872D01*
X105099407Y-128527436D01*
X105090155Y-128498960D01*
X105080510Y-128470659D01*
X105080500Y-128469245D01*
X105080500Y-128405030D01*
X105099407Y-128346839D01*
X105148907Y-128310875D01*
X105164010Y-128307249D01*
X105243126Y-128294719D01*
X105363220Y-128233528D01*
X105404531Y-128192216D01*
X105459045Y-128164440D01*
X105519477Y-128174011D01*
X105558793Y-128210248D01*
X105637426Y-128337729D01*
X105637426Y-128337730D01*
X105757270Y-128457574D01*
X105901512Y-128546545D01*
X106062396Y-128599856D01*
X106161676Y-128609999D01*
X106185000Y-128609998D01*
X106185000Y-127734000D01*
X106203907Y-127675809D01*
X106253407Y-127639845D01*
X106284000Y-127635000D01*
X106586000Y-127635000D01*
X106644191Y-127653907D01*
G37*
%TD.AperFunction*%
%TA.AperFunction,Conductor*%
G36*
X115129517Y-118446519D02*
G01*
X115151724Y-118477084D01*
X115157935Y-118490404D01*
X115241596Y-118574065D01*
X115241597Y-118574065D01*
X115241598Y-118574066D01*
X115348824Y-118624067D01*
X115348825Y-118624067D01*
X115348827Y-118624068D01*
X115397684Y-118630500D01*
X115397685Y-118630500D01*
X115746314Y-118630500D01*
X115746316Y-118630500D01*
X115791240Y-118624585D01*
X115851398Y-118635734D01*
X115893516Y-118680116D01*
X115901504Y-118740778D01*
X115875796Y-118789644D01*
X115875949Y-118789761D01*
X115875268Y-118790647D01*
X115874170Y-118792736D01*
X115872002Y-118794903D01*
X115871996Y-118794911D01*
X115806109Y-118909030D01*
X115802080Y-118924066D01*
X115772000Y-119036329D01*
X115772000Y-119168113D01*
X115788466Y-119229565D01*
X115793247Y-119247407D01*
X115790044Y-119308509D01*
X115751539Y-119356059D01*
X115732730Y-119365595D01*
X115725013Y-119368521D01*
X115690005Y-119375485D01*
X115668142Y-119390093D01*
X115657610Y-119394088D01*
X115637750Y-119395049D01*
X115618611Y-119400447D01*
X115606636Y-119396556D01*
X115596496Y-119397047D01*
X115585029Y-119389535D01*
X115567501Y-119383840D01*
X115554996Y-119375485D01*
X115554991Y-119375483D01*
X115494938Y-119363537D01*
X115441554Y-119333640D01*
X115435711Y-119326708D01*
X115357595Y-119224906D01*
X115357589Y-119224900D01*
X115237481Y-119132738D01*
X115237477Y-119132736D01*
X115097605Y-119074800D01*
X115097605Y-119074799D01*
X115022500Y-119064911D01*
X115022500Y-119597925D01*
X115021354Y-119601451D01*
X115021523Y-119603004D01*
X115022000Y-119603004D01*
X115022000Y-119607402D01*
X115022024Y-119607624D01*
X115022000Y-119607867D01*
X115022000Y-120282281D01*
X115022001Y-120297500D01*
X115022001Y-120987129D01*
X115022023Y-120987353D01*
X115022001Y-120987453D01*
X115022001Y-120991997D01*
X115021698Y-120991997D01*
X115022500Y-120997061D01*
X115022500Y-121530087D01*
X115097604Y-121520199D01*
X115237477Y-121462263D01*
X115237481Y-121462261D01*
X115357589Y-121370099D01*
X115357599Y-121370089D01*
X115435713Y-121268290D01*
X115483732Y-121234380D01*
X115489250Y-121232591D01*
X115554995Y-121219515D01*
X115578916Y-121203530D01*
X115591977Y-121199298D01*
X115609508Y-121199310D01*
X115626383Y-121194551D01*
X115641104Y-121199334D01*
X115653163Y-121199343D01*
X115662868Y-121206405D01*
X115677500Y-121211159D01*
X115690005Y-121219515D01*
X115770367Y-121235500D01*
X115974632Y-121235499D01*
X116054995Y-121219515D01*
X116067496Y-121211161D01*
X116126383Y-121194551D01*
X116177500Y-121211159D01*
X116190005Y-121219515D01*
X116270367Y-121235500D01*
X116474632Y-121235499D01*
X116554995Y-121219515D01*
X116567496Y-121211161D01*
X116626383Y-121194551D01*
X116677500Y-121211159D01*
X116690005Y-121219515D01*
X116770367Y-121235500D01*
X116974632Y-121235499D01*
X117054995Y-121219515D01*
X117067496Y-121211161D01*
X117126383Y-121194551D01*
X117177500Y-121211159D01*
X117190005Y-121219515D01*
X117270367Y-121235500D01*
X117474632Y-121235499D01*
X117554995Y-121219515D01*
X117567496Y-121211161D01*
X117626383Y-121194551D01*
X117677500Y-121211159D01*
X117690005Y-121219515D01*
X117770367Y-121235500D01*
X117974632Y-121235499D01*
X118054995Y-121219515D01*
X118067496Y-121211161D01*
X118126383Y-121194551D01*
X118177500Y-121211159D01*
X118190005Y-121219515D01*
X118270367Y-121235500D01*
X118474632Y-121235499D01*
X118554995Y-121219515D01*
X118567496Y-121211161D01*
X118626383Y-121194551D01*
X118677500Y-121211159D01*
X118690005Y-121219515D01*
X118770367Y-121235500D01*
X118974632Y-121235499D01*
X119054995Y-121219515D01*
X119067496Y-121211161D01*
X119126383Y-121194551D01*
X119177500Y-121211159D01*
X119190005Y-121219515D01*
X119270367Y-121235500D01*
X119474632Y-121235499D01*
X119554995Y-121219515D01*
X119567496Y-121211161D01*
X119626383Y-121194551D01*
X119677500Y-121211159D01*
X119690005Y-121219515D01*
X119770367Y-121235500D01*
X119974632Y-121235499D01*
X120054995Y-121219515D01*
X120146124Y-121158624D01*
X120207015Y-121067495D01*
X120223000Y-120987133D01*
X120222999Y-120987132D01*
X120223949Y-120982362D01*
X120226248Y-120982819D01*
X120247085Y-120935097D01*
X120299850Y-120904122D01*
X120360745Y-120910079D01*
X120370630Y-120915070D01*
X120417029Y-120941859D01*
X120544323Y-120975967D01*
X120544325Y-120975967D01*
X120676105Y-120975967D01*
X120676107Y-120975967D01*
X120803401Y-120941859D01*
X120803403Y-120941857D01*
X120803405Y-120941857D01*
X120917524Y-120875970D01*
X120917524Y-120875969D01*
X120917529Y-120875967D01*
X120970111Y-120823384D01*
X120994616Y-120810898D01*
X121018253Y-120796833D01*
X121021615Y-120797141D01*
X121024625Y-120795608D01*
X121051792Y-120799910D01*
X121079182Y-120802424D01*
X121081526Y-120804619D01*
X121085057Y-120805179D01*
X121125189Y-120842761D01*
X121126843Y-120845540D01*
X121169564Y-120929385D01*
X121187281Y-120947102D01*
X121193606Y-120957730D01*
X121197763Y-120976095D01*
X121206311Y-120992871D01*
X121204356Y-121005214D01*
X121207116Y-121017405D01*
X121199685Y-121034706D01*
X121196740Y-121053303D01*
X121184408Y-121070275D01*
X121182970Y-121073625D01*
X121181217Y-121074668D01*
X121178534Y-121078361D01*
X121074512Y-121182383D01*
X121074510Y-121182386D01*
X121063569Y-121201337D01*
X121043849Y-121225611D01*
X121036208Y-121232447D01*
X121008387Y-121248511D01*
X120924511Y-121332387D01*
X120924504Y-121332398D01*
X120922405Y-121334277D01*
X120896813Y-121345575D01*
X120871877Y-121358281D01*
X120867202Y-121358648D01*
X120866432Y-121358989D01*
X120865483Y-121358784D01*
X120856390Y-121359500D01*
X120595370Y-121359500D01*
X120595363Y-121359501D01*
X120515005Y-121375484D01*
X120515003Y-121375485D01*
X120423879Y-121436373D01*
X120423873Y-121436379D01*
X120362986Y-121527501D01*
X120362984Y-121527508D01*
X120351038Y-121587561D01*
X120321141Y-121640945D01*
X120314209Y-121646788D01*
X120212406Y-121724904D01*
X120212400Y-121724910D01*
X120120238Y-121845018D01*
X120120236Y-121845022D01*
X120062300Y-121984894D01*
X120062299Y-121984894D01*
X120052411Y-122059999D01*
X120052412Y-122060000D01*
X120585426Y-122060000D01*
X120588952Y-122061145D01*
X120590504Y-122060977D01*
X120590504Y-122060500D01*
X120594905Y-122060499D01*
X120595127Y-122060476D01*
X120595354Y-122060497D01*
X120595367Y-122060500D01*
X121186001Y-122060499D01*
X121244191Y-122079406D01*
X121280155Y-122128906D01*
X121285000Y-122159499D01*
X121285000Y-122260500D01*
X121266093Y-122318691D01*
X121216593Y-122354655D01*
X121186000Y-122359500D01*
X120595371Y-122359500D01*
X120595138Y-122359524D01*
X120585437Y-122360000D01*
X120052412Y-122360000D01*
X120062300Y-122435105D01*
X120120236Y-122574977D01*
X120120238Y-122574981D01*
X120212400Y-122695089D01*
X120212410Y-122695099D01*
X120314209Y-122773212D01*
X120348120Y-122821232D01*
X120349908Y-122826751D01*
X120362985Y-122892495D01*
X120378967Y-122916414D01*
X120383201Y-122929478D01*
X120383187Y-122947012D01*
X120387947Y-122963889D01*
X120383163Y-122978611D01*
X120383154Y-122990664D01*
X120376095Y-123000364D01*
X120371340Y-123014999D01*
X120362985Y-123027503D01*
X120362984Y-123027504D01*
X120347000Y-123107864D01*
X120347000Y-123312129D01*
X120347001Y-123312137D01*
X120362984Y-123392494D01*
X120362986Y-123392498D01*
X120371340Y-123405001D01*
X120387947Y-123463889D01*
X120371340Y-123514999D01*
X120362985Y-123527503D01*
X120362984Y-123527504D01*
X120347000Y-123607864D01*
X120347000Y-123812129D01*
X120347001Y-123812137D01*
X120362984Y-123892494D01*
X120362986Y-123892498D01*
X120371340Y-123905001D01*
X120387947Y-123963889D01*
X120371340Y-124014999D01*
X120362985Y-124027503D01*
X120362984Y-124027504D01*
X120347000Y-124107864D01*
X120347000Y-124312129D01*
X120347001Y-124312137D01*
X120362984Y-124392494D01*
X120362986Y-124392498D01*
X120371340Y-124405001D01*
X120387947Y-124463889D01*
X120371340Y-124514999D01*
X120362985Y-124527503D01*
X120362984Y-124527504D01*
X120347000Y-124607864D01*
X120347000Y-124812129D01*
X120347001Y-124812137D01*
X120362984Y-124892494D01*
X120362986Y-124892498D01*
X120371340Y-124905001D01*
X120387947Y-124963889D01*
X120371340Y-125014999D01*
X120362985Y-125027503D01*
X120362984Y-125027504D01*
X120347000Y-125107864D01*
X120347000Y-125312129D01*
X120347001Y-125312137D01*
X120362984Y-125392494D01*
X120362986Y-125392498D01*
X120371340Y-125405001D01*
X120387947Y-125463889D01*
X120371340Y-125514999D01*
X120362985Y-125527503D01*
X120362984Y-125527504D01*
X120347000Y-125607864D01*
X120347000Y-125812129D01*
X120347001Y-125812137D01*
X120362984Y-125892494D01*
X120362986Y-125892498D01*
X120371340Y-125905001D01*
X120387947Y-125963889D01*
X120371340Y-126014999D01*
X120362985Y-126027503D01*
X120362984Y-126027504D01*
X120347000Y-126107864D01*
X120347000Y-126312129D01*
X120347001Y-126312137D01*
X120362984Y-126392494D01*
X120362986Y-126392498D01*
X120371340Y-126405001D01*
X120387947Y-126463889D01*
X120371340Y-126514999D01*
X120362985Y-126527503D01*
X120362984Y-126527504D01*
X120347000Y-126607864D01*
X120347000Y-126812129D01*
X120347001Y-126812137D01*
X120362984Y-126892494D01*
X120362986Y-126892498D01*
X120371340Y-126905001D01*
X120387947Y-126963889D01*
X120371340Y-127014999D01*
X120362985Y-127027503D01*
X120362984Y-127027504D01*
X120347000Y-127107864D01*
X120347000Y-127312129D01*
X120347001Y-127312137D01*
X120362984Y-127392494D01*
X120362985Y-127392496D01*
X120412558Y-127466686D01*
X120423876Y-127483624D01*
X120515005Y-127544515D01*
X120595367Y-127560500D01*
X121605681Y-127560499D01*
X121663872Y-127579406D01*
X121699836Y-127628906D01*
X121699836Y-127690092D01*
X121675685Y-127729503D01*
X121109137Y-128296052D01*
X121054620Y-128323829D01*
X121039133Y-128325048D01*
X120783254Y-128325048D01*
X120683618Y-128340829D01*
X120683611Y-128340831D01*
X120563526Y-128402018D01*
X120468212Y-128497332D01*
X120463634Y-128503634D01*
X120462256Y-128502632D01*
X120452505Y-128512383D01*
X120438877Y-128531141D01*
X120431278Y-128533609D01*
X120425630Y-128539258D01*
X120380686Y-128550048D01*
X120321999Y-128550048D01*
X120263808Y-128531141D01*
X120227844Y-128481641D01*
X120222999Y-128451048D01*
X120222999Y-127932870D01*
X120222998Y-127932863D01*
X120207015Y-127852505D01*
X120207014Y-127852503D01*
X120146126Y-127761379D01*
X120146124Y-127761376D01*
X120146120Y-127761373D01*
X120054998Y-127700486D01*
X120054995Y-127700485D01*
X120054993Y-127700484D01*
X120054991Y-127700484D01*
X119994938Y-127688538D01*
X119941554Y-127658641D01*
X119935711Y-127651708D01*
X119857599Y-127549910D01*
X119857589Y-127549900D01*
X119737481Y-127457738D01*
X119737477Y-127457736D01*
X119597605Y-127399800D01*
X119597605Y-127399799D01*
X119522500Y-127389911D01*
X119522500Y-127922925D01*
X119521354Y-127926451D01*
X119521523Y-127928004D01*
X119522000Y-127928004D01*
X119522000Y-127932402D01*
X119522024Y-127932624D01*
X119522000Y-127932867D01*
X119522000Y-128523501D01*
X119503094Y-128581691D01*
X119453594Y-128617655D01*
X119423001Y-128622500D01*
X119321999Y-128622500D01*
X119263808Y-128603593D01*
X119227844Y-128554093D01*
X119222999Y-128523500D01*
X119222999Y-127932868D01*
X119222976Y-127932635D01*
X119222500Y-127922936D01*
X119222500Y-127389912D01*
X119222499Y-127389911D01*
X119147394Y-127399799D01*
X119147394Y-127399800D01*
X119007522Y-127457736D01*
X119007518Y-127457738D01*
X118887410Y-127549900D01*
X118887403Y-127549907D01*
X118809287Y-127651710D01*
X118761267Y-127685620D01*
X118755746Y-127687409D01*
X118690005Y-127700485D01*
X118666085Y-127716467D01*
X118653022Y-127720701D01*
X118635486Y-127720687D01*
X118618611Y-127725447D01*
X118603890Y-127720664D01*
X118591837Y-127720655D01*
X118582135Y-127713594D01*
X118567501Y-127708840D01*
X118554996Y-127700485D01*
X118554995Y-127700484D01*
X118474635Y-127684500D01*
X118332320Y-127684500D01*
X118274129Y-127665593D01*
X118238165Y-127616093D01*
X118238165Y-127554907D01*
X118262317Y-127515496D01*
X118270500Y-127507314D01*
X118270503Y-127507309D01*
X118336390Y-127393190D01*
X118336390Y-127393188D01*
X118336392Y-127393186D01*
X118370500Y-127265892D01*
X118370500Y-127134108D01*
X118336392Y-127006814D01*
X118336390Y-127006811D01*
X118336390Y-127006809D01*
X118270503Y-126892690D01*
X118270501Y-126892688D01*
X118270500Y-126892686D01*
X118177314Y-126799500D01*
X118177311Y-126799498D01*
X118177309Y-126799496D01*
X118063189Y-126733609D01*
X118063191Y-126733609D01*
X118013799Y-126720375D01*
X117935892Y-126699500D01*
X117804108Y-126699500D01*
X117726200Y-126720375D01*
X117676809Y-126733609D01*
X117562690Y-126799496D01*
X117469496Y-126892690D01*
X117403609Y-127006809D01*
X117390460Y-127055883D01*
X117369500Y-127134108D01*
X117369500Y-127265892D01*
X117385154Y-127324314D01*
X117403609Y-127393190D01*
X117469496Y-127507309D01*
X117469498Y-127507311D01*
X117469500Y-127507314D01*
X117477684Y-127515498D01*
X117505460Y-127570013D01*
X117495889Y-127630445D01*
X117452624Y-127673710D01*
X117407680Y-127684500D01*
X117270370Y-127684500D01*
X117270362Y-127684501D01*
X117190005Y-127700484D01*
X117190001Y-127700486D01*
X117177499Y-127708840D01*
X117118611Y-127725447D01*
X117067501Y-127708840D01*
X117054996Y-127700485D01*
X117054995Y-127700484D01*
X116974634Y-127684500D01*
X116770370Y-127684500D01*
X116770362Y-127684501D01*
X116690005Y-127700484D01*
X116690001Y-127700486D01*
X116677499Y-127708840D01*
X116618611Y-127725447D01*
X116567501Y-127708840D01*
X116554996Y-127700485D01*
X116554995Y-127700484D01*
X116474634Y-127684500D01*
X116270370Y-127684500D01*
X116270362Y-127684501D01*
X116190005Y-127700484D01*
X116190001Y-127700486D01*
X116177499Y-127708840D01*
X116118611Y-127725447D01*
X116067501Y-127708840D01*
X116054996Y-127700485D01*
X116054995Y-127700484D01*
X115974634Y-127684500D01*
X115770370Y-127684500D01*
X115770362Y-127684501D01*
X115690005Y-127700484D01*
X115690001Y-127700486D01*
X115677499Y-127708840D01*
X115618611Y-127725447D01*
X115567501Y-127708840D01*
X115554996Y-127700485D01*
X115554995Y-127700484D01*
X115474634Y-127684500D01*
X115270370Y-127684500D01*
X115270362Y-127684501D01*
X115190005Y-127700484D01*
X115190001Y-127700486D01*
X115177499Y-127708840D01*
X115118611Y-127725447D01*
X115067501Y-127708840D01*
X115054996Y-127700485D01*
X115054995Y-127700484D01*
X114974634Y-127684500D01*
X114770370Y-127684500D01*
X114770362Y-127684501D01*
X114690005Y-127700484D01*
X114690001Y-127700486D01*
X114677499Y-127708840D01*
X114618611Y-127725447D01*
X114591841Y-127720656D01*
X114578851Y-127716425D01*
X114554995Y-127700485D01*
X114490555Y-127687667D01*
X114484961Y-127685845D01*
X114464740Y-127671132D01*
X114442921Y-127658912D01*
X114440384Y-127653410D01*
X114435486Y-127649846D01*
X114427775Y-127626057D01*
X114417306Y-127603347D01*
X114417871Y-127595503D01*
X114416620Y-127591642D01*
X114418585Y-127585606D01*
X114419994Y-127566087D01*
X114420019Y-127565991D01*
X114420021Y-127565989D01*
X114440500Y-127489562D01*
X114440500Y-126987330D01*
X114459407Y-126929139D01*
X114508907Y-126893175D01*
X114513856Y-126891709D01*
X114611003Y-126865679D01*
X114611005Y-126865677D01*
X114611007Y-126865677D01*
X114725126Y-126799790D01*
X114725126Y-126799789D01*
X114725131Y-126799787D01*
X114818317Y-126706601D01*
X114818320Y-126706596D01*
X114884207Y-126592477D01*
X114884207Y-126592475D01*
X114884209Y-126592473D01*
X114918317Y-126465179D01*
X114918317Y-126333395D01*
X114884209Y-126206101D01*
X114884207Y-126206098D01*
X114884207Y-126206096D01*
X114818320Y-126091977D01*
X114818318Y-126091975D01*
X114818317Y-126091973D01*
X114725131Y-125998787D01*
X114725128Y-125998785D01*
X114725126Y-125998783D01*
X114611006Y-125932896D01*
X114611008Y-125932896D01*
X114545613Y-125915374D01*
X114483709Y-125898787D01*
X114351925Y-125898787D01*
X114351921Y-125898787D01*
X114315637Y-125908509D01*
X114274769Y-125908509D01*
X114274528Y-125910347D01*
X114268092Y-125909500D01*
X114044822Y-125909500D01*
X113986631Y-125890593D01*
X113950667Y-125841093D01*
X113950667Y-125779907D01*
X113984554Y-125731958D01*
X114032592Y-125695096D01*
X114032599Y-125695089D01*
X114124761Y-125574981D01*
X114124763Y-125574977D01*
X114182699Y-125435105D01*
X114182700Y-125435105D01*
X114192588Y-125360000D01*
X113659574Y-125360000D01*
X113656047Y-125358854D01*
X113654496Y-125359022D01*
X113654496Y-125359500D01*
X113650094Y-125359500D01*
X113649873Y-125359524D01*
X113649636Y-125359500D01*
X113649633Y-125359500D01*
X113649629Y-125359500D01*
X112270371Y-125359500D01*
X112270138Y-125359524D01*
X112270033Y-125359500D01*
X112265505Y-125359501D01*
X112265505Y-125359196D01*
X112260437Y-125360000D01*
X111727412Y-125360000D01*
X111713578Y-125375775D01*
X111660995Y-125407059D01*
X111639146Y-125409500D01*
X111620042Y-125409500D01*
X111543619Y-125429978D01*
X111476085Y-125468969D01*
X111476084Y-125468968D01*
X111475096Y-125469539D01*
X111399131Y-125545504D01*
X111344614Y-125573281D01*
X111329128Y-125574500D01*
X110861117Y-125574500D01*
X110761481Y-125590281D01*
X110761476Y-125590282D01*
X110718137Y-125612365D01*
X110657705Y-125621936D01*
X110603189Y-125594158D01*
X110575412Y-125539641D01*
X110584984Y-125479209D01*
X110603190Y-125454151D01*
X111017847Y-125039496D01*
X111072363Y-125011719D01*
X111087850Y-125010500D01*
X111639146Y-125010500D01*
X111697337Y-125029407D01*
X111713578Y-125044225D01*
X111727412Y-125060000D01*
X112260426Y-125060000D01*
X112270127Y-125060476D01*
X112270354Y-125060497D01*
X112270367Y-125060500D01*
X113649632Y-125060499D01*
X113649635Y-125060498D01*
X113649862Y-125060476D01*
X113659563Y-125060000D01*
X114192588Y-125060000D01*
X114192588Y-125059999D01*
X114182699Y-124984894D01*
X114124763Y-124845022D01*
X114124761Y-124845018D01*
X114032599Y-124724910D01*
X114032592Y-124724903D01*
X113930789Y-124646786D01*
X113896880Y-124598767D01*
X113895090Y-124593246D01*
X113882015Y-124527505D01*
X113866031Y-124503584D01*
X113861798Y-124490522D01*
X113861810Y-124472990D01*
X113857051Y-124456114D01*
X113861834Y-124441393D01*
X113861843Y-124429336D01*
X113868905Y-124419630D01*
X113873659Y-124404999D01*
X113882015Y-124392495D01*
X113898000Y-124312133D01*
X113897999Y-124107868D01*
X113893800Y-124086759D01*
X113882944Y-124032176D01*
X113882015Y-124027505D01*
X113873659Y-124014999D01*
X113857051Y-123956114D01*
X113873659Y-123904999D01*
X113882015Y-123892495D01*
X113898000Y-123812133D01*
X113897999Y-123607868D01*
X113882015Y-123527505D01*
X113873659Y-123514999D01*
X113857051Y-123456114D01*
X113873659Y-123404999D01*
X113882015Y-123392495D01*
X113898000Y-123312133D01*
X113897999Y-123107868D01*
X113896921Y-123102450D01*
X113882015Y-123027506D01*
X113882015Y-123027505D01*
X113873659Y-123014999D01*
X113857051Y-122956114D01*
X113873659Y-122904999D01*
X113882015Y-122892495D01*
X113898000Y-122812133D01*
X113897999Y-122607868D01*
X113897789Y-122606814D01*
X113882015Y-122527506D01*
X113882015Y-122527505D01*
X113873659Y-122514999D01*
X113857051Y-122456114D01*
X113873659Y-122404999D01*
X113882015Y-122392495D01*
X113898000Y-122312133D01*
X113897999Y-122107868D01*
X113896141Y-122098529D01*
X113883284Y-122033885D01*
X113882015Y-122027505D01*
X113873659Y-122014999D01*
X113857051Y-121956114D01*
X113873659Y-121904999D01*
X113882015Y-121892495D01*
X113898000Y-121812133D01*
X113897999Y-121607868D01*
X113882015Y-121527505D01*
X113882012Y-121527501D01*
X113821126Y-121436379D01*
X113821124Y-121436376D01*
X113819620Y-121435371D01*
X113729998Y-121375486D01*
X113729995Y-121375485D01*
X113729993Y-121375484D01*
X113729991Y-121375484D01*
X113645116Y-121358600D01*
X113591732Y-121328703D01*
X113566117Y-121273138D01*
X113578055Y-121213128D01*
X113594428Y-121191499D01*
X113817608Y-120968320D01*
X113824724Y-120964694D01*
X113829420Y-120958231D01*
X113851469Y-120951066D01*
X113872124Y-120940543D01*
X113887611Y-120939324D01*
X113931243Y-120939324D01*
X113989434Y-120958231D01*
X114025398Y-121007731D01*
X114028341Y-121019010D01*
X114033611Y-121045504D01*
X114037042Y-121062756D01*
X114037985Y-121067494D01*
X114037985Y-121067496D01*
X114095375Y-121153385D01*
X114098876Y-121158624D01*
X114098879Y-121158626D01*
X114190001Y-121219513D01*
X114190003Y-121219513D01*
X114190005Y-121219515D01*
X114250060Y-121231460D01*
X114303443Y-121261357D01*
X114309287Y-121268290D01*
X114387403Y-121370092D01*
X114387410Y-121370099D01*
X114507518Y-121462261D01*
X114507522Y-121462263D01*
X114647395Y-121520199D01*
X114722499Y-121530087D01*
X114722500Y-121530086D01*
X114722500Y-120997072D01*
X114722977Y-120987363D01*
X114722997Y-120987146D01*
X114723000Y-120987133D01*
X114722999Y-119607868D01*
X114722999Y-119607867D01*
X114722976Y-119607635D01*
X114722500Y-119597936D01*
X114722500Y-119024173D01*
X114722000Y-119019664D01*
X114722000Y-118711932D01*
X114740907Y-118653741D01*
X114779157Y-118622210D01*
X114882404Y-118574065D01*
X114966065Y-118490404D01*
X114972275Y-118477085D01*
X115014003Y-118432337D01*
X115074064Y-118420662D01*
X115129517Y-118446519D01*
G37*
%TD.AperFunction*%
%TA.AperFunction,Conductor*%
G36*
X110448217Y-125687921D02*
G01*
X110463707Y-125690375D01*
X110474794Y-125701462D01*
X110488764Y-125708580D01*
X110495883Y-125722551D01*
X110506972Y-125733640D01*
X110509424Y-125749126D01*
X110516543Y-125763096D01*
X110514090Y-125778584D01*
X110516543Y-125794072D01*
X110506972Y-125823529D01*
X110484889Y-125866869D01*
X110484888Y-125866874D01*
X110469107Y-125966510D01*
X110469107Y-126483489D01*
X110472947Y-126507735D01*
X110481304Y-126560500D01*
X110484888Y-126583125D01*
X110484890Y-126583132D01*
X110546077Y-126703217D01*
X110546079Y-126703220D01*
X110587390Y-126744531D01*
X110615166Y-126799046D01*
X110605595Y-126859478D01*
X110569358Y-126898793D01*
X110441877Y-126977425D01*
X110322032Y-127097270D01*
X110253759Y-127207957D01*
X110207118Y-127247558D01*
X110146107Y-127252181D01*
X110094032Y-127220059D01*
X110070782Y-127163464D01*
X110070499Y-127155984D01*
X110070499Y-126975683D01*
X110066608Y-126946127D01*
X110064067Y-126926825D01*
X110053890Y-126905001D01*
X110014065Y-126819596D01*
X110014064Y-126819595D01*
X110014064Y-126819594D01*
X109930403Y-126735933D01*
X109930401Y-126735932D01*
X109930400Y-126735931D01*
X109907658Y-126725326D01*
X109862911Y-126683596D01*
X109850499Y-126635602D01*
X109850499Y-126247849D01*
X109869406Y-126189658D01*
X109879489Y-126177851D01*
X110026645Y-126030696D01*
X110026644Y-126030696D01*
X110348759Y-125708581D01*
X110362728Y-125701463D01*
X110373816Y-125690376D01*
X110389303Y-125687922D01*
X110403275Y-125680804D01*
X110418761Y-125683256D01*
X110434247Y-125680804D01*
X110448217Y-125687921D01*
G37*
%TD.AperFunction*%
%TA.AperFunction,Conductor*%
G36*
X111940553Y-120958231D02*
G01*
X111952359Y-120968314D01*
X112046397Y-121062352D01*
X112046399Y-121062353D01*
X112166484Y-121123540D01*
X112166486Y-121123540D01*
X112166491Y-121123543D01*
X112242158Y-121135527D01*
X112266127Y-121139324D01*
X112266129Y-121139324D01*
X112500500Y-121139324D01*
X112515412Y-121144169D01*
X112531093Y-121144169D01*
X112543778Y-121153385D01*
X112558691Y-121158231D01*
X112567907Y-121170916D01*
X112580593Y-121180133D01*
X112585438Y-121195045D01*
X112594655Y-121207731D01*
X112599500Y-121238324D01*
X112599500Y-121260500D01*
X112580593Y-121318691D01*
X112531093Y-121354655D01*
X112500500Y-121359500D01*
X112270370Y-121359500D01*
X112270363Y-121359501D01*
X112190005Y-121375484D01*
X112190003Y-121375485D01*
X112098879Y-121436373D01*
X112098873Y-121436379D01*
X112037986Y-121527501D01*
X112037986Y-121527503D01*
X112037985Y-121527505D01*
X112026039Y-121587561D01*
X112022000Y-121607867D01*
X112022000Y-121812129D01*
X112022001Y-121812137D01*
X112037984Y-121892494D01*
X112037986Y-121892498D01*
X112046340Y-121905001D01*
X112062947Y-121963889D01*
X112046340Y-122014999D01*
X112037985Y-122027503D01*
X112037984Y-122027504D01*
X112022000Y-122107864D01*
X112022000Y-122312129D01*
X112022001Y-122312137D01*
X112037984Y-122392494D01*
X112037986Y-122392498D01*
X112046340Y-122405001D01*
X112062947Y-122463889D01*
X112046340Y-122514999D01*
X112037985Y-122527503D01*
X112037984Y-122527504D01*
X112022000Y-122607864D01*
X112022000Y-122812129D01*
X112022001Y-122812137D01*
X112037984Y-122892494D01*
X112037986Y-122892498D01*
X112046340Y-122905001D01*
X112062947Y-122963889D01*
X112046340Y-123014999D01*
X112037985Y-123027503D01*
X112037984Y-123027504D01*
X112022000Y-123107864D01*
X112022000Y-123312129D01*
X112022001Y-123312137D01*
X112037984Y-123392494D01*
X112037986Y-123392498D01*
X112046340Y-123405001D01*
X112062947Y-123463889D01*
X112046340Y-123514999D01*
X112037985Y-123527503D01*
X112037984Y-123527504D01*
X112022000Y-123607864D01*
X112022000Y-123812129D01*
X112022001Y-123812137D01*
X112037984Y-123892494D01*
X112037986Y-123892498D01*
X112046340Y-123905001D01*
X112062947Y-123963889D01*
X112046340Y-124014999D01*
X112037985Y-124027503D01*
X112037984Y-124027504D01*
X112022000Y-124107864D01*
X112022000Y-124107867D01*
X112022001Y-124310500D01*
X112003094Y-124368690D01*
X111953594Y-124404654D01*
X111923001Y-124409500D01*
X110882806Y-124409500D01*
X110806382Y-124429978D01*
X110756108Y-124459005D01*
X110756104Y-124459007D01*
X110737863Y-124469537D01*
X110737860Y-124469540D01*
X109601674Y-125605724D01*
X109601674Y-125605725D01*
X109126674Y-126080725D01*
X108796962Y-126410438D01*
X108475180Y-126732220D01*
X108420663Y-126759997D01*
X108405176Y-126761216D01*
X107937165Y-126761216D01*
X107837529Y-126776997D01*
X107837522Y-126776999D01*
X107717437Y-126838186D01*
X107622125Y-126933498D01*
X107560938Y-127053583D01*
X107560936Y-127053590D01*
X107544751Y-127155772D01*
X107516973Y-127210288D01*
X107462456Y-127238065D01*
X107402024Y-127228493D01*
X107358760Y-127185228D01*
X107352995Y-127171423D01*
X107321545Y-127076513D01*
X107232574Y-126932270D01*
X107129307Y-126829003D01*
X107101530Y-126774486D01*
X107111101Y-126714054D01*
X107154366Y-126670789D01*
X107199311Y-126659999D01*
X107429986Y-126659999D01*
X107532687Y-126649507D01*
X107532699Y-126649504D01*
X107699124Y-126594356D01*
X107848340Y-126502319D01*
X107972319Y-126378340D01*
X108064356Y-126229124D01*
X108119506Y-126062693D01*
X108130000Y-125959987D01*
X108130000Y-125810001D01*
X108129999Y-125810000D01*
X105730002Y-125810000D01*
X105730001Y-125810001D01*
X105730001Y-125959986D01*
X105740492Y-126062687D01*
X105740495Y-126062699D01*
X105795643Y-126229124D01*
X105887680Y-126378340D01*
X106011657Y-126502317D01*
X106025689Y-126510972D01*
X106065291Y-126557612D01*
X106069916Y-126618623D01*
X106037796Y-126670699D01*
X106004858Y-126689209D01*
X105901512Y-126723454D01*
X105757270Y-126812425D01*
X105637425Y-126932270D01*
X105558793Y-127059751D01*
X105512152Y-127099352D01*
X105451141Y-127103975D01*
X105404531Y-127077783D01*
X105363220Y-127036472D01*
X105363217Y-127036470D01*
X105243125Y-126975279D01*
X105238904Y-126973908D01*
X105189405Y-126937943D01*
X105170500Y-126879755D01*
X105170500Y-126253412D01*
X105189407Y-126195221D01*
X105189716Y-126194798D01*
X105242793Y-126122882D01*
X105287646Y-125994699D01*
X105290499Y-125964273D01*
X105290500Y-125964273D01*
X105290500Y-125160012D01*
X105730000Y-125160012D01*
X105730000Y-125309999D01*
X105730001Y-125310000D01*
X106679999Y-125310000D01*
X106680000Y-125309999D01*
X106680000Y-124460001D01*
X107180000Y-124460001D01*
X107180000Y-125309999D01*
X107180001Y-125310000D01*
X108129998Y-125310000D01*
X108129999Y-125309999D01*
X108129999Y-125160013D01*
X108119507Y-125057312D01*
X108119504Y-125057300D01*
X108064356Y-124890875D01*
X107972319Y-124741659D01*
X107848340Y-124617680D01*
X107699124Y-124525643D01*
X107532693Y-124470493D01*
X107429987Y-124460000D01*
X107180001Y-124460000D01*
X107180000Y-124460001D01*
X106680000Y-124460001D01*
X106679999Y-124460000D01*
X106430013Y-124460000D01*
X106327312Y-124470492D01*
X106327300Y-124470495D01*
X106160875Y-124525643D01*
X106011659Y-124617680D01*
X105887680Y-124741659D01*
X105795643Y-124890875D01*
X105740493Y-125057306D01*
X105730000Y-125160012D01*
X105290500Y-125160012D01*
X105290500Y-125155727D01*
X105290499Y-125155725D01*
X105290367Y-125154313D01*
X105287646Y-125125301D01*
X105242793Y-124997118D01*
X105242790Y-124997114D01*
X105162154Y-124887855D01*
X105162152Y-124887853D01*
X105162150Y-124887850D01*
X105162146Y-124887847D01*
X105162144Y-124887845D01*
X105052883Y-124807207D01*
X104924703Y-124762355D01*
X104924699Y-124762354D01*
X104924697Y-124762353D01*
X104918815Y-124761069D01*
X104919434Y-124758234D01*
X104873962Y-124738508D01*
X104842864Y-124685814D01*
X104840500Y-124664307D01*
X104840500Y-124255692D01*
X104859407Y-124197501D01*
X104908907Y-124161537D01*
X104918932Y-124159468D01*
X104918815Y-124158931D01*
X104924689Y-124157646D01*
X104924699Y-124157646D01*
X105052882Y-124112793D01*
X105162150Y-124032150D01*
X105242793Y-123922882D01*
X105287646Y-123794699D01*
X105290499Y-123764273D01*
X105290500Y-123764273D01*
X105290500Y-123137611D01*
X105309407Y-123079420D01*
X105319496Y-123067607D01*
X105431378Y-122955725D01*
X106029500Y-122955725D01*
X106029500Y-123764274D01*
X106032353Y-123794694D01*
X106032355Y-123794703D01*
X106077207Y-123922883D01*
X106157845Y-124032144D01*
X106157847Y-124032146D01*
X106157850Y-124032150D01*
X106157853Y-124032152D01*
X106157855Y-124032154D01*
X106267116Y-124112792D01*
X106267117Y-124112792D01*
X106267118Y-124112793D01*
X106395301Y-124157646D01*
X106425725Y-124160499D01*
X106425727Y-124160500D01*
X106425734Y-124160500D01*
X107434273Y-124160500D01*
X107434273Y-124160499D01*
X107464699Y-124157646D01*
X107592882Y-124112793D01*
X107702150Y-124032150D01*
X107782793Y-123922882D01*
X107827646Y-123794699D01*
X107830499Y-123764273D01*
X107830500Y-123764273D01*
X107830500Y-123515477D01*
X107832968Y-123507879D01*
X107831719Y-123499990D01*
X107842243Y-123479334D01*
X107849407Y-123457286D01*
X107859485Y-123445485D01*
X107975475Y-123329494D01*
X108029990Y-123301719D01*
X108045477Y-123300500D01*
X108145890Y-123300500D01*
X108145892Y-123300500D01*
X108273186Y-123266392D01*
X108273188Y-123266390D01*
X108273190Y-123266390D01*
X108387309Y-123200503D01*
X108387309Y-123200502D01*
X108387314Y-123200500D01*
X108480500Y-123107314D01*
X108487096Y-123095890D01*
X108546390Y-122993190D01*
X108546390Y-122993188D01*
X108546392Y-122993186D01*
X108580500Y-122865892D01*
X108580500Y-122734108D01*
X108546392Y-122606814D01*
X108546390Y-122606811D01*
X108546390Y-122606809D01*
X108480503Y-122492690D01*
X108480501Y-122492688D01*
X108480500Y-122492686D01*
X108387314Y-122399500D01*
X108387311Y-122399498D01*
X108387309Y-122399496D01*
X108273189Y-122333609D01*
X108273191Y-122333609D01*
X108193039Y-122312133D01*
X108145892Y-122299500D01*
X108014108Y-122299500D01*
X107966961Y-122312133D01*
X107886809Y-122333609D01*
X107772690Y-122399496D01*
X107679498Y-122492688D01*
X107650947Y-122542139D01*
X107605476Y-122583080D01*
X107544626Y-122589474D01*
X107532514Y-122586083D01*
X107496172Y-122573367D01*
X107464699Y-122562354D01*
X107464697Y-122562353D01*
X107464694Y-122562353D01*
X107434274Y-122559500D01*
X107434266Y-122559500D01*
X106425734Y-122559500D01*
X106425725Y-122559500D01*
X106395305Y-122562353D01*
X106395296Y-122562355D01*
X106267116Y-122607207D01*
X106157855Y-122687845D01*
X106157845Y-122687855D01*
X106077207Y-122797116D01*
X106032355Y-122925296D01*
X106032353Y-122925305D01*
X106029500Y-122955725D01*
X105431378Y-122955725D01*
X105589987Y-122797116D01*
X105900490Y-122486614D01*
X105900490Y-122486612D01*
X105908640Y-122478463D01*
X105908641Y-122478460D01*
X106080489Y-122306614D01*
X106080490Y-122306613D01*
X106182608Y-122204496D01*
X106237125Y-122176719D01*
X106252611Y-122175500D01*
X106283490Y-122175500D01*
X106304885Y-122172111D01*
X106383126Y-122159719D01*
X106503220Y-122098528D01*
X106597253Y-122004494D01*
X106651768Y-121976719D01*
X106667255Y-121975500D01*
X109250198Y-121975500D01*
X109250200Y-121975500D01*
X109343650Y-121950460D01*
X109364778Y-121944799D01*
X109451808Y-121894552D01*
X109467500Y-121885492D01*
X109467500Y-121885491D01*
X109467505Y-121885489D01*
X110384674Y-120968320D01*
X110439191Y-120940543D01*
X110454678Y-120939324D01*
X111882362Y-120939324D01*
X111940553Y-120958231D01*
G37*
%TD.AperFunction*%
%TA.AperFunction,Conductor*%
G36*
X122341661Y-124972548D02*
G01*
X122440636Y-124999068D01*
X122440638Y-124999068D01*
X122541049Y-124999068D01*
X122599240Y-125017975D01*
X122611053Y-125028064D01*
X122687500Y-125104511D01*
X122687499Y-125104511D01*
X122743449Y-125160460D01*
X122811967Y-125200019D01*
X122811971Y-125200021D01*
X122888395Y-125220499D01*
X122888397Y-125220500D01*
X122888398Y-125220500D01*
X124046060Y-125220500D01*
X124057562Y-125224237D01*
X124069622Y-125223345D01*
X124085965Y-125233465D01*
X124104251Y-125239407D01*
X124111359Y-125249191D01*
X124121641Y-125255558D01*
X124128914Y-125273352D01*
X124140215Y-125288907D01*
X124140215Y-125301001D01*
X124144790Y-125312195D01*
X124140215Y-125329560D01*
X124140215Y-125350093D01*
X124130228Y-125371622D01*
X124129319Y-125373088D01*
X124100133Y-125416769D01*
X124099121Y-125421853D01*
X124091589Y-125434017D01*
X124074057Y-125448849D01*
X124059144Y-125466309D01*
X124047514Y-125471305D01*
X124044878Y-125473536D01*
X124041790Y-125473764D01*
X124033044Y-125477522D01*
X123972618Y-125493713D01*
X123972617Y-125493712D01*
X123948407Y-125500200D01*
X123948405Y-125500200D01*
X123948405Y-125500201D01*
X123885502Y-125536518D01*
X123845678Y-125559510D01*
X122360674Y-127044513D01*
X122338357Y-127055883D01*
X122317541Y-127069792D01*
X122311523Y-127069555D01*
X122306157Y-127072290D01*
X122281420Y-127068372D01*
X122256403Y-127067389D01*
X122251674Y-127063661D01*
X122245725Y-127062719D01*
X122208354Y-127029509D01*
X122198659Y-127014999D01*
X122182051Y-126956111D01*
X122198659Y-126904999D01*
X122207015Y-126892495D01*
X122223000Y-126812133D01*
X122222999Y-126607868D01*
X122220311Y-126594356D01*
X122207015Y-126527506D01*
X122207015Y-126527505D01*
X122198659Y-126514999D01*
X122182051Y-126456114D01*
X122198659Y-126404999D01*
X122207015Y-126392495D01*
X122223000Y-126312133D01*
X122222999Y-126107868D01*
X122207015Y-126027505D01*
X122198659Y-126014999D01*
X122182051Y-125956114D01*
X122198659Y-125904999D01*
X122207015Y-125892495D01*
X122223000Y-125812133D01*
X122222999Y-125607868D01*
X122207015Y-125527505D01*
X122198659Y-125514999D01*
X122182051Y-125456114D01*
X122198659Y-125404999D01*
X122207015Y-125392495D01*
X122223000Y-125312133D01*
X122222999Y-125107868D01*
X122222998Y-125107864D01*
X122222998Y-125107860D01*
X122218946Y-125087492D01*
X122226136Y-125026731D01*
X122267668Y-124981800D01*
X122327677Y-124969862D01*
X122341661Y-124972548D01*
G37*
%TD.AperFunction*%
%TA.AperFunction,Conductor*%
G36*
X119284712Y-116951407D02*
G01*
X119296525Y-116961496D01*
X119700504Y-117365475D01*
X119728281Y-117419992D01*
X119729500Y-117435479D01*
X119729500Y-117664314D01*
X119735932Y-117713174D01*
X119735932Y-117713175D01*
X119785933Y-117820401D01*
X119785934Y-117820402D01*
X119785935Y-117820404D01*
X119869596Y-117904065D01*
X119869597Y-117904065D01*
X119869598Y-117904066D01*
X119882915Y-117910276D01*
X119927663Y-117952005D01*
X119939337Y-118012066D01*
X119913478Y-118067518D01*
X119882915Y-118089724D01*
X119869598Y-118095933D01*
X119785934Y-118179597D01*
X119780611Y-118191012D01*
X119738881Y-118235758D01*
X119678819Y-118247431D01*
X119623367Y-118221570D01*
X119600220Y-118183939D01*
X119598878Y-118184520D01*
X119596404Y-118178803D01*
X119514738Y-118040714D01*
X119401285Y-117927261D01*
X119263196Y-117845595D01*
X119263194Y-117845594D01*
X119124000Y-117805154D01*
X119124000Y-118519000D01*
X119105093Y-118577191D01*
X119055593Y-118613155D01*
X119025000Y-118618000D01*
X118723000Y-118618000D01*
X118664809Y-118599093D01*
X118628845Y-118549593D01*
X118624000Y-118519000D01*
X118624000Y-117805154D01*
X118484805Y-117845594D01*
X118484803Y-117845595D01*
X118346714Y-117927261D01*
X118233261Y-118040714D01*
X118215911Y-118070052D01*
X118170015Y-118110514D01*
X118109101Y-118116272D01*
X118088861Y-118109381D01*
X118077182Y-118103935D01*
X118077175Y-118103933D01*
X118077173Y-118103932D01*
X118028316Y-118097500D01*
X117679684Y-118097500D01*
X117663398Y-118099644D01*
X117630825Y-118103932D01*
X117630824Y-118103932D01*
X117523598Y-118153933D01*
X117439933Y-118237598D01*
X117389932Y-118344824D01*
X117389932Y-118344825D01*
X117389932Y-118344827D01*
X117383615Y-118392815D01*
X117383500Y-118393685D01*
X117383500Y-118427110D01*
X117380127Y-118452732D01*
X117367627Y-118499384D01*
X117334303Y-118550699D01*
X117277182Y-118572626D01*
X117218081Y-118556791D01*
X117179576Y-118509241D01*
X117173000Y-118473762D01*
X117173000Y-118029929D01*
X117191907Y-117971738D01*
X117201996Y-117959925D01*
X117302494Y-117859427D01*
X117357011Y-117831650D01*
X117372498Y-117830431D01*
X117899632Y-117830431D01*
X117899632Y-117830430D01*
X117976058Y-117809952D01*
X118044580Y-117770391D01*
X118100529Y-117714442D01*
X118753475Y-117061494D01*
X118807992Y-117033718D01*
X118823479Y-117032499D01*
X118975185Y-117032499D01*
X118975188Y-117032499D01*
X119000315Y-117029585D01*
X119103089Y-116984206D01*
X119114445Y-116972849D01*
X119125801Y-116961495D01*
X119132916Y-116957869D01*
X119137612Y-116951407D01*
X119159664Y-116944241D01*
X119180318Y-116933719D01*
X119195803Y-116932500D01*
X119226521Y-116932500D01*
X119284712Y-116951407D01*
G37*
%TD.AperFunction*%
%TD*%
M02*
