%TF.GenerationSoftware,KiCad,Pcbnew,9.0.7*%
%TF.CreationDate,2026-03-11T14:19:02+01:00*%
%TF.ProjectId,Temp-Project,54656d70-2d50-4726-9f6a-6563742e6b69,rev?*%
%TF.SameCoordinates,Original*%
%TF.FileFunction,Copper,L2,Bot*%
%TF.FilePolarity,Positive*%
%FSLAX46Y46*%
G04 Gerber Fmt 4.6, Leading zero omitted, Abs format (unit mm)*
G04 Created by KiCad (PCBNEW 9.0.7) date 2026-03-11 14:19:02*
%MOMM*%
%LPD*%
G01*
G04 APERTURE LIST*
%TA.AperFunction,ComponentPad*%
%ADD10R,1.700000X1.700000*%
%TD*%
%TA.AperFunction,ComponentPad*%
%ADD11C,1.700000*%
%TD*%
%TA.AperFunction,ComponentPad*%
%ADD12C,3.800000*%
%TD*%
%TA.AperFunction,ViaPad*%
%ADD13C,0.600000*%
%TD*%
%TA.AperFunction,Conductor*%
%ADD14C,0.200000*%
%TD*%
%TA.AperFunction,Conductor*%
%ADD15C,0.500000*%
%TD*%
G04 APERTURE END LIST*
D10*
%TO.P,J2,1,Pin_1*%
%TO.N,+3.3V*%
X125390000Y-129080000D03*
D11*
%TO.P,J2,2,Pin_2*%
%TO.N,SWCLK*%
X125390000Y-126540000D03*
%TO.P,J2,3,Pin_3*%
%TO.N,GND*%
X125390000Y-124000000D03*
%TO.P,J2,4,Pin_4*%
%TO.N,SWDIO*%
X125390000Y-121460000D03*
%TO.P,J2,5*%
%TO.N,N/C*%
X125390000Y-118920000D03*
%TD*%
D10*
%TO.P,J3,1,Pin_1*%
%TO.N,R0_in*%
X107505000Y-116870000D03*
D11*
%TO.P,J3,2,Pin_2*%
%TO.N,T0_out*%
X110045000Y-116870000D03*
%TD*%
D10*
%TO.P,J4,1,Pin_1*%
%TO.N,SPI_dc_master*%
X107240000Y-133170000D03*
D11*
%TO.P,J4,2,Pin_2*%
%TO.N,SPI_rst_master*%
X109780000Y-133170000D03*
%TO.P,J4,3,Pin_3*%
%TO.N,SPI_cs_master*%
X112320000Y-133170000D03*
%TO.P,J4,4,Pin_4*%
%TO.N,+3.3V*%
X114860000Y-133170000D03*
%TO.P,J4,5,Pin_5*%
%TO.N,SPI_mosi_master*%
X117400000Y-133170000D03*
%TO.P,J4,6,Pin_6*%
%TO.N,SPI_sck_master*%
X119940000Y-133170000D03*
%TO.P,J4,7,Pin_7*%
%TO.N,GND*%
X122480000Y-133170000D03*
%TO.P,J4,8,Pin_8*%
%TO.N,+3.3V*%
X125020000Y-133170000D03*
%TD*%
D12*
%TO.P,H3,1,1*%
%TO.N,GND*%
X129180000Y-133410000D03*
%TD*%
%TO.P,,1,1*%
%TO.N,GND*%
X88000000Y-115000000D03*
%TD*%
%TO.P,H4,1,1*%
%TO.N,GND*%
X88060000Y-133300000D03*
%TD*%
%TO.P,H2,1,1*%
%TO.N,GND*%
X129180000Y-115000000D03*
%TD*%
D13*
%TO.N,+3.3V*%
X111640000Y-121410000D03*
X111580000Y-124270000D03*
%TO.N,GND*%
X97950000Y-123830000D03*
X114700000Y-113490000D03*
X121780000Y-113900000D03*
X118874000Y-118618000D03*
X129610000Y-122110000D03*
X88265000Y-124460000D03*
X105660000Y-129010000D03*
X87880000Y-117340000D03*
X94090000Y-125010000D03*
X101030000Y-134720000D03*
X115140000Y-118950000D03*
X104430000Y-134720000D03*
X107190000Y-129830000D03*
X93030000Y-119590000D03*
X104140000Y-113650000D03*
X125180000Y-113900000D03*
X97630000Y-134720000D03*
X107320000Y-120470000D03*
X114450000Y-124810000D03*
X93940000Y-113650000D03*
X90770000Y-131720000D03*
X103430000Y-127460000D03*
X110920000Y-119270000D03*
X97340000Y-113650000D03*
X90530000Y-113780000D03*
X107540000Y-113650000D03*
X119960000Y-122200000D03*
X119390000Y-127290000D03*
X90830000Y-134720000D03*
X110940000Y-113650000D03*
X129610000Y-118710000D03*
X129610000Y-128910000D03*
X129610000Y-125510000D03*
X100740000Y-113650000D03*
X94230000Y-134720000D03*
X114910000Y-121640000D03*
%TO.N,Clock_Out*%
X108080000Y-122800000D03*
X107610000Y-119360000D03*
%TO.N,SWCLK*%
X122850000Y-125080000D03*
X120610215Y-120475467D03*
%TO.N,SPI_dc_master*%
X112740000Y-128450000D03*
X114387115Y-126370000D03*
%TO.N,SPI_sck_master*%
X117180000Y-129970000D03*
X116873601Y-127385000D03*
%TO.N,SPI_cs_master*%
X115772500Y-131346166D03*
X114030000Y-131920000D03*
%TO.N,SPI_rst_master*%
X112240000Y-131190000D03*
X114803528Y-127385002D03*
%TO.N,Net-(U2-BOOT0)*%
X117854000Y-118618000D03*
X116272500Y-119102221D03*
%TO.N,T0_out*%
X112086307Y-127321375D03*
%TO.N,R0_in*%
X113480735Y-128950735D03*
%TO.N,+5V*%
X100655139Y-125534861D03*
X102000000Y-123030000D03*
%TD*%
D14*
%TO.N,SWCLK*%
X120610215Y-120999785D02*
X120610215Y-120475467D01*
X120011000Y-121599000D02*
X120610215Y-120999785D01*
X119480057Y-121830000D02*
X119711057Y-121599000D01*
X119480000Y-121830000D02*
X119480057Y-121830000D01*
X119290000Y-122850000D02*
X119290000Y-122020000D01*
X120938568Y-124498568D02*
X119290000Y-122850000D01*
X122268568Y-124498568D02*
X120938568Y-124498568D01*
X119290000Y-122020000D02*
X119480000Y-121830000D01*
X122850000Y-125080000D02*
X122268568Y-124498568D01*
X119711057Y-121599000D02*
X120011000Y-121599000D01*
%TO.N,SPI_sck_master*%
X117180000Y-127690000D02*
X117180000Y-129970000D01*
X116875000Y-127385000D02*
X117180000Y-127690000D01*
X116873601Y-127385000D02*
X116875000Y-127385000D01*
%TO.N,SPI_cs_master*%
X115772501Y-131346167D02*
X115772500Y-131346166D01*
X115772501Y-131467499D02*
X115772501Y-131346167D01*
X115670000Y-131570000D02*
X115772501Y-131467499D01*
X114460000Y-131570000D02*
X115670000Y-131570000D01*
X114410000Y-131620000D02*
X114460000Y-131570000D01*
X114030000Y-131920000D02*
X114330000Y-131620000D01*
X114330000Y-131620000D02*
X114410000Y-131620000D01*
D15*
%TO.N,+3.3V*%
X111580000Y-121470000D02*
X111640000Y-121410000D01*
X111580000Y-124270000D02*
X111580000Y-121470000D01*
D14*
%TO.N,Clock_Out*%
X108080000Y-119830000D02*
X108080000Y-122800000D01*
X107610000Y-119360000D02*
X108080000Y-119830000D01*
%TO.N,SPI_dc_master*%
X114387115Y-126370000D02*
X114417817Y-126400702D01*
X112890000Y-128450000D02*
X112740000Y-128450000D01*
X114417817Y-126922183D02*
X112890000Y-128450000D01*
X114417817Y-126400702D02*
X114417817Y-126922183D01*
%TO.N,SPI_rst_master*%
X115260000Y-128020000D02*
X115260000Y-127841474D01*
X112240000Y-131040000D02*
X115260000Y-128020000D01*
X112240000Y-131190000D02*
X112240000Y-131040000D01*
X115260000Y-127841474D02*
X114803528Y-127385002D01*
%TO.N,Net-(U2-BOOT0)*%
X116272500Y-119102221D02*
X117371779Y-119102221D01*
X117371779Y-119102221D02*
X117856000Y-118618000D01*
X117856000Y-118618000D02*
X117854000Y-118618000D01*
%TO.N,T0_out*%
X109290000Y-125190000D02*
X111260000Y-127160000D01*
X111260000Y-127160000D02*
X111770000Y-127160000D01*
X111931375Y-127321375D02*
X112086307Y-127321375D01*
X109290000Y-117625000D02*
X109290000Y-125190000D01*
X111770000Y-127160000D02*
X111931375Y-127321375D01*
X110045000Y-116870000D02*
X109290000Y-117625000D01*
%TO.N,R0_in*%
X110750000Y-129050000D02*
X108780000Y-127080000D01*
X108780000Y-118145000D02*
X107505000Y-116870000D01*
X113320000Y-129050000D02*
X110750000Y-129050000D01*
X113419265Y-128950735D02*
X113320000Y-129050000D01*
X108780000Y-127080000D02*
X108780000Y-118145000D01*
X113480735Y-128950735D02*
X113419265Y-128950735D01*
D15*
%TO.N,+5V*%
X102000000Y-124250000D02*
X102000000Y-123030000D01*
X100715139Y-125534861D02*
X102000000Y-124250000D01*
X100655139Y-125534861D02*
X100715139Y-125534861D01*
%TD*%
%TA.AperFunction,Conductor*%
%TO.N,GND*%
G36*
X131178691Y-113019407D02*
G01*
X131214655Y-113068907D01*
X131219500Y-113099500D01*
X131219500Y-135400500D01*
X131200593Y-135458691D01*
X131151093Y-135494655D01*
X131120500Y-135499500D01*
X86099500Y-135499500D01*
X86041309Y-135480593D01*
X86005345Y-135431093D01*
X86000500Y-135400500D01*
X86000500Y-132300253D01*
X106189500Y-132300253D01*
X106189500Y-134039746D01*
X106189501Y-134039758D01*
X106201132Y-134098227D01*
X106201134Y-134098233D01*
X106239783Y-134156074D01*
X106245448Y-134164552D01*
X106311769Y-134208867D01*
X106356231Y-134217711D01*
X106370241Y-134220498D01*
X106370246Y-134220498D01*
X106370252Y-134220500D01*
X106370253Y-134220500D01*
X108109747Y-134220500D01*
X108109748Y-134220500D01*
X108168231Y-134208867D01*
X108234552Y-134164552D01*
X108278867Y-134098231D01*
X108290500Y-134039748D01*
X108290500Y-133066532D01*
X108729500Y-133066532D01*
X108729500Y-133273467D01*
X108769869Y-133476418D01*
X108849058Y-133667597D01*
X108964020Y-133839651D01*
X108964023Y-133839655D01*
X109110345Y-133985977D01*
X109282402Y-134100941D01*
X109473580Y-134180130D01*
X109676535Y-134220500D01*
X109676536Y-134220500D01*
X109883464Y-134220500D01*
X109883465Y-134220500D01*
X110086420Y-134180130D01*
X110277598Y-134100941D01*
X110449655Y-133985977D01*
X110595977Y-133839655D01*
X110710941Y-133667598D01*
X110790130Y-133476420D01*
X110830500Y-133273465D01*
X110830500Y-133066535D01*
X110830499Y-133066532D01*
X111269500Y-133066532D01*
X111269500Y-133273467D01*
X111309869Y-133476418D01*
X111389058Y-133667597D01*
X111504020Y-133839651D01*
X111504023Y-133839655D01*
X111650345Y-133985977D01*
X111822402Y-134100941D01*
X112013580Y-134180130D01*
X112216535Y-134220500D01*
X112216536Y-134220500D01*
X112423464Y-134220500D01*
X112423465Y-134220500D01*
X112626420Y-134180130D01*
X112817598Y-134100941D01*
X112989655Y-133985977D01*
X113135977Y-133839655D01*
X113250941Y-133667598D01*
X113330130Y-133476420D01*
X113370500Y-133273465D01*
X113370500Y-133066535D01*
X113330130Y-132863580D01*
X113250941Y-132672402D01*
X113135977Y-132500345D01*
X112989655Y-132354023D01*
X112989651Y-132354020D01*
X112817597Y-132239058D01*
X112626418Y-132159869D01*
X112423467Y-132119500D01*
X112423465Y-132119500D01*
X112216535Y-132119500D01*
X112216532Y-132119500D01*
X112013581Y-132159869D01*
X111822402Y-132239058D01*
X111650348Y-132354020D01*
X111504020Y-132500348D01*
X111389058Y-132672402D01*
X111309869Y-132863581D01*
X111269500Y-133066532D01*
X110830499Y-133066532D01*
X110790130Y-132863580D01*
X110710941Y-132672402D01*
X110595977Y-132500345D01*
X110449655Y-132354023D01*
X110449651Y-132354020D01*
X110277597Y-132239058D01*
X110086418Y-132159869D01*
X109883467Y-132119500D01*
X109883465Y-132119500D01*
X109676535Y-132119500D01*
X109676532Y-132119500D01*
X109473581Y-132159869D01*
X109282402Y-132239058D01*
X109110348Y-132354020D01*
X108964020Y-132500348D01*
X108849058Y-132672402D01*
X108769869Y-132863581D01*
X108729500Y-133066532D01*
X108290500Y-133066532D01*
X108290500Y-132300252D01*
X108278867Y-132241769D01*
X108234552Y-132175448D01*
X108234548Y-132175445D01*
X108168233Y-132131134D01*
X108168231Y-132131133D01*
X108168228Y-132131132D01*
X108168227Y-132131132D01*
X108109758Y-132119501D01*
X108109748Y-132119500D01*
X106370252Y-132119500D01*
X106370251Y-132119500D01*
X106370241Y-132119501D01*
X106311772Y-132131132D01*
X106311766Y-132131134D01*
X106245451Y-132175445D01*
X106245445Y-132175451D01*
X106201134Y-132241766D01*
X106201132Y-132241772D01*
X106189501Y-132300241D01*
X106189500Y-132300253D01*
X86000500Y-132300253D01*
X86000500Y-131854108D01*
X113529500Y-131854108D01*
X113529500Y-131985892D01*
X113547945Y-132054729D01*
X113563609Y-132113190D01*
X113629496Y-132227309D01*
X113629498Y-132227311D01*
X113629500Y-132227314D01*
X113722686Y-132320500D01*
X113722688Y-132320501D01*
X113722690Y-132320503D01*
X113836810Y-132386390D01*
X113836811Y-132386390D01*
X113836814Y-132386392D01*
X113943691Y-132415029D01*
X113995004Y-132448352D01*
X114016931Y-132505473D01*
X114001096Y-132564574D01*
X114000383Y-132565656D01*
X113929058Y-132672402D01*
X113849869Y-132863581D01*
X113809500Y-133066532D01*
X113809500Y-133273467D01*
X113849869Y-133476418D01*
X113929058Y-133667597D01*
X114044020Y-133839651D01*
X114044023Y-133839655D01*
X114190345Y-133985977D01*
X114362402Y-134100941D01*
X114553580Y-134180130D01*
X114756535Y-134220500D01*
X114756536Y-134220500D01*
X114963464Y-134220500D01*
X114963465Y-134220500D01*
X115166420Y-134180130D01*
X115357598Y-134100941D01*
X115529655Y-133985977D01*
X115675977Y-133839655D01*
X115790941Y-133667598D01*
X115870130Y-133476420D01*
X115910500Y-133273465D01*
X115910500Y-133066535D01*
X115910499Y-133066532D01*
X116349500Y-133066532D01*
X116349500Y-133273467D01*
X116389869Y-133476418D01*
X116469058Y-133667597D01*
X116584020Y-133839651D01*
X116584023Y-133839655D01*
X116730345Y-133985977D01*
X116902402Y-134100941D01*
X117093580Y-134180130D01*
X117296535Y-134220500D01*
X117296536Y-134220500D01*
X117503464Y-134220500D01*
X117503465Y-134220500D01*
X117706420Y-134180130D01*
X117897598Y-134100941D01*
X118069655Y-133985977D01*
X118215977Y-133839655D01*
X118330941Y-133667598D01*
X118410130Y-133476420D01*
X118450500Y-133273465D01*
X118450500Y-133066535D01*
X118450499Y-133066532D01*
X118889500Y-133066532D01*
X118889500Y-133273467D01*
X118929869Y-133476418D01*
X119009058Y-133667597D01*
X119124020Y-133839651D01*
X119124023Y-133839655D01*
X119270345Y-133985977D01*
X119442402Y-134100941D01*
X119633580Y-134180130D01*
X119836535Y-134220500D01*
X119836536Y-134220500D01*
X120043464Y-134220500D01*
X120043465Y-134220500D01*
X120246420Y-134180130D01*
X120437598Y-134100941D01*
X120609655Y-133985977D01*
X120755977Y-133839655D01*
X120870941Y-133667598D01*
X120950130Y-133476420D01*
X120959762Y-133427996D01*
X120989656Y-133374613D01*
X121045221Y-133348996D01*
X121105231Y-133360932D01*
X121146764Y-133405861D01*
X121154640Y-133431822D01*
X121163241Y-133486122D01*
X121228904Y-133688215D01*
X121325376Y-133877553D01*
X121325380Y-133877559D01*
X121364728Y-133931716D01*
X121364729Y-133931716D01*
X121997037Y-133299407D01*
X122014075Y-133362993D01*
X122079901Y-133477007D01*
X122172993Y-133570099D01*
X122287007Y-133635925D01*
X122350589Y-133652962D01*
X121718282Y-134285269D01*
X121718282Y-134285270D01*
X121772440Y-134324619D01*
X121772446Y-134324623D01*
X121961784Y-134421095D01*
X122163878Y-134486759D01*
X122373750Y-134520000D01*
X122586250Y-134520000D01*
X122796121Y-134486759D01*
X122998215Y-134421095D01*
X123187556Y-134324620D01*
X123241716Y-134285270D01*
X122609408Y-133652962D01*
X122672993Y-133635925D01*
X122787007Y-133570099D01*
X122880099Y-133477007D01*
X122945925Y-133362993D01*
X122962962Y-133299408D01*
X123595270Y-133931716D01*
X123634620Y-133877556D01*
X123731095Y-133688215D01*
X123796759Y-133486121D01*
X123805359Y-133431823D01*
X123833136Y-133377307D01*
X123887653Y-133349529D01*
X123948085Y-133359100D01*
X123991349Y-133402365D01*
X124000238Y-133427996D01*
X124009869Y-133476418D01*
X124089058Y-133667597D01*
X124204020Y-133839651D01*
X124204023Y-133839655D01*
X124350345Y-133985977D01*
X124522402Y-134100941D01*
X124713580Y-134180130D01*
X124916535Y-134220500D01*
X124916536Y-134220500D01*
X125123464Y-134220500D01*
X125123465Y-134220500D01*
X125326420Y-134180130D01*
X125517598Y-134100941D01*
X125689655Y-133985977D01*
X125835977Y-133839655D01*
X125950941Y-133667598D01*
X126030130Y-133476420D01*
X126070500Y-133273465D01*
X126070500Y-133066535D01*
X126030130Y-132863580D01*
X125950941Y-132672402D01*
X125835977Y-132500345D01*
X125689655Y-132354023D01*
X125689651Y-132354020D01*
X125517597Y-132239058D01*
X125326418Y-132159869D01*
X125123467Y-132119500D01*
X125123465Y-132119500D01*
X124916535Y-132119500D01*
X124916532Y-132119500D01*
X124713581Y-132159869D01*
X124522402Y-132239058D01*
X124350348Y-132354020D01*
X124204020Y-132500348D01*
X124089058Y-132672402D01*
X124009869Y-132863581D01*
X124000238Y-132912003D01*
X123970341Y-132965387D01*
X123914776Y-132991003D01*
X123854766Y-132979066D01*
X123813234Y-132934136D01*
X123805359Y-132908176D01*
X123796759Y-132853878D01*
X123731095Y-132651784D01*
X123634623Y-132462446D01*
X123634619Y-132462440D01*
X123595270Y-132408282D01*
X123595269Y-132408282D01*
X122962962Y-133040589D01*
X122945925Y-132977007D01*
X122880099Y-132862993D01*
X122787007Y-132769901D01*
X122672993Y-132704075D01*
X122609407Y-132687037D01*
X123241716Y-132054729D01*
X123241716Y-132054728D01*
X123187559Y-132015380D01*
X123187553Y-132015376D01*
X122998215Y-131918904D01*
X122796121Y-131853240D01*
X122586250Y-131820000D01*
X122373750Y-131820000D01*
X122163878Y-131853240D01*
X121961784Y-131918904D01*
X121772446Y-132015376D01*
X121772442Y-132015378D01*
X121718282Y-132054728D01*
X122350591Y-132687037D01*
X122287007Y-132704075D01*
X122172993Y-132769901D01*
X122079901Y-132862993D01*
X122014075Y-132977007D01*
X121997037Y-133040591D01*
X121364728Y-132408282D01*
X121325378Y-132462442D01*
X121325376Y-132462446D01*
X121228904Y-132651784D01*
X121163241Y-132853877D01*
X121154640Y-132908177D01*
X121126862Y-132962694D01*
X121072345Y-132990470D01*
X121011913Y-132980898D01*
X120968649Y-132937633D01*
X120959762Y-132912006D01*
X120950130Y-132863580D01*
X120870941Y-132672402D01*
X120755977Y-132500345D01*
X120609655Y-132354023D01*
X120609651Y-132354020D01*
X120437597Y-132239058D01*
X120357007Y-132205677D01*
X120246420Y-132159870D01*
X120246418Y-132159869D01*
X120043467Y-132119500D01*
X120043465Y-132119500D01*
X119836535Y-132119500D01*
X119836532Y-132119500D01*
X119633581Y-132159869D01*
X119442402Y-132239058D01*
X119270348Y-132354020D01*
X119124020Y-132500348D01*
X119009058Y-132672402D01*
X118929869Y-132863581D01*
X118889500Y-133066532D01*
X118450499Y-133066532D01*
X118410130Y-132863580D01*
X118330941Y-132672402D01*
X118215977Y-132500345D01*
X118069655Y-132354023D01*
X118069651Y-132354020D01*
X117897597Y-132239058D01*
X117706418Y-132159869D01*
X117503467Y-132119500D01*
X117503465Y-132119500D01*
X117296535Y-132119500D01*
X117296532Y-132119500D01*
X117093581Y-132159869D01*
X116902402Y-132239058D01*
X116730348Y-132354020D01*
X116584020Y-132500348D01*
X116469058Y-132672402D01*
X116389869Y-132863581D01*
X116349500Y-133066532D01*
X115910499Y-133066532D01*
X115870130Y-132863580D01*
X115790941Y-132672402D01*
X115675977Y-132500345D01*
X115529655Y-132354023D01*
X115529651Y-132354020D01*
X115357597Y-132239058D01*
X115166418Y-132159869D01*
X114963467Y-132119500D01*
X114963465Y-132119500D01*
X114756535Y-132119500D01*
X114756529Y-132119500D01*
X114636103Y-132143454D01*
X114633738Y-132143174D01*
X114631611Y-132144240D01*
X114603580Y-132139604D01*
X114575342Y-132136262D01*
X114573593Y-132134645D01*
X114571245Y-132134257D01*
X114551284Y-132114023D01*
X114530413Y-132094729D01*
X114529948Y-132092394D01*
X114528276Y-132090699D01*
X114526880Y-132076970D01*
X114518476Y-132034719D01*
X114519117Y-132030203D01*
X114519906Y-132025426D01*
X114530500Y-131985892D01*
X114530500Y-131961371D01*
X114531827Y-131953347D01*
X114542342Y-131933052D01*
X114549407Y-131911309D01*
X114556144Y-131906413D01*
X114559975Y-131899021D01*
X114580410Y-131888783D01*
X114598907Y-131875345D01*
X114611085Y-131873416D01*
X114614679Y-131871616D01*
X114618481Y-131872244D01*
X114629500Y-131870500D01*
X115709563Y-131870500D01*
X115709563Y-131870499D01*
X115770733Y-131854109D01*
X115785919Y-131850040D01*
X115811543Y-131846666D01*
X115838390Y-131846666D01*
X115838392Y-131846666D01*
X115965686Y-131812558D01*
X115965688Y-131812556D01*
X115965690Y-131812556D01*
X116079809Y-131746669D01*
X116079809Y-131746668D01*
X116079814Y-131746666D01*
X116173000Y-131653480D01*
X116196550Y-131612690D01*
X116238890Y-131539356D01*
X116238890Y-131539354D01*
X116238892Y-131539352D01*
X116273000Y-131412058D01*
X116273000Y-131280274D01*
X116238892Y-131152980D01*
X116238890Y-131152976D01*
X116238890Y-131152975D01*
X116173003Y-131038856D01*
X116173001Y-131038854D01*
X116173000Y-131038852D01*
X116079814Y-130945666D01*
X116079811Y-130945664D01*
X116079809Y-130945662D01*
X115965689Y-130879775D01*
X115965691Y-130879775D01*
X115916299Y-130866541D01*
X115838392Y-130845666D01*
X115706608Y-130845666D01*
X115628700Y-130866541D01*
X115579309Y-130879775D01*
X115465190Y-130945662D01*
X115371996Y-131038856D01*
X115306109Y-131152976D01*
X115306107Y-131152980D01*
X115294547Y-131196124D01*
X115261223Y-131247438D01*
X115204102Y-131269364D01*
X115198921Y-131269500D01*
X114499562Y-131269500D01*
X114420438Y-131269500D01*
X114344012Y-131289978D01*
X114344011Y-131289978D01*
X114344009Y-131289979D01*
X114317683Y-131305178D01*
X114306278Y-131311763D01*
X114294540Y-131317542D01*
X114288601Y-131319991D01*
X114214011Y-131339979D01*
X114154200Y-131374511D01*
X114148531Y-131377783D01*
X114148528Y-131377785D01*
X114145490Y-131379539D01*
X114145489Y-131379539D01*
X114145489Y-131379540D01*
X114134523Y-131390505D01*
X114080009Y-131418281D01*
X114064522Y-131419500D01*
X113964108Y-131419500D01*
X113886200Y-131440375D01*
X113836809Y-131453609D01*
X113722690Y-131519496D01*
X113629496Y-131612690D01*
X113563609Y-131726809D01*
X113558288Y-131746669D01*
X113529500Y-131854108D01*
X86000500Y-131854108D01*
X86000500Y-125468969D01*
X100154639Y-125468969D01*
X100154639Y-125600753D01*
X100156865Y-125609059D01*
X100188748Y-125728051D01*
X100254635Y-125842170D01*
X100254637Y-125842172D01*
X100254639Y-125842175D01*
X100347825Y-125935361D01*
X100347827Y-125935362D01*
X100347829Y-125935364D01*
X100461949Y-126001251D01*
X100461947Y-126001251D01*
X100461951Y-126001252D01*
X100461953Y-126001253D01*
X100589247Y-126035361D01*
X100589249Y-126035361D01*
X100721029Y-126035361D01*
X100721031Y-126035361D01*
X100848325Y-126001253D01*
X100848327Y-126001251D01*
X100848329Y-126001251D01*
X100962448Y-125935364D01*
X100962448Y-125935363D01*
X100962453Y-125935361D01*
X101055639Y-125842175D01*
X101063753Y-125828119D01*
X101079481Y-125807620D01*
X102360490Y-124526614D01*
X102419799Y-124423887D01*
X102430867Y-124382579D01*
X102450500Y-124309309D01*
X102450500Y-123277238D01*
X102463765Y-123227735D01*
X102466392Y-123223186D01*
X102500500Y-123095892D01*
X102500500Y-122964108D01*
X102466392Y-122836814D01*
X102466390Y-122836811D01*
X102466390Y-122836809D01*
X102400503Y-122722690D01*
X102400501Y-122722688D01*
X102400500Y-122722686D01*
X102307314Y-122629500D01*
X102307311Y-122629498D01*
X102307309Y-122629496D01*
X102193189Y-122563609D01*
X102193191Y-122563609D01*
X102143799Y-122550375D01*
X102065892Y-122529500D01*
X101934108Y-122529500D01*
X101856200Y-122550375D01*
X101806809Y-122563609D01*
X101692690Y-122629496D01*
X101599496Y-122722690D01*
X101533609Y-122836809D01*
X101520769Y-122884729D01*
X101499500Y-122964108D01*
X101499500Y-123095892D01*
X101533608Y-123223186D01*
X101536234Y-123227735D01*
X101549500Y-123277238D01*
X101549500Y-124022388D01*
X101530593Y-124080579D01*
X101520504Y-124092392D01*
X100593371Y-125019524D01*
X100548991Y-125045146D01*
X100461953Y-125068468D01*
X100461949Y-125068470D01*
X100347829Y-125134357D01*
X100254635Y-125227551D01*
X100188748Y-125341670D01*
X100176518Y-125387314D01*
X100154639Y-125468969D01*
X86000500Y-125468969D01*
X86000500Y-116000253D01*
X106454500Y-116000253D01*
X106454500Y-117739746D01*
X106454501Y-117739758D01*
X106466132Y-117798227D01*
X106466134Y-117798233D01*
X106510445Y-117864548D01*
X106510448Y-117864552D01*
X106576769Y-117908867D01*
X106621231Y-117917711D01*
X106635241Y-117920498D01*
X106635246Y-117920498D01*
X106635252Y-117920500D01*
X108089521Y-117920500D01*
X108147712Y-117939407D01*
X108159525Y-117949496D01*
X108450504Y-118240475D01*
X108478281Y-118294992D01*
X108479500Y-118310479D01*
X108479500Y-119565521D01*
X108460593Y-119623712D01*
X108411093Y-119659676D01*
X108349907Y-119659676D01*
X108310496Y-119635525D01*
X108139496Y-119464525D01*
X108111719Y-119410008D01*
X108110500Y-119394521D01*
X108110500Y-119294109D01*
X108110500Y-119294108D01*
X108076392Y-119166814D01*
X108076390Y-119166811D01*
X108076390Y-119166809D01*
X108010503Y-119052690D01*
X108010501Y-119052688D01*
X108010500Y-119052686D01*
X107917314Y-118959500D01*
X107917311Y-118959498D01*
X107917309Y-118959496D01*
X107803189Y-118893609D01*
X107803191Y-118893609D01*
X107753799Y-118880375D01*
X107675892Y-118859500D01*
X107544108Y-118859500D01*
X107466200Y-118880375D01*
X107416809Y-118893609D01*
X107302690Y-118959496D01*
X107209496Y-119052690D01*
X107143609Y-119166809D01*
X107143608Y-119166814D01*
X107109500Y-119294108D01*
X107109500Y-119425892D01*
X107119852Y-119464525D01*
X107143609Y-119553190D01*
X107209496Y-119667309D01*
X107209498Y-119667311D01*
X107209500Y-119667314D01*
X107302686Y-119760500D01*
X107302688Y-119760501D01*
X107302690Y-119760503D01*
X107416810Y-119826390D01*
X107416808Y-119826390D01*
X107416812Y-119826391D01*
X107416814Y-119826392D01*
X107544108Y-119860500D01*
X107544110Y-119860500D01*
X107644521Y-119860500D01*
X107652118Y-119862968D01*
X107660008Y-119861719D01*
X107680663Y-119872243D01*
X107702712Y-119879407D01*
X107714525Y-119889496D01*
X107750504Y-119925475D01*
X107778281Y-119979992D01*
X107779500Y-119995479D01*
X107779500Y-122351679D01*
X107760593Y-122409870D01*
X107750509Y-122421676D01*
X107702056Y-122470130D01*
X107679497Y-122492689D01*
X107679496Y-122492690D01*
X107613609Y-122606809D01*
X107613608Y-122606814D01*
X107579500Y-122734108D01*
X107579500Y-122865892D01*
X107607581Y-122970691D01*
X107613609Y-122993190D01*
X107679496Y-123107309D01*
X107679498Y-123107311D01*
X107679500Y-123107314D01*
X107772686Y-123200500D01*
X107772688Y-123200501D01*
X107772690Y-123200503D01*
X107886810Y-123266390D01*
X107886808Y-123266390D01*
X107886812Y-123266391D01*
X107886814Y-123266392D01*
X108014108Y-123300500D01*
X108014110Y-123300500D01*
X108145890Y-123300500D01*
X108145892Y-123300500D01*
X108273186Y-123266392D01*
X108331000Y-123233012D01*
X108390847Y-123220291D01*
X108446743Y-123245177D01*
X108477336Y-123298165D01*
X108479500Y-123318749D01*
X108479500Y-127119564D01*
X108499978Y-127195988D01*
X108499979Y-127195990D01*
X108505403Y-127205384D01*
X108505404Y-127205386D01*
X108507869Y-127209655D01*
X108539540Y-127264511D01*
X110565489Y-129290460D01*
X110565491Y-129290461D01*
X110565493Y-129290463D01*
X110634008Y-129330020D01*
X110634006Y-129330020D01*
X110634010Y-129330021D01*
X110634012Y-129330022D01*
X110710438Y-129350500D01*
X113145621Y-129350500D01*
X113195121Y-129363764D01*
X113271133Y-129407650D01*
X113312074Y-129453119D01*
X113318470Y-129513970D01*
X113291637Y-129563390D01*
X112181144Y-130673883D01*
X112136764Y-130699505D01*
X112046814Y-130723607D01*
X112046810Y-130723609D01*
X111932690Y-130789496D01*
X111839496Y-130882690D01*
X111773609Y-130996809D01*
X111773608Y-130996814D01*
X111739500Y-131124108D01*
X111739500Y-131255892D01*
X111754470Y-131311762D01*
X111773609Y-131383190D01*
X111839496Y-131497309D01*
X111839498Y-131497311D01*
X111839500Y-131497314D01*
X111932686Y-131590500D01*
X111932688Y-131590501D01*
X111932690Y-131590503D01*
X112046810Y-131656390D01*
X112046808Y-131656390D01*
X112046812Y-131656391D01*
X112046814Y-131656392D01*
X112174108Y-131690500D01*
X112174110Y-131690500D01*
X112305890Y-131690500D01*
X112305892Y-131690500D01*
X112433186Y-131656392D01*
X112433188Y-131656390D01*
X112433190Y-131656390D01*
X112547309Y-131590503D01*
X112547309Y-131590502D01*
X112547314Y-131590500D01*
X112640500Y-131497314D01*
X112706392Y-131383186D01*
X112740500Y-131255892D01*
X112740500Y-131124108D01*
X112721558Y-131053416D01*
X112724759Y-130992316D01*
X112747178Y-130957791D01*
X115500460Y-128204511D01*
X115532220Y-128149500D01*
X115540021Y-128135989D01*
X115560500Y-128059562D01*
X115560500Y-127801912D01*
X115540021Y-127725485D01*
X115500460Y-127656963D01*
X115493932Y-127650435D01*
X115444511Y-127601013D01*
X115444511Y-127601014D01*
X115333024Y-127489527D01*
X115329397Y-127482409D01*
X115322935Y-127477714D01*
X115315771Y-127455665D01*
X115305247Y-127435010D01*
X115304028Y-127419523D01*
X115304028Y-127319112D01*
X115304028Y-127319110D01*
X115304027Y-127319108D01*
X116373101Y-127319108D01*
X116373101Y-127450892D01*
X116401235Y-127555892D01*
X116407210Y-127578190D01*
X116473097Y-127692309D01*
X116473099Y-127692311D01*
X116473101Y-127692314D01*
X116566287Y-127785500D01*
X116566289Y-127785501D01*
X116566291Y-127785503D01*
X116680411Y-127851390D01*
X116680409Y-127851390D01*
X116680413Y-127851391D01*
X116680415Y-127851392D01*
X116806125Y-127885075D01*
X116857437Y-127918398D01*
X116879364Y-127975519D01*
X116879500Y-127980701D01*
X116879500Y-129521679D01*
X116860593Y-129579870D01*
X116850509Y-129591676D01*
X116779500Y-129662686D01*
X116779497Y-129662689D01*
X116779496Y-129662690D01*
X116713609Y-129776809D01*
X116713608Y-129776814D01*
X116679500Y-129904108D01*
X116679500Y-130035892D01*
X116701732Y-130118865D01*
X116713609Y-130163190D01*
X116779496Y-130277309D01*
X116779498Y-130277311D01*
X116779500Y-130277314D01*
X116872686Y-130370500D01*
X116872688Y-130370501D01*
X116872690Y-130370503D01*
X116986810Y-130436390D01*
X116986808Y-130436390D01*
X116986812Y-130436391D01*
X116986814Y-130436392D01*
X117114108Y-130470500D01*
X117114110Y-130470500D01*
X117245890Y-130470500D01*
X117245892Y-130470500D01*
X117373186Y-130436392D01*
X117373188Y-130436390D01*
X117373190Y-130436390D01*
X117487309Y-130370503D01*
X117487309Y-130370502D01*
X117487314Y-130370500D01*
X117580500Y-130277314D01*
X117646392Y-130163186D01*
X117680500Y-130035892D01*
X117680500Y-129904108D01*
X117646392Y-129776814D01*
X117646390Y-129776811D01*
X117646390Y-129776809D01*
X117580503Y-129662690D01*
X117580501Y-129662688D01*
X117580500Y-129662686D01*
X117509494Y-129591680D01*
X117481719Y-129537166D01*
X117480500Y-129521679D01*
X117480500Y-128210253D01*
X124339500Y-128210253D01*
X124339500Y-129949746D01*
X124339501Y-129949758D01*
X124351132Y-130008227D01*
X124351134Y-130008233D01*
X124395445Y-130074548D01*
X124395448Y-130074552D01*
X124461769Y-130118867D01*
X124506231Y-130127711D01*
X124520241Y-130130498D01*
X124520246Y-130130498D01*
X124520252Y-130130500D01*
X124520253Y-130130500D01*
X126259747Y-130130500D01*
X126259748Y-130130500D01*
X126318231Y-130118867D01*
X126384552Y-130074552D01*
X126428867Y-130008231D01*
X126440500Y-129949748D01*
X126440500Y-128210252D01*
X126428867Y-128151769D01*
X126384552Y-128085448D01*
X126384548Y-128085445D01*
X126318233Y-128041134D01*
X126318231Y-128041133D01*
X126318228Y-128041132D01*
X126318227Y-128041132D01*
X126259758Y-128029501D01*
X126259748Y-128029500D01*
X124520252Y-128029500D01*
X124520251Y-128029500D01*
X124520241Y-128029501D01*
X124461772Y-128041132D01*
X124461766Y-128041134D01*
X124395451Y-128085445D01*
X124395445Y-128085451D01*
X124351134Y-128151766D01*
X124351132Y-128151772D01*
X124339501Y-128210241D01*
X124339500Y-128210253D01*
X117480500Y-128210253D01*
X117480500Y-127650437D01*
X117480499Y-127650435D01*
X117460021Y-127574011D01*
X117460019Y-127574007D01*
X117420460Y-127505488D01*
X117403096Y-127488124D01*
X117375320Y-127433607D01*
X117374101Y-127418122D01*
X117374101Y-127319109D01*
X117374101Y-127319108D01*
X117339993Y-127191814D01*
X117339991Y-127191811D01*
X117339991Y-127191809D01*
X117274104Y-127077690D01*
X117274102Y-127077688D01*
X117274101Y-127077686D01*
X117180915Y-126984500D01*
X117180912Y-126984498D01*
X117180910Y-126984496D01*
X117066790Y-126918609D01*
X117066792Y-126918609D01*
X117017400Y-126905375D01*
X116939493Y-126884500D01*
X116807709Y-126884500D01*
X116729801Y-126905375D01*
X116680410Y-126918609D01*
X116566291Y-126984496D01*
X116473097Y-127077690D01*
X116407210Y-127191809D01*
X116390149Y-127255483D01*
X116373101Y-127319108D01*
X115304027Y-127319108D01*
X115269920Y-127191816D01*
X115269918Y-127191813D01*
X115269918Y-127191811D01*
X115204031Y-127077692D01*
X115204029Y-127077690D01*
X115204028Y-127077688D01*
X115110842Y-126984502D01*
X115110839Y-126984500D01*
X115110837Y-126984498D01*
X114996717Y-126918611D01*
X114996719Y-126918611D01*
X114947327Y-126905377D01*
X114869420Y-126884502D01*
X114819435Y-126884502D01*
X114761244Y-126865595D01*
X114725280Y-126816095D01*
X114725280Y-126754909D01*
X114749431Y-126715499D01*
X114768522Y-126696407D01*
X114787615Y-126677314D01*
X114853507Y-126563186D01*
X114887615Y-126435892D01*
X114887615Y-126304108D01*
X114853507Y-126176814D01*
X114853505Y-126176811D01*
X114853505Y-126176809D01*
X114787618Y-126062690D01*
X114787616Y-126062688D01*
X114787615Y-126062686D01*
X114694429Y-125969500D01*
X114694426Y-125969498D01*
X114694424Y-125969496D01*
X114580304Y-125903609D01*
X114580306Y-125903609D01*
X114530914Y-125890375D01*
X114453007Y-125869500D01*
X114321223Y-125869500D01*
X114243315Y-125890375D01*
X114193924Y-125903609D01*
X114079805Y-125969496D01*
X113986611Y-126062690D01*
X113920724Y-126176809D01*
X113920723Y-126176814D01*
X113886615Y-126304108D01*
X113886615Y-126435892D01*
X113886788Y-126436536D01*
X113920724Y-126563190D01*
X113986611Y-126677309D01*
X113986613Y-126677311D01*
X113986615Y-126677314D01*
X114042162Y-126732861D01*
X114069938Y-126787376D01*
X114060367Y-126847808D01*
X114042161Y-126872867D01*
X112972209Y-127942818D01*
X112917692Y-127970595D01*
X112876583Y-127968441D01*
X112828870Y-127955657D01*
X112805892Y-127949500D01*
X112674108Y-127949500D01*
X112611103Y-127966382D01*
X112546809Y-127983609D01*
X112432690Y-128049496D01*
X112339496Y-128142690D01*
X112273609Y-128256809D01*
X112273608Y-128256814D01*
X112239500Y-128384108D01*
X112239500Y-128515892D01*
X112268702Y-128624879D01*
X112265500Y-128685978D01*
X112226995Y-128733528D01*
X112173076Y-128749500D01*
X110915479Y-128749500D01*
X110857288Y-128730593D01*
X110845475Y-128720504D01*
X109109496Y-126984525D01*
X109081719Y-126930008D01*
X109080500Y-126914521D01*
X109080500Y-125644478D01*
X109099407Y-125586287D01*
X109148907Y-125550323D01*
X109210093Y-125550323D01*
X109249501Y-125574472D01*
X111075489Y-127400460D01*
X111075491Y-127400461D01*
X111075493Y-127400463D01*
X111144008Y-127440020D01*
X111144006Y-127440020D01*
X111144010Y-127440021D01*
X111144012Y-127440022D01*
X111220438Y-127460500D01*
X111531545Y-127460500D01*
X111589736Y-127479407D01*
X111617281Y-127510000D01*
X111685803Y-127628684D01*
X111685805Y-127628686D01*
X111685807Y-127628689D01*
X111778993Y-127721875D01*
X111778995Y-127721876D01*
X111778997Y-127721878D01*
X111893117Y-127787765D01*
X111893115Y-127787765D01*
X111893119Y-127787766D01*
X111893121Y-127787767D01*
X112020415Y-127821875D01*
X112020417Y-127821875D01*
X112152197Y-127821875D01*
X112152199Y-127821875D01*
X112279493Y-127787767D01*
X112279495Y-127787765D01*
X112279497Y-127787765D01*
X112393616Y-127721878D01*
X112393616Y-127721877D01*
X112393621Y-127721875D01*
X112486807Y-127628689D01*
X112506488Y-127594601D01*
X112552697Y-127514565D01*
X112552697Y-127514563D01*
X112552699Y-127514561D01*
X112586807Y-127387267D01*
X112586807Y-127255483D01*
X112552699Y-127128189D01*
X112552697Y-127128186D01*
X112552697Y-127128184D01*
X112486810Y-127014065D01*
X112486808Y-127014063D01*
X112486807Y-127014061D01*
X112393621Y-126920875D01*
X112393618Y-126920873D01*
X112393616Y-126920871D01*
X112279496Y-126854984D01*
X112279498Y-126854984D01*
X112225788Y-126840593D01*
X112152199Y-126820875D01*
X112020415Y-126820875D01*
X111925079Y-126846420D01*
X111893117Y-126854984D01*
X111887121Y-126857468D01*
X111886150Y-126855124D01*
X111836936Y-126865576D01*
X111821682Y-126862747D01*
X111809564Y-126859500D01*
X111809562Y-126859500D01*
X111425479Y-126859500D01*
X111367288Y-126840593D01*
X111355475Y-126830504D01*
X109619496Y-125094525D01*
X109591719Y-125040008D01*
X109590500Y-125024521D01*
X109590500Y-124204108D01*
X111079500Y-124204108D01*
X111079500Y-124335892D01*
X111103078Y-124423887D01*
X111113609Y-124463190D01*
X111179496Y-124577309D01*
X111179498Y-124577311D01*
X111179500Y-124577314D01*
X111272686Y-124670500D01*
X111272688Y-124670501D01*
X111272690Y-124670503D01*
X111386810Y-124736390D01*
X111386808Y-124736390D01*
X111386812Y-124736391D01*
X111386814Y-124736392D01*
X111514108Y-124770500D01*
X111514110Y-124770500D01*
X111645890Y-124770500D01*
X111645892Y-124770500D01*
X111773186Y-124736392D01*
X111773188Y-124736390D01*
X111773190Y-124736390D01*
X111887309Y-124670503D01*
X111887309Y-124670502D01*
X111887314Y-124670500D01*
X111980500Y-124577314D01*
X112009772Y-124526614D01*
X112046390Y-124463190D01*
X112046390Y-124463188D01*
X112046392Y-124463186D01*
X112080500Y-124335892D01*
X112080500Y-124204108D01*
X112046392Y-124076814D01*
X112043761Y-124072258D01*
X112030500Y-124022761D01*
X112030500Y-121980435D01*
X118989500Y-121980435D01*
X118989500Y-121980438D01*
X118989500Y-122889562D01*
X119009475Y-122964108D01*
X119009979Y-122965989D01*
X119012692Y-122970687D01*
X119012693Y-122970691D01*
X119049538Y-123034508D01*
X119049540Y-123034511D01*
X120698108Y-124683079D01*
X120698107Y-124683079D01*
X120754057Y-124739028D01*
X120822575Y-124778587D01*
X120822579Y-124778589D01*
X120899003Y-124799067D01*
X120899005Y-124799068D01*
X120899006Y-124799068D01*
X122103089Y-124799068D01*
X122161280Y-124817975D01*
X122173093Y-124828064D01*
X122320504Y-124975475D01*
X122348281Y-125029992D01*
X122349500Y-125045479D01*
X122349500Y-125145892D01*
X122371379Y-125227547D01*
X122383609Y-125273190D01*
X122449496Y-125387309D01*
X122449498Y-125387311D01*
X122449500Y-125387314D01*
X122542686Y-125480500D01*
X122542688Y-125480501D01*
X122542690Y-125480503D01*
X122656810Y-125546390D01*
X122656808Y-125546390D01*
X122656812Y-125546391D01*
X122656814Y-125546392D01*
X122784108Y-125580500D01*
X122784110Y-125580500D01*
X122915890Y-125580500D01*
X122915892Y-125580500D01*
X123043186Y-125546392D01*
X123043188Y-125546390D01*
X123043190Y-125546390D01*
X123157309Y-125480503D01*
X123157309Y-125480502D01*
X123157314Y-125480500D01*
X123250500Y-125387314D01*
X123316392Y-125273186D01*
X123350500Y-125145892D01*
X123350500Y-125014108D01*
X123316392Y-124886814D01*
X123316390Y-124886811D01*
X123316390Y-124886809D01*
X123250503Y-124772690D01*
X123250501Y-124772688D01*
X123250500Y-124772686D01*
X123157314Y-124679500D01*
X123157311Y-124679498D01*
X123157309Y-124679496D01*
X123043189Y-124613609D01*
X123043191Y-124613609D01*
X122993799Y-124600375D01*
X122915892Y-124579500D01*
X122815479Y-124579500D01*
X122757288Y-124560593D01*
X122745476Y-124550504D01*
X122453078Y-124258107D01*
X122384560Y-124218548D01*
X122384556Y-124218546D01*
X122308132Y-124198068D01*
X122308130Y-124198068D01*
X121104047Y-124198068D01*
X121045856Y-124179161D01*
X121034043Y-124169072D01*
X120758720Y-123893749D01*
X124040000Y-123893749D01*
X124040000Y-124106250D01*
X124073240Y-124316121D01*
X124138904Y-124518215D01*
X124235376Y-124707553D01*
X124235380Y-124707559D01*
X124274728Y-124761716D01*
X124274729Y-124761716D01*
X124907037Y-124129407D01*
X124924075Y-124192993D01*
X124989901Y-124307007D01*
X125082993Y-124400099D01*
X125197007Y-124465925D01*
X125260589Y-124482962D01*
X124628282Y-125115269D01*
X124628282Y-125115270D01*
X124682440Y-125154619D01*
X124682446Y-125154623D01*
X124871784Y-125251095D01*
X125073878Y-125316759D01*
X125128176Y-125325359D01*
X125182692Y-125353136D01*
X125210470Y-125407653D01*
X125200899Y-125468085D01*
X125157634Y-125511350D01*
X125132003Y-125520238D01*
X125083581Y-125529869D01*
X124892402Y-125609058D01*
X124720348Y-125724020D01*
X124720345Y-125724022D01*
X124720345Y-125724023D01*
X124574023Y-125870345D01*
X124574022Y-125870347D01*
X124459058Y-126042402D01*
X124379869Y-126233581D01*
X124339500Y-126436532D01*
X124339500Y-126643467D01*
X124379869Y-126846418D01*
X124459058Y-127037597D01*
X124571171Y-127205387D01*
X124574023Y-127209655D01*
X124720345Y-127355977D01*
X124892402Y-127470941D01*
X125083580Y-127550130D01*
X125286535Y-127590500D01*
X125286536Y-127590500D01*
X125493464Y-127590500D01*
X125493465Y-127590500D01*
X125696420Y-127550130D01*
X125887598Y-127470941D01*
X126059655Y-127355977D01*
X126205977Y-127209655D01*
X126320941Y-127037598D01*
X126400130Y-126846420D01*
X126440500Y-126643465D01*
X126440500Y-126436535D01*
X126400130Y-126233580D01*
X126320941Y-126042402D01*
X126205977Y-125870345D01*
X126059655Y-125724023D01*
X125887598Y-125609059D01*
X125887599Y-125609059D01*
X125887597Y-125609058D01*
X125696418Y-125529869D01*
X125647996Y-125520238D01*
X125594612Y-125490341D01*
X125568996Y-125434776D01*
X125580933Y-125374766D01*
X125625863Y-125333234D01*
X125651823Y-125325359D01*
X125706121Y-125316759D01*
X125908215Y-125251095D01*
X126097556Y-125154620D01*
X126151716Y-125115270D01*
X125519408Y-124482962D01*
X125582993Y-124465925D01*
X125697007Y-124400099D01*
X125790099Y-124307007D01*
X125855925Y-124192993D01*
X125872962Y-124129408D01*
X126505270Y-124761716D01*
X126544620Y-124707556D01*
X126641095Y-124518215D01*
X126706759Y-124316121D01*
X126740000Y-124106250D01*
X126740000Y-123893749D01*
X126706759Y-123683878D01*
X126641095Y-123481784D01*
X126544623Y-123292446D01*
X126544619Y-123292440D01*
X126505270Y-123238282D01*
X126505269Y-123238282D01*
X125872962Y-123870589D01*
X125855925Y-123807007D01*
X125790099Y-123692993D01*
X125697007Y-123599901D01*
X125582993Y-123534075D01*
X125519407Y-123517037D01*
X126151716Y-122884729D01*
X126151716Y-122884728D01*
X126097559Y-122845380D01*
X126097553Y-122845376D01*
X125908215Y-122748904D01*
X125706122Y-122683241D01*
X125651822Y-122674640D01*
X125597306Y-122646862D01*
X125569529Y-122592345D01*
X125579101Y-122531913D01*
X125622366Y-122488649D01*
X125647993Y-122479762D01*
X125696420Y-122470130D01*
X125887598Y-122390941D01*
X126059655Y-122275977D01*
X126205977Y-122129655D01*
X126320941Y-121957598D01*
X126400130Y-121766420D01*
X126440500Y-121563465D01*
X126440500Y-121356535D01*
X126400130Y-121153580D01*
X126320941Y-120962402D01*
X126205977Y-120790345D01*
X126059655Y-120644023D01*
X126059651Y-120644020D01*
X125887597Y-120529058D01*
X125696418Y-120449869D01*
X125493467Y-120409500D01*
X125493465Y-120409500D01*
X125286535Y-120409500D01*
X125286532Y-120409500D01*
X125083581Y-120449869D01*
X124892402Y-120529058D01*
X124720348Y-120644020D01*
X124574020Y-120790348D01*
X124459058Y-120962402D01*
X124379869Y-121153581D01*
X124339500Y-121356532D01*
X124339500Y-121563467D01*
X124379869Y-121766418D01*
X124459058Y-121957597D01*
X124572440Y-122127286D01*
X124574023Y-122129655D01*
X124720345Y-122275977D01*
X124892402Y-122390941D01*
X125083580Y-122470130D01*
X125132003Y-122479762D01*
X125185386Y-122509657D01*
X125211003Y-122565221D01*
X125199067Y-122625231D01*
X125154138Y-122666765D01*
X125128177Y-122674640D01*
X125073877Y-122683241D01*
X124871784Y-122748904D01*
X124682446Y-122845376D01*
X124682442Y-122845378D01*
X124628282Y-122884728D01*
X125260591Y-123517037D01*
X125197007Y-123534075D01*
X125082993Y-123599901D01*
X124989901Y-123692993D01*
X124924075Y-123807007D01*
X124907037Y-123870591D01*
X124274728Y-123238282D01*
X124235378Y-123292442D01*
X124235376Y-123292446D01*
X124138904Y-123481784D01*
X124073240Y-123683878D01*
X124040000Y-123893749D01*
X120758720Y-123893749D01*
X119619496Y-122754525D01*
X119591719Y-122700008D01*
X119590500Y-122684521D01*
X119590500Y-122185477D01*
X119592968Y-122177879D01*
X119591719Y-122169991D01*
X119602242Y-122149337D01*
X119609407Y-122127286D01*
X119619492Y-122115478D01*
X119659650Y-122075319D01*
X119660104Y-122074923D01*
X119664565Y-122070461D01*
X119664568Y-122070460D01*
X119720517Y-122014511D01*
X119806532Y-121928496D01*
X119861049Y-121900719D01*
X119876536Y-121899500D01*
X120050563Y-121899500D01*
X120050563Y-121899499D01*
X120126989Y-121879021D01*
X120195511Y-121839460D01*
X120251460Y-121783511D01*
X120850675Y-121184296D01*
X120890236Y-121115774D01*
X120910715Y-121039347D01*
X120910715Y-120923788D01*
X120929622Y-120865597D01*
X120939705Y-120853790D01*
X121010715Y-120782781D01*
X121076607Y-120668653D01*
X121110715Y-120541359D01*
X121110715Y-120409575D01*
X121076607Y-120282281D01*
X121076605Y-120282278D01*
X121076605Y-120282276D01*
X121010718Y-120168157D01*
X121010716Y-120168155D01*
X121010715Y-120168153D01*
X120917529Y-120074967D01*
X120917526Y-120074965D01*
X120917524Y-120074963D01*
X120803404Y-120009076D01*
X120803406Y-120009076D01*
X120752660Y-119995479D01*
X120676107Y-119974967D01*
X120544323Y-119974967D01*
X120467770Y-119995479D01*
X120417024Y-120009076D01*
X120302905Y-120074963D01*
X120209711Y-120168157D01*
X120143824Y-120282276D01*
X120143823Y-120282281D01*
X120109715Y-120409575D01*
X120109715Y-120541359D01*
X120139794Y-120653618D01*
X120143824Y-120668657D01*
X120209711Y-120782776D01*
X120209713Y-120782778D01*
X120209715Y-120782781D01*
X120235979Y-120809045D01*
X120263755Y-120863560D01*
X120254184Y-120923992D01*
X120235978Y-120949050D01*
X119915526Y-121269503D01*
X119861009Y-121297281D01*
X119845522Y-121298500D01*
X119671492Y-121298500D01*
X119595071Y-121318977D01*
X119595066Y-121318979D01*
X119551542Y-121344108D01*
X119526546Y-121358539D01*
X119300261Y-121584823D01*
X119299801Y-121585227D01*
X119105489Y-121779540D01*
X119105488Y-121779539D01*
X119049539Y-121835489D01*
X119009980Y-121904007D01*
X119009978Y-121904011D01*
X118989500Y-121980435D01*
X112030500Y-121980435D01*
X112030500Y-121761161D01*
X112043764Y-121711661D01*
X112106390Y-121603190D01*
X112106390Y-121603188D01*
X112106392Y-121603186D01*
X112140500Y-121475892D01*
X112140500Y-121344108D01*
X112106392Y-121216814D01*
X112106390Y-121216811D01*
X112106390Y-121216809D01*
X112040503Y-121102690D01*
X112040501Y-121102688D01*
X112040500Y-121102686D01*
X111947314Y-121009500D01*
X111947311Y-121009498D01*
X111947309Y-121009496D01*
X111833189Y-120943609D01*
X111833191Y-120943609D01*
X111759977Y-120923992D01*
X111705892Y-120909500D01*
X111574108Y-120909500D01*
X111520023Y-120923992D01*
X111446809Y-120943609D01*
X111332690Y-121009496D01*
X111239496Y-121102690D01*
X111173609Y-121216809D01*
X111139500Y-121344108D01*
X111139500Y-121360335D01*
X111136127Y-121385956D01*
X111129500Y-121410688D01*
X111129500Y-124022761D01*
X111125276Y-124038524D01*
X111125685Y-124049979D01*
X111122332Y-124061701D01*
X111113608Y-124076814D01*
X111079500Y-124204108D01*
X109590500Y-124204108D01*
X109590500Y-119036329D01*
X115772000Y-119036329D01*
X115772000Y-119168113D01*
X115787623Y-119226418D01*
X115806109Y-119295411D01*
X115871996Y-119409530D01*
X115871998Y-119409532D01*
X115872000Y-119409535D01*
X115965186Y-119502721D01*
X115965188Y-119502722D01*
X115965190Y-119502724D01*
X116079310Y-119568611D01*
X116079308Y-119568611D01*
X116079312Y-119568612D01*
X116079314Y-119568613D01*
X116206608Y-119602721D01*
X116206610Y-119602721D01*
X116338390Y-119602721D01*
X116338392Y-119602721D01*
X116465686Y-119568613D01*
X116465688Y-119568611D01*
X116465690Y-119568611D01*
X116579809Y-119502724D01*
X116579809Y-119502723D01*
X116579814Y-119502721D01*
X116650819Y-119431715D01*
X116705334Y-119403940D01*
X116720821Y-119402721D01*
X117411342Y-119402721D01*
X117411342Y-119402720D01*
X117487768Y-119382242D01*
X117556290Y-119342681D01*
X117612239Y-119286732D01*
X117751473Y-119147496D01*
X117805990Y-119119719D01*
X117821477Y-119118500D01*
X117919890Y-119118500D01*
X117919892Y-119118500D01*
X118047186Y-119084392D01*
X118047188Y-119084390D01*
X118047190Y-119084390D01*
X118161309Y-119018503D01*
X118161309Y-119018502D01*
X118161314Y-119018500D01*
X118254500Y-118925314D01*
X118317305Y-118816532D01*
X124339500Y-118816532D01*
X124339500Y-119023467D01*
X124379869Y-119226418D01*
X124459058Y-119417597D01*
X124459059Y-119417598D01*
X124574023Y-119589655D01*
X124720345Y-119735977D01*
X124892402Y-119850941D01*
X125083580Y-119930130D01*
X125286535Y-119970500D01*
X125286536Y-119970500D01*
X125493464Y-119970500D01*
X125493465Y-119970500D01*
X125696420Y-119930130D01*
X125887598Y-119850941D01*
X126059655Y-119735977D01*
X126205977Y-119589655D01*
X126320941Y-119417598D01*
X126400130Y-119226420D01*
X126440500Y-119023465D01*
X126440500Y-118816535D01*
X126400130Y-118613580D01*
X126320941Y-118422402D01*
X126205977Y-118250345D01*
X126059655Y-118104023D01*
X125887598Y-117989059D01*
X125887599Y-117989059D01*
X125887597Y-117989058D01*
X125696418Y-117909869D01*
X125493467Y-117869500D01*
X125493465Y-117869500D01*
X125286535Y-117869500D01*
X125286532Y-117869500D01*
X125083581Y-117909869D01*
X124892402Y-117989058D01*
X124720348Y-118104020D01*
X124574020Y-118250348D01*
X124459058Y-118422402D01*
X124379869Y-118613581D01*
X124339500Y-118816532D01*
X118317305Y-118816532D01*
X118320392Y-118811186D01*
X118354500Y-118683892D01*
X118354500Y-118552108D01*
X118320392Y-118424814D01*
X118320390Y-118424811D01*
X118320390Y-118424809D01*
X118254503Y-118310690D01*
X118254501Y-118310688D01*
X118254500Y-118310686D01*
X118161314Y-118217500D01*
X118161311Y-118217498D01*
X118161309Y-118217496D01*
X118047189Y-118151609D01*
X118047191Y-118151609D01*
X117997799Y-118138375D01*
X117919892Y-118117500D01*
X117788108Y-118117500D01*
X117710200Y-118138375D01*
X117660809Y-118151609D01*
X117546690Y-118217496D01*
X117453496Y-118310690D01*
X117387609Y-118424809D01*
X117353500Y-118552109D01*
X117353500Y-118654521D01*
X117351031Y-118662118D01*
X117352281Y-118670007D01*
X117341757Y-118690660D01*
X117334593Y-118712712D01*
X117324504Y-118724524D01*
X117276305Y-118772724D01*
X117221789Y-118800502D01*
X117206301Y-118801721D01*
X116720821Y-118801721D01*
X116662630Y-118782814D01*
X116650823Y-118772730D01*
X116579814Y-118701721D01*
X116579811Y-118701719D01*
X116579809Y-118701717D01*
X116465689Y-118635830D01*
X116465691Y-118635830D01*
X116416299Y-118622596D01*
X116338392Y-118601721D01*
X116206608Y-118601721D01*
X116128700Y-118622596D01*
X116079309Y-118635830D01*
X115965190Y-118701717D01*
X115871996Y-118794911D01*
X115806109Y-118909030D01*
X115806108Y-118909035D01*
X115772000Y-119036329D01*
X109590500Y-119036329D01*
X109590500Y-117966957D01*
X109609407Y-117908766D01*
X109658907Y-117872802D01*
X109720093Y-117872802D01*
X109727373Y-117875488D01*
X109738580Y-117880130D01*
X109941535Y-117920500D01*
X109941536Y-117920500D01*
X110148464Y-117920500D01*
X110148465Y-117920500D01*
X110351420Y-117880130D01*
X110542598Y-117800941D01*
X110714655Y-117685977D01*
X110860977Y-117539655D01*
X110975941Y-117367598D01*
X111055130Y-117176420D01*
X111095500Y-116973465D01*
X111095500Y-116766535D01*
X111055130Y-116563580D01*
X110975941Y-116372402D01*
X110860977Y-116200345D01*
X110714655Y-116054023D01*
X110634182Y-116000253D01*
X110542597Y-115939058D01*
X110351418Y-115859869D01*
X110148467Y-115819500D01*
X110148465Y-115819500D01*
X109941535Y-115819500D01*
X109941532Y-115819500D01*
X109738581Y-115859869D01*
X109547402Y-115939058D01*
X109375348Y-116054020D01*
X109229020Y-116200348D01*
X109114058Y-116372402D01*
X109034869Y-116563581D01*
X108994500Y-116766532D01*
X108994500Y-116973467D01*
X109034870Y-117176419D01*
X109034870Y-117176421D01*
X109091196Y-117312404D01*
X109095997Y-117373400D01*
X109069737Y-117420291D01*
X109049539Y-117440488D01*
X109009980Y-117509007D01*
X109009978Y-117509011D01*
X108989500Y-117585435D01*
X108989500Y-117690521D01*
X108970593Y-117748712D01*
X108921093Y-117784676D01*
X108859907Y-117784676D01*
X108820496Y-117760525D01*
X108584496Y-117524525D01*
X108556719Y-117470008D01*
X108555500Y-117454521D01*
X108555500Y-116000253D01*
X108555498Y-116000241D01*
X108552711Y-115986231D01*
X108543867Y-115941769D01*
X108499552Y-115875448D01*
X108499548Y-115875445D01*
X108433233Y-115831134D01*
X108433231Y-115831133D01*
X108433228Y-115831132D01*
X108433227Y-115831132D01*
X108374758Y-115819501D01*
X108374748Y-115819500D01*
X106635252Y-115819500D01*
X106635251Y-115819500D01*
X106635241Y-115819501D01*
X106576772Y-115831132D01*
X106576766Y-115831134D01*
X106510451Y-115875445D01*
X106510445Y-115875451D01*
X106466134Y-115941766D01*
X106466132Y-115941772D01*
X106454501Y-116000241D01*
X106454500Y-116000253D01*
X86000500Y-116000253D01*
X86000500Y-113099500D01*
X86019407Y-113041309D01*
X86068907Y-113005345D01*
X86099500Y-113000500D01*
X131120500Y-113000500D01*
X131178691Y-113019407D01*
G37*
%TD.AperFunction*%
%TD*%
M02*
